{
classes = (
{
automatic = 1;
code = "A Aacute Aogonek B C Cacute D E Eogonek F G H I J K L Lslash M N Nacute O Oacute P Q R S Sacute T U V W X Y Z Zacute Zdotaccent";
name = Uppercase;
}
);
date = "2016-06-15 17:58:36 +0000";
familyName = "cafe";
featurePrefixes = (
{
automatic = 1;
code = "languagesystem DFLT dflt;\012languagesystem latn dflt;\012";
name = Languagesystems;
}
);
features = (
{
automatic = 1;
code = "feature fina;\012feature ss01;";
name = aalt;
},
{
automatic = 1;
code = "sub a by a.fina;\012sub aogonek by aogonek.fina;\012sub b by b.fina;\012sub c by c.fina;\012sub cacute by cacute.fina;\012sub d by d.fina;\012sub e by e.fina;\012sub eogonek by eogonek.fina;\012sub h by h.fina;\012sub i by i.fina;\012sub k by k.fina;\012sub l by l.fina;\012sub lslash by lslash.fina;\012sub m by m.fina;\012sub n by n.fina;\012sub nacute by nacute.fina;\012sub r by r.fina;\012sub s by s.fina;\012sub sacute by sacute.fina;\012sub t by t.fina;\012sub u by u.fina;\012sub y by y.fina;\012sub z by z.fina;\012sub zacute by zacute.fina;\012sub zdotaccent by zdotaccent.fina;";
name = fina;
},
{
automatic = 1;
code = "sub P lslash by P_lslash;";
name = dlig;
},
{
automatic = 1;
code = "sub W t by W_t.liga;\012sub c z by c_z.liga;\012sub f f by f_f.liga;\012sub l l by l_l.liga;\012sub lslash lslash by lslash_lslash.liga;\012sub o o by o_o.liga;\012sub r z by r_z.liga;\012sub s s by s_s.liga;\012sub s z by s_z.liga;\012sub t t by t_t.liga;";
name = liga;
},
{
automatic = 1;
code = "sub a by a.ss01;\012sub g by g.ss01;\012sub lslash by lslash.ss01;\012sub o by o.ss01;\012sub oacute by oacute.ss01;\012sub t by t.ss01;";
name = ss01;
},
{
automatic = 1;
code = "pos @Uppercase <5 0 10 0>;";
name = cpsp;
},
{
code = "";
name = calt;
}
);
fontMaster = (
{
ascender = 800;
capHeight = 700;
descender = "-200";
id = "2B556C7D-ACF4-4058-9F01-0A4D9389EAED";
userData = {
GSCornerRadius = 15;
GSOffsetHorizontal = 15;
GSOffsetMakeStroke = 1;
GSOffsetVertical = 15;
};
xHeight = 500;
}
);
glyphs = (
{
color = 4;
glyphname = A;
lastChange = "2016-08-19 13:23:10 +0200";
layers = (
{
associatedMasterId = "2B556C7D-ACF4-4058-9F01-0A4D9389EAED";
layerId = "80CC632E-8C87-4D2B-88A0-2E711EF6FCC2";
name = "Regular Jul 30 16, 20:44";
paths = (
{
closed = 1;
nodes = (
"371 523 OFFCURVE",
"609 869 OFFCURVE",
"739 843 CURVE SMOOTH",
"771 837 OFFCURVE",
"687 193 OFFCURVE",
"657 3 CURVE SMOOTH",
"651 -41 OFFCURVE",
"715 -45 OFFCURVE",
"725 3 CURVE SMOOTH",
"801 359 OFFCURVE",
"675 463 OFFCURVE",
"529 473 CURVE SMOOTH",
"297 489 OFFCURVE",
"21 281 OFFCURVE",
"21 125 CURVE SMOOTH",
"21 -79 OFFCURVE",
"555 9 OFFCURVE",
"1003 381 CURVE SMOOTH",
"1045 417 OFFCURVE",
"989 433 OFFCURVE",
"987 431 CURVE SMOOTH",
"563 75 OFFCURVE",
"65 -7 OFFCURVE",
"61 131 CURVE SMOOTH",
"57 247 OFFCURVE",
"481 563 OFFCURVE",
"651 371 CURVE SMOOTH",
"747 265 OFFCURVE",
"711 61 OFFCURVE",
"703 5 CURVE SMOOTH",
"703 5 OFFCURVE",
"713 61 OFFCURVE",
"721 115 CURVE SMOOTH",
"777 499 OFFCURVE",
"817 783 OFFCURVE",
"783 847 CURVE SMOOTH",
"763 885 OFFCURVE",
"739 893 OFFCURVE",
"711 889 CURVE SMOOTH",
"511 861 OFFCURVE",
"291 431 OFFCURVE",
"237 -111 CURVE SMOOTH",
"235 -139 OFFCURVE",
"285 -141 OFFCURVE",
"293 -83 CURVE SMOOTH"
);
}
);
width = 910;
},
{
associatedMasterId = "2B556C7D-ACF4-4058-9F01-0A4D9389EAED";
layerId = "9F43915F-F91E-4890-8A59-5E4DAE36D6A7";
name = "Regular Aug 3 16, 12:01";
paths = (
{
closed = 1;
nodes = (
"395 609 OFFCURVE",
"669 765 OFFCURVE",
"713 716 CURVE SMOOTH",
"745 680 OFFCURVE",
"689 208 OFFCURVE",
"659 18 CURVE SMOOTH",
"653 -26 OFFCURVE",
"712 -30 OFFCURVE",
"725 18 CURVE SMOOTH",
"822 374 OFFCURVE",
"675 457 OFFCURVE",
"529 468 CURVE SMOOTH",
"318 484 OFFCURVE",
"21 281 OFFCURVE",
"21 125 CURVE SMOOTH",
"21 -79 OFFCURVE",
"555 9 OFFCURVE",
"1003 381 CURVE SMOOTH",
"1045 417 OFFCURVE",
"989 433 OFFCURVE",
"987 431 CURVE SMOOTH",
"581 98 OFFCURVE",
"83 -6 OFFCURVE",
"79 132 CURVE SMOOTH",
"75 264 OFFCURVE",
"484 528 OFFCURVE",
"654 362 CURVE SMOOTH",
"757 262 OFFCURVE",
"692 60 OFFCURVE",
"703 20 CURVE SMOOTH",
"703 20 OFFCURVE",
"707 59 OFFCURVE",
"721 115 CURVE SMOOTH",
"741 197 OFFCURVE",
"809 660 OFFCURVE",
"766 731 CURVE SMOOTH",
"748 761 OFFCURVE",
"729 777 OFFCURVE",
"684 773 CURVE SMOOTH",
"504 757 OFFCURVE",
"308 438 OFFCURVE",
"254 -67 CURVE SMOOTH",
"251 -95 OFFCURVE",
"310 -97 OFFCURVE",
"317 -39 CURVE SMOOTH"
);
}
);
width = 910;
},
{
associatedMasterId = "2B556C7D-ACF4-4058-9F01-0A4D9389EAED";
layerId = "030F84A2-6C69-4EEB-9891-C006CC284273";
name = "Regular Aug 5 16, 00:20";
paths = (
{
closed = 1;
nodes = (
"-2 -8 OFFCURVE",
"37 -40 CURVE SMOOTH",
"116 -106 OFFCURVE",
"229 -52 OFFCURVE",
"311 27 CURVE SMOOTH",
"523 235 OFFCURVE",
"729 729 OFFCURVE",
"729 741 CURVE SMOOTH",
"729 760 OFFCURVE",
"708 763 OFFCURVE",
"702 724 CURVE SMOOTH",
"680 591 OFFCURVE",
"664 18 OFFCURVE",
"660 -19 CURVE SMOOTH",
"656 -63 OFFCURVE",
"723 -70 OFFCURVE",
"723 -21 CURVE SMOOTH",
"723 158 OFFCURVE",
"564 321 OFFCURVE",
"403 351 CURVE SMOOTH",
"360 359 OFFCURVE",
"333 306 OFFCURVE",
"408 290 CURVE SMOOTH",
"540 262 OFFCURVE",
"738 257 OFFCURVE",
"1003 381 CURVE SMOOTH",
"1065 410 OFFCURVE",
"1022 448 OFFCURVE",
"986 431 CURVE SMOOTH",
"763 322 OFFCURVE",
"555 305 OFFCURVE",
"420 340 CURVE SMOOTH",
"401 345 OFFCURVE",
"371 323 OFFCURVE",
"444 287 CURVE SMOOTH",
"613 203 OFFCURVE",
"664 54 OFFCURVE",
"664 -27 CURVE SMOOTH",
"664 -27 OFFCURVE",
"722 -54 OFFCURVE",
"722 -21 CURVE SMOOTH",
"722 158 OFFCURVE",
"749 625 OFFCURVE",
"764 737 CURVE SMOOTH",
"773 807 OFFCURVE",
"722 817 OFFCURVE",
"699 782 CURVE SMOOTH",
"634 683 OFFCURVE",
"400 95 OFFCURVE",
"169 -5 CURVE SMOOTH",
"86 -41 OFFCURVE",
"40 26 OFFCURVE",
"79 78 CURVE SMOOTH",
"110 119 OFFCURVE",
"162 121 OFFCURVE",
"187 121 CURVE SMOOTH",
"224 121 OFFCURVE",
"229 159 OFFCURVE",
"201 167 CURVE SMOOTH",
"130 187 OFFCURVE",
"58 149 OFFCURVE",
"31 110 CURVE SMOOTH",
"-10 49 OFFCURVE"
);
}
);
width = 940;
},
{
associatedMasterId = "2B556C7D-ACF4-4058-9F01-0A4D9389EAED";
layerId = "8AA1242A-4F0B-4E76-9EE3-38677DA16770";
name = "Regular Aug 5 16, 00:49";
paths = (
{
closed = 1;
nodes = (
"398 602 OFFCURVE",
"674 754 OFFCURVE",
"712 712 CURVE SMOOTH",
"744 676 OFFCURVE",
"686 208 OFFCURVE",
"656 18 CURVE SMOOTH",
"650 -26 OFFCURVE",
"714 -29 OFFCURVE",
"728 18 CURVE SMOOTH",
"835 369 OFFCURVE",
"675 460 OFFCURVE",
"529 471 CURVE SMOOTH",
"318 487 OFFCURVE",
"25 286 OFFCURVE",
"25 130 CURVE SMOOTH",
"25 -74 OFFCURVE",
"555 9 OFFCURVE",
"1003 381 CURVE SMOOTH",
"1063 432 OFFCURVE",
"1007 462 OFFCURVE",
"987 442 CURVE SMOOTH",
"581 109 OFFCURVE",
"97 8 OFFCURVE",
"87 131 CURVE SMOOTH",
"76 263 OFFCURVE",
"481 524 OFFCURVE",
"651 358 CURVE SMOOTH",
"754 258 OFFCURVE",
"692 60 OFFCURVE",
"703 20 CURVE SMOOTH",
"703 20 OFFCURVE",
"707 59 OFFCURVE",
"721 115 CURVE SMOOTH",
"741 197 OFFCURVE",
"814 638 OFFCURVE",
"771 731 CURVE SMOOTH",
"756 763 OFFCURVE",
"729 780 OFFCURVE",
"684 774 CURVE SMOOTH",
"504 751 OFFCURVE",
"311 451 OFFCURVE",
"262 -43 CURVE SMOOTH",
"258 -79 OFFCURVE",
"314 -97 OFFCURVE",
"321 -39 CURVE SMOOTH"
);
}
);
width = 940;
},
{
associatedMasterId = "2B556C7D-ACF4-4058-9F01-0A4D9389EAED";
layerId = "F937156B-CDD4-44B4-9D69-82EF48A356E5";
name = "Regular Aug 5 16, 00:54";
paths = (
{
closed = 1;
nodes = (
"-27 54 OFFCURVE",
"34 -47 CURVE SMOOTH",
"55 -80 OFFCURVE",
"97 -100 OFFCURVE",
"153 -96 CURVE SMOOTH",
"214 -93 OFFCURVE",
"280 -52 OFFCURVE",
"335 0 CURVE SMOOTH",
"558 208 OFFCURVE",
"729 729 OFFCURVE",
"729 741 CURVE SMOOTH",
"729 760 OFFCURVE",
"708 763 OFFCURVE",
"702 724 CURVE SMOOTH",
"680 591 OFFCURVE",
"664 18 OFFCURVE",
"660 -19 CURVE SMOOTH",
"656 -63 OFFCURVE",
"723 -70 OFFCURVE",
"723 -21 CURVE SMOOTH",
"723 158 OFFCURVE",
"564 321 OFFCURVE",
"403 351 CURVE SMOOTH",
"360 359 OFFCURVE",
"333 306 OFFCURVE",
"408 290 CURVE SMOOTH",
"540 262 OFFCURVE",
"738 257 OFFCURVE",
"1003 381 CURVE SMOOTH",
"1065 410 OFFCURVE",
"1022 448 OFFCURVE",
"986 431 CURVE SMOOTH",
"763 322 OFFCURVE",
"555 305 OFFCURVE",
"420 340 CURVE SMOOTH",
"401 345 OFFCURVE",
"371 323 OFFCURVE",
"444 287 CURVE SMOOTH",
"613 203 OFFCURVE",
"664 54 OFFCURVE",
"664 -27 CURVE SMOOTH",
"664 -27 OFFCURVE",
"722 -54 OFFCURVE",
"722 -21 CURVE SMOOTH",
"722 158 OFFCURVE",
"749 625 OFFCURVE",
"764 737 CURVE SMOOTH",
"773 807 OFFCURVE",
"718 819 OFFCURVE",
"699 782 CURVE SMOOTH",
"634 656 OFFCURVE",
"426 74 OFFCURVE",
"195 -29 CURVE SMOOTH",
"152 -48 OFFCURVE",
"106 -43 OFFCURVE",
"88 -17 CURVE SMOOTH",
"44 48 OFFCURVE",
"159 130 OFFCURVE",
"246 140 CURVE SMOOTH",
"292 145 OFFCURVE",
"287 193 OFFCURVE",
"246 193 CURVE SMOOTH",
"111 193 OFFCURVE"
);
}
);
width = 940;
},
{
associatedMasterId = "2B556C7D-ACF4-4058-9F01-0A4D9389EAED";
layerId = "C6D1D1D6-8DDF-4241-8826-EF01A4718223";
name = "Regular Aug 5 16, 10:11";
paths = (
{
closed = 1;
nodes = (
"-1 97 OFFCURVE",
"35 -16 CURVE SMOOTH",
"59 -92 OFFCURVE",
"132 -98 OFFCURVE",
"176 -98 CURVE SMOOTH",
"452 -98 OFFCURVE",
"694 625 OFFCURVE",
"723 731 CURVE SMOOTH",
"728 750 OFFCURVE",
"708 765 OFFCURVE",
"702 726 CURVE SMOOTH",
"680 593 OFFCURVE",
"664 18 OFFCURVE",
"660 -19 CURVE SMOOTH",
"656 -63 OFFCURVE",
"723 -70 OFFCURVE",
"723 -21 CURVE SMOOTH",
"723 158 OFFCURVE",
"564 321 OFFCURVE",
"403 351 CURVE SMOOTH",
"360 359 OFFCURVE",
"333 306 OFFCURVE",
"408 290 CURVE SMOOTH",
"540 262 OFFCURVE",
"738 257 OFFCURVE",
"1003 381 CURVE SMOOTH",
"1065 410 OFFCURVE",
"1022 448 OFFCURVE",
"986 431 CURVE SMOOTH",
"763 322 OFFCURVE",
"555 305 OFFCURVE",
"420 340 CURVE SMOOTH",
"401 345 OFFCURVE",
"370 321 OFFCURVE",
"444 287 CURVE SMOOTH",
"625 203 OFFCURVE",
"664 54 OFFCURVE",
"664 -27 CURVE SMOOTH",
"664 -27 OFFCURVE",
"722 -54 OFFCURVE",
"722 -21 CURVE SMOOTH",
"722 158 OFFCURVE",
"749 625 OFFCURVE",
"764 737 CURVE SMOOTH",
"773 807 OFFCURVE",
"699 811 OFFCURVE",
"683 772 CURVE SMOOTH",
"637 657 OFFCURVE",
"390 -40 OFFCURVE",
"177 -40 CURVE SMOOTH",
"155 -40 OFFCURVE",
"102 -39 OFFCURVE",
"89 14 CURVE SMOOTH",
"70 90 OFFCURVE",
"160 147 OFFCURVE",
"247 147 CURVE SMOOTH",
"293 147 OFFCURVE",
"288 196 OFFCURVE",
"247 200 CURVE SMOOTH",
"112 212 OFFCURVE"
);
}
);
width = 940;
},
{
associatedMasterId = "2B556C7D-ACF4-4058-9F01-0A4D9389EAED";
layerId = "4C1D3F23-FFA9-4B87-8FAB-1D187C6B1EFD";
name = "Regular Aug 5 16, 10:31";
paths = (
{
closed = 1;
nodes = (
"7 54 OFFCURVE",
"68 -47 CURVE SMOOTH",
"92 -85 OFFCURVE",
"132 -100 OFFCURVE",
"176 -98 CURVE SMOOTH",
"435 -87 OFFCURVE",
"694 623 OFFCURVE",
"723 729 CURVE SMOOTH",
"728 748 OFFCURVE",
"708 763 OFFCURVE",
"702 724 CURVE SMOOTH",
"680 591 OFFCURVE",
"664 18 OFFCURVE",
"660 -19 CURVE SMOOTH",
"656 -63 OFFCURVE",
"723 -70 OFFCURVE",
"723 -21 CURVE SMOOTH",
"723 158 OFFCURVE",
"564 321 OFFCURVE",
"403 351 CURVE SMOOTH",
"360 359 OFFCURVE",
"333 306 OFFCURVE",
"408 290 CURVE SMOOTH",
"540 262 OFFCURVE",
"738 257 OFFCURVE",
"1003 381 CURVE SMOOTH",
"1065 410 OFFCURVE",
"1022 448 OFFCURVE",
"986 431 CURVE SMOOTH",
"763 322 OFFCURVE",
"555 305 OFFCURVE",
"420 340 CURVE SMOOTH",
"401 345 OFFCURVE",
"371 323 OFFCURVE",
"444 287 CURVE SMOOTH",
"613 203 OFFCURVE",
"664 54 OFFCURVE",
"664 -27 CURVE SMOOTH",
"664 -27 OFFCURVE",
"722 -54 OFFCURVE",
"722 -21 CURVE SMOOTH",
"722 158 OFFCURVE",
"749 625 OFFCURVE",
"764 737 CURVE SMOOTH",
"773 807 OFFCURVE",
"699 811 OFFCURVE",
"683 772 CURVE SMOOTH",
"637 657 OFFCURVE",
"375 -28 OFFCURVE",
"177 -40 CURVE SMOOTH",
"155 -41 OFFCURVE",
"135 -35 OFFCURVE",
"122 -17 CURVE SMOOTH",
"78 48 OFFCURVE",
"193 130 OFFCURVE",
"280 140 CURVE SMOOTH",
"326 145 OFFCURVE",
"321 193 OFFCURVE",
"280 193 CURVE SMOOTH",
"145 193 OFFCURVE"
);
}
);
width = 940;
},
{
layerId = "2B556C7D-ACF4-4058-9F01-0A4D9389EAED";
name = Regular;
paths = (
{
closed = 1;
nodes = (
"-32 35 OFFCURVE",
"-4 -103 OFFCURVE",
"112 -98 CURVE SMOOTH",
"353 -87 OFFCURVE",
"633 637 OFFCURVE",
"659 729 CURVE SMOOTH",
"664 748 OFFCURVE",
"644 763 OFFCURVE",
"638 724 CURVE SMOOTH",
"616 591 OFFCURVE",
"600 18 OFFCURVE",
"596 -19 CURVE SMOOTH",
"592 -63 OFFCURVE",
"659 -70 OFFCURVE",
"659 -21 CURVE SMOOTH",
"659 158 OFFCURVE",
"500 321 OFFCURVE",
"339 351 CURVE SMOOTH",
"296 359 OFFCURVE",
"269 300 OFFCURVE",
"344 284 CURVE SMOOTH",
"476 256 OFFCURVE",
"599 230 OFFCURVE",
"864 354 CURVE SMOOTH",
"926 383 OFFCURVE",
"882 428 OFFCURVE",
"846 411 CURVE SMOOTH",
"623 302 OFFCURVE",
"491 305 OFFCURVE",
"356 340 CURVE SMOOTH",
"337 345 OFFCURVE",
"307 323 OFFCURVE",
"380 287 CURVE SMOOTH",
"549 203 OFFCURVE",
"600 54 OFFCURVE",
"600 -27 CURVE SMOOTH",
"600 -27 OFFCURVE",
"658 -54 OFFCURVE",
"658 -21 CURVE SMOOTH",
"658 158 OFFCURVE",
"685 625 OFFCURVE",
"700 737 CURVE SMOOTH",
"709 807 OFFCURVE",
"635 811 OFFCURVE",
"619 772 CURVE SMOOTH",
"576 665 OFFCURVE",
"279 -24 OFFCURVE",
"113 -36 CURVE SMOOTH",
"47 -41 OFFCURVE",
"47 49 OFFCURVE",
"104 158 CURVE SMOOTH",
"132 212 OFFCURVE",
"60 230 OFFCURVE",
"37 181 CURVE SMOOTH"
);
}
);
width = 824;
}
);
unicode = 0041;
},
{
color = 4;
glyphname = Aacute;
lastChange = "2016-08-05 22:15:15 +0200";
layers = (
{
layerId = "2B556C7D-ACF4-4058-9F01-0A4D9389EAED";
name = Regular;
paths = (
{
closed = 1;
nodes = (
"32 35 OFFCURVE",
"60 -100 OFFCURVE",
"176 -94 CURVE SMOOTH",
"404 -83 OFFCURVE",
"697 494 OFFCURVE",
"723 577 CURVE SMOOTH",
"729 596 OFFCURVE",
"708 611 OFFCURVE",
"702 572 CURVE SMOOTH",
"680 439 OFFCURVE",
"661 18 OFFCURVE",
"657 -19 CURVE SMOOTH",
"653 -63 OFFCURVE",
"723 -70 OFFCURVE",
"723 -21 CURVE SMOOTH",
"723 158 OFFCURVE",
"564 321 OFFCURVE",
"403 351 CURVE SMOOTH",
"360 359 OFFCURVE",
"333 300 OFFCURVE",
"408 284 CURVE SMOOTH",
"540 256 OFFCURVE",
"664 236 OFFCURVE",
"902 347 CURVE SMOOTH",
"964 376 OFFCURVE",
"920 420 OFFCURVE",
"885 403 CURVE SMOOTH",
"683 304 OFFCURVE",
"555 305 OFFCURVE",
"420 340 CURVE SMOOTH",
"401 345 OFFCURVE",
"371 323 OFFCURVE",
"444 287 CURVE SMOOTH",
"613 203 OFFCURVE",
"661 54 OFFCURVE",
"661 -27 CURVE SMOOTH",
"661 -27 OFFCURVE",
"720 -54 OFFCURVE",
"722 -21 CURVE SMOOTH",
"732 158 OFFCURVE",
"749 400 OFFCURVE",
"764 585 CURVE SMOOTH",
"770 655 OFFCURVE",
"701 655 OFFCURVE",
"683 617 CURVE SMOOTH",
"622 486 OFFCURVE",
"345 -26 OFFCURVE",
"179 -38 CURVE SMOOTH",
"113 -43 OFFCURVE",
"106 49 OFFCURVE",
"163 158 CURVE SMOOTH",
"191 212 OFFCURVE",
"124 230 OFFCURVE",
"101 181 CURVE SMOOTH"
);
},
{
closed = 1;
nodes = (
"731 859 OFFCURVE",
"717 794 OFFCURVE",
"708 757 CURVE SMOOTH",
"697 713 OFFCURVE",
"753 700 OFFCURVE",
"766 741 CURVE SMOOTH",
"783 796 OFFCURVE",
"796 845 OFFCURVE",
"805 879 CURVE SMOOTH",
"817 923 OFFCURVE",
"756 942 OFFCURVE",
"742 895 CURVE SMOOTH"
);
}
);
width = 888;
}
);
leftMetricsKey = A;
rightMetricsKey = A;
unicode = 00C1;
},
{
color = 4;
glyphname = Aogonek;
lastChange = "2016-08-19 13:23:01 +0200";
layers = (
{
associatedMasterId = "2B556C7D-ACF4-4058-9F01-0A4D9389EAED";
layerId = "81B089B6-4E8A-4F05-A0B9-4C7AE6E70DD1";
name = "Regular Aug 5 16, 11:28";
paths = (
{
closed = 1;
nodes = (
"640 665 OFFCURVE",
"343 -24 OFFCURVE",
"177 -36 CURVE SMOOTH",
"111 -41 OFFCURVE",
"111 49 OFFCURVE",
"168 158 CURVE SMOOTH",
"196 212 OFFCURVE",
"124 230 OFFCURVE",
"101 181 CURVE SMOOTH",
"32 35 OFFCURVE",
"60 -103 OFFCURVE",
"176 -98 CURVE SMOOTH",
"417 -87 OFFCURVE",
"697 637 OFFCURVE",
"723 729 CURVE SMOOTH",
"728 748 OFFCURVE",
"708 763 OFFCURVE",
"702 724 CURVE SMOOTH",
"680 591 OFFCURVE",
"664 18 OFFCURVE",
"660 -19 CURVE SMOOTH",
"656 -63 OFFCURVE",
"723 -70 OFFCURVE",
"723 -21 CURVE SMOOTH",
"723 158 OFFCURVE",
"564 321 OFFCURVE",
"403 351 CURVE SMOOTH",
"360 359 OFFCURVE",
"333 300 OFFCURVE",
"408 284 CURVE SMOOTH",
"540 256 OFFCURVE",
"662 231 OFFCURVE",
"927 355 CURVE SMOOTH",
"989 384 OFFCURVE",
"946 428 OFFCURVE",
"910 411 CURVE SMOOTH",
"687 302 OFFCURVE",
"555 305 OFFCURVE",
"420 340 CURVE SMOOTH",
"401 345 OFFCURVE",
"371 323 OFFCURVE",
"444 287 CURVE SMOOTH",
"613 203 OFFCURVE",
"664 54 OFFCURVE",
"664 -27 CURVE SMOOTH",
"664 -27 OFFCURVE",
"722 -54 OFFCURVE",
"722 -21 CURVE SMOOTH",
"722 158 OFFCURVE",
"749 625 OFFCURVE",
"764 737 CURVE SMOOTH",
"773 807 OFFCURVE",
"699 811 OFFCURVE",
"683 772 CURVE SMOOTH"
);
},
{
closed = 1;
nodes = (
"625 -91 OFFCURVE",
"616 -159 OFFCURVE",
"616 -178 CURVE SMOOTH",
"616 -217 OFFCURVE",
"667 -212 OFFCURVE",
"670 -180 CURVE SMOOTH",
"672 -150 OFFCURVE",
"684 -112 OFFCURVE",
"709 -65 CURVE SMOOTH",
"727 -32 OFFCURVE",
"679 -4 OFFCURVE",
"655 -43 CURVE SMOOTH"
);
}
);
width = 880;
},
{
associatedMasterId = "2B556C7D-ACF4-4058-9F01-0A4D9389EAED";
layerId = "ADFCF8CA-B8AD-4C09-9303-F0816A265D55";
name = "Regular Aug 5 16, 11:30 Aug 5 16, 11:31";
paths = (
{
closed = 1;
nodes = (
"606 -174 OFFCURVE",
"620 -283 OFFCURVE",
"660 -337 CURVE SMOOTH",
"680 -366 OFFCURVE",
"739 -340 OFFCURVE",
"712 -301 CURVE SMOOTH",
"667 -234 OFFCURVE",
"701 -139 OFFCURVE",
"710 -119 CURVE SMOOTH",
"730 -79 OFFCURVE",
"677 -49 OFFCURVE",
"657 -84 CURVE SMOOTH"
);
},
{
closed = 1;
nodes = (
"32 35 OFFCURVE",
"60 -103 OFFCURVE",
"176 -98 CURVE SMOOTH",
"417 -87 OFFCURVE",
"697 637 OFFCURVE",
"723 729 CURVE SMOOTH",
"728 748 OFFCURVE",
"708 763 OFFCURVE",
"702 724 CURVE SMOOTH",
"680 591 OFFCURVE",
"664 18 OFFCURVE",
"660 -19 CURVE SMOOTH",
"656 -63 OFFCURVE",
"723 -70 OFFCURVE",
"723 -21 CURVE SMOOTH",
"723 158 OFFCURVE",
"564 321 OFFCURVE",
"403 351 CURVE SMOOTH",
"360 359 OFFCURVE",
"333 300 OFFCURVE",
"408 284 CURVE SMOOTH",
"540 256 OFFCURVE",
"662 231 OFFCURVE",
"927 355 CURVE SMOOTH",
"989 384 OFFCURVE",
"946 428 OFFCURVE",
"910 411 CURVE SMOOTH",
"687 302 OFFCURVE",
"555 305 OFFCURVE",
"420 340 CURVE SMOOTH",
"401 345 OFFCURVE",
"371 323 OFFCURVE",
"444 287 CURVE SMOOTH",
"613 203 OFFCURVE",
"664 54 OFFCURVE",
"664 -27 CURVE SMOOTH",
"664 -27 OFFCURVE",
"722 -54 OFFCURVE",
"722 -21 CURVE SMOOTH",
"722 158 OFFCURVE",
"749 625 OFFCURVE",
"764 737 CURVE SMOOTH",
"773 807 OFFCURVE",
"699 811 OFFCURVE",
"683 772 CURVE SMOOTH",
"640 665 OFFCURVE",
"343 -24 OFFCURVE",
"177 -36 CURVE SMOOTH",
"111 -41 OFFCURVE",
"111 49 OFFCURVE",
"168 158 CURVE SMOOTH",
"196 212 OFFCURVE",
"124 230 OFFCURVE",
"101 181 CURVE SMOOTH"
);
}
);
width = 880;
},
{
associatedMasterId = "2B556C7D-ACF4-4058-9F01-0A4D9389EAED";
layerId = "5BAC07C5-DD27-45EA-A956-EF77A6B5A11D";
name = "Regular Aug 5 16, 11:33";
paths = (
{
closed = 1;
nodes = (
"617 -97 OFFCURVE",
"617 -200 OFFCURVE",
"666 -266 CURVE SMOOTH",
"693 -304 OFFCURVE",
"760 -273 OFFCURVE",
"718 -230 CURVE SMOOTH",
"672 -183 OFFCURVE",
"700 -81 OFFCURVE",
"716 -48 CURVE SMOOTH",
"736 -8 OFFCURVE",
"685 22 OFFCURVE",
"665 -13 CURVE SMOOTH"
);
},
{
closed = 1;
nodes = (
"32 35 OFFCURVE",
"60 -103 OFFCURVE",
"176 -98 CURVE SMOOTH",
"417 -87 OFFCURVE",
"697 637 OFFCURVE",
"723 729 CURVE SMOOTH",
"728 748 OFFCURVE",
"708 763 OFFCURVE",
"702 724 CURVE SMOOTH",
"680 591 OFFCURVE",
"664 18 OFFCURVE",
"660 -19 CURVE SMOOTH",
"656 -63 OFFCURVE",
"723 -70 OFFCURVE",
"723 -21 CURVE SMOOTH",
"723 158 OFFCURVE",
"564 321 OFFCURVE",
"403 351 CURVE SMOOTH",
"360 359 OFFCURVE",
"333 300 OFFCURVE",
"408 284 CURVE SMOOTH",
"540 256 OFFCURVE",
"662 231 OFFCURVE",
"927 355 CURVE SMOOTH",
"989 384 OFFCURVE",
"946 428 OFFCURVE",
"910 411 CURVE SMOOTH",
"687 302 OFFCURVE",
"555 305 OFFCURVE",
"420 340 CURVE SMOOTH",
"401 345 OFFCURVE",
"371 323 OFFCURVE",
"444 287 CURVE SMOOTH",
"613 203 OFFCURVE",
"664 54 OFFCURVE",
"664 -27 CURVE SMOOTH",
"664 -27 OFFCURVE",
"722 -54 OFFCURVE",
"722 -21 CURVE SMOOTH",
"722 158 OFFCURVE",
"749 625 OFFCURVE",
"764 737 CURVE SMOOTH",
"773 807 OFFCURVE",
"699 811 OFFCURVE",
"683 772 CURVE SMOOTH",
"640 665 OFFCURVE",
"343 -24 OFFCURVE",
"177 -36 CURVE SMOOTH",
"111 -41 OFFCURVE",
"111 49 OFFCURVE",
"168 158 CURVE SMOOTH",
"196 212 OFFCURVE",
"124 230 OFFCURVE",
"101 181 CURVE SMOOTH"
);
}
);
width = 880;
},
{
associatedMasterId = "2B556C7D-ACF4-4058-9F01-0A4D9389EAED";
layerId = "0D4081C6-CC6B-466A-A6CB-B6D73F3029DE";
name = "Regular Aug 5 16, 12:01";
paths = (
{
closed = 1;
nodes = (
"570 -92 OFFCURVE",
"573 -213 OFFCURVE",
"613 -267 CURVE SMOOTH",
"633 -296 OFFCURVE",
"689 -271 OFFCURVE",
"665 -231 CURVE SMOOTH",
"622 -160 OFFCURVE",
"664 -71 OFFCURVE",
"674 -49 CURVE SMOOTH",
"695 -6 OFFCURVE",
"646 24 OFFCURVE",
"621 -14 CURVE SMOOTH"
);
},
{
closed = 1;
nodes = (
"32 35 OFFCURVE",
"60 -103 OFFCURVE",
"176 -98 CURVE SMOOTH",
"417 -87 OFFCURVE",
"697 637 OFFCURVE",
"723 729 CURVE SMOOTH",
"728 748 OFFCURVE",
"708 763 OFFCURVE",
"702 724 CURVE SMOOTH",
"680 591 OFFCURVE",
"664 18 OFFCURVE",
"660 -19 CURVE SMOOTH",
"656 -63 OFFCURVE",
"723 -70 OFFCURVE",
"723 -21 CURVE SMOOTH",
"723 158 OFFCURVE",
"564 321 OFFCURVE",
"403 351 CURVE SMOOTH",
"360 359 OFFCURVE",
"333 300 OFFCURVE",
"408 284 CURVE SMOOTH",
"540 256 OFFCURVE",
"662 231 OFFCURVE",
"927 355 CURVE SMOOTH",
"989 384 OFFCURVE",
"946 428 OFFCURVE",
"910 411 CURVE SMOOTH",
"687 302 OFFCURVE",
"555 305 OFFCURVE",
"420 340 CURVE SMOOTH",
"401 345 OFFCURVE",
"371 323 OFFCURVE",
"444 287 CURVE SMOOTH",
"613 203 OFFCURVE",
"664 54 OFFCURVE",
"664 -27 CURVE SMOOTH",
"664 -27 OFFCURVE",
"722 -54 OFFCURVE",
"722 -21 CURVE SMOOTH",
"722 158 OFFCURVE",
"749 625 OFFCURVE",
"764 737 CURVE SMOOTH",
"773 807 OFFCURVE",
"699 811 OFFCURVE",
"683 772 CURVE SMOOTH",
"640 665 OFFCURVE",
"343 -24 OFFCURVE",
"177 -36 CURVE SMOOTH",
"111 -41 OFFCURVE",
"111 49 OFFCURVE",
"168 158 CURVE SMOOTH",
"196 212 OFFCURVE",
"124 230 OFFCURVE",
"101 181 CURVE SMOOTH"
);
}
);
width = 880;
},
{
associatedMasterId = "2B556C7D-ACF4-4058-9F01-0A4D9389EAED";
layerId = "A07E8D77-D161-4DFC-89CB-99662B119379";
name = "Regular Aug 5 16, 12:02";
paths = (
{
closed = 1;
nodes = (
"640 665 OFFCURVE",
"343 -24 OFFCURVE",
"177 -36 CURVE SMOOTH",
"111 -41 OFFCURVE",
"111 49 OFFCURVE",
"168 158 CURVE SMOOTH",
"196 212 OFFCURVE",
"124 230 OFFCURVE",
"101 181 CURVE SMOOTH",
"32 35 OFFCURVE",
"60 -103 OFFCURVE",
"176 -98 CURVE SMOOTH",
"417 -87 OFFCURVE",
"697 637 OFFCURVE",
"723 729 CURVE SMOOTH",
"728 748 OFFCURVE",
"708 763 OFFCURVE",
"702 724 CURVE SMOOTH",
"680 591 OFFCURVE",
"664 18 OFFCURVE",
"660 -19 CURVE SMOOTH",
"656 -63 OFFCURVE",
"723 -70 OFFCURVE",
"723 -21 CURVE SMOOTH",
"723 158 OFFCURVE",
"564 321 OFFCURVE",
"403 351 CURVE SMOOTH",
"360 359 OFFCURVE",
"333 300 OFFCURVE",
"408 284 CURVE SMOOTH",
"540 256 OFFCURVE",
"662 231 OFFCURVE",
"927 355 CURVE SMOOTH",
"989 384 OFFCURVE",
"946 428 OFFCURVE",
"910 411 CURVE SMOOTH",
"687 302 OFFCURVE",
"555 305 OFFCURVE",
"420 340 CURVE SMOOTH",
"401 345 OFFCURVE",
"371 323 OFFCURVE",
"444 287 CURVE SMOOTH",
"613 203 OFFCURVE",
"664 54 OFFCURVE",
"664 -27 CURVE SMOOTH",
"664 -27 OFFCURVE",
"722 -54 OFFCURVE",
"722 -21 CURVE SMOOTH",
"722 158 OFFCURVE",
"749 625 OFFCURVE",
"764 737 CURVE SMOOTH",
"773 807 OFFCURVE",
"699 811 OFFCURVE",
"683 772 CURVE SMOOTH"
);
},
{
closed = 1;
nodes = (
"582 -95 OFFCURVE",
"568 -160 OFFCURVE",
"558 -200 CURVE SMOOTH",
"547 -244 OFFCURVE",
"603 -257 OFFCURVE",
"616 -216 CURVE SMOOTH",
"633 -161 OFFCURVE",
"646 -112 OFFCURVE",
"655 -78 CURVE SMOOTH",
"667 -34 OFFCURVE",
"606 -15 OFFCURVE",
"592 -62 CURVE SMOOTH"
);
}
);
width = 880;
},
{
associatedMasterId = "2B556C7D-ACF4-4058-9F01-0A4D9389EAED";
layerId = "A7C5C9EC-AC6E-4D8D-8778-D49034092232";
name = "Regular Aug 19 16, 13:20";
paths = (
{
closed = 1;
nodes = (
"640 665 OFFCURVE",
"343 -24 OFFCURVE",
"177 -36 CURVE SMOOTH",
"111 -41 OFFCURVE",
"111 49 OFFCURVE",
"168 158 CURVE SMOOTH",
"196 212 OFFCURVE",
"124 230 OFFCURVE",
"101 181 CURVE SMOOTH",
"32 35 OFFCURVE",
"60 -103 OFFCURVE",
"176 -98 CURVE SMOOTH",
"417 -87 OFFCURVE",
"697 637 OFFCURVE",
"723 729 CURVE SMOOTH",
"728 748 OFFCURVE",
"708 763 OFFCURVE",
"702 724 CURVE SMOOTH",
"680 591 OFFCURVE",
"664 18 OFFCURVE",
"660 -19 CURVE SMOOTH",
"656 -63 OFFCURVE",
"723 -70 OFFCURVE",
"723 -21 CURVE SMOOTH",
"723 158 OFFCURVE",
"564 321 OFFCURVE",
"403 351 CURVE SMOOTH",
"360 359 OFFCURVE",
"333 300 OFFCURVE",
"408 284 CURVE SMOOTH",
"540 256 OFFCURVE",
"662 231 OFFCURVE",
"927 355 CURVE SMOOTH",
"989 384 OFFCURVE",
"946 428 OFFCURVE",
"910 411 CURVE SMOOTH",
"687 302 OFFCURVE",
"555 305 OFFCURVE",
"420 340 CURVE SMOOTH",
"401 345 OFFCURVE",
"371 323 OFFCURVE",
"444 287 CURVE SMOOTH",
"613 203 OFFCURVE",
"664 54 OFFCURVE",
"664 -27 CURVE SMOOTH",
"664 -27 OFFCURVE",
"722 -54 OFFCURVE",
"722 -21 CURVE SMOOTH",
"722 158 OFFCURVE",
"749 625 OFFCURVE",
"764 737 CURVE SMOOTH",
"773 807 OFFCURVE",
"699 811 OFFCURVE",
"683 772 CURVE SMOOTH"
);
},
{
closed = 1;
nodes = (
"593 -58 OFFCURVE",
"568 -160 OFFCURVE",
"558 -200 CURVE SMOOTH",
"547 -244 OFFCURVE",
"603 -257 OFFCURVE",
"616 -216 CURVE SMOOTH",
"633 -161 OFFCURVE",
"657 -75 OFFCURVE",
"666 -41 CURVE SMOOTH",
"678 3 OFFCURVE",
"617 22 OFFCURVE",
"603 -25 CURVE SMOOTH"
);
}
);
width = 880;
},
{
layerId = "2B556C7D-ACF4-4058-9F01-0A4D9389EAED";
name = Regular;
paths = (
{
closed = 1;
nodes = (
"574 665 OFFCURVE",
"277 -24 OFFCURVE",
"111 -36 CURVE SMOOTH",
"45 -41 OFFCURVE",
"45 49 OFFCURVE",
"102 158 CURVE SMOOTH",
"130 212 OFFCURVE",
"58 230 OFFCURVE",
"35 181 CURVE SMOOTH",
"-34 35 OFFCURVE",
"-6 -103 OFFCURVE",
"110 -98 CURVE SMOOTH",
"351 -87 OFFCURVE",
"631 637 OFFCURVE",
"657 729 CURVE SMOOTH",
"662 748 OFFCURVE",
"642 763 OFFCURVE",
"636 724 CURVE SMOOTH",
"614 591 OFFCURVE",
"598 18 OFFCURVE",
"594 -19 CURVE SMOOTH",
"590 -63 OFFCURVE",
"657 -70 OFFCURVE",
"657 -21 CURVE SMOOTH",
"657 158 OFFCURVE",
"498 321 OFFCURVE",
"337 351 CURVE SMOOTH",
"294 359 OFFCURVE",
"267 300 OFFCURVE",
"342 284 CURVE SMOOTH",
"474 256 OFFCURVE",
"596 231 OFFCURVE",
"861 355 CURVE SMOOTH",
"923 384 OFFCURVE",
"880 428 OFFCURVE",
"844 411 CURVE SMOOTH",
"621 302 OFFCURVE",
"489 305 OFFCURVE",
"354 340 CURVE SMOOTH",
"335 345 OFFCURVE",
"305 323 OFFCURVE",
"378 287 CURVE SMOOTH",
"547 203 OFFCURVE",
"598 54 OFFCURVE",
"598 -27 CURVE SMOOTH",
"598 -27 OFFCURVE",
"656 -54 OFFCURVE",
"656 -21 CURVE SMOOTH",
"656 158 OFFCURVE",
"683 625 OFFCURVE",
"698 737 CURVE SMOOTH",
"707 807 OFFCURVE",
"633 811 OFFCURVE",
"617 772 CURVE SMOOTH"
);
},
{
closed = 1;
nodes = (
"532 -64 OFFCURVE",
"527 -161 OFFCURVE",
"550 -216 CURVE SMOOTH",
"569 -261 OFFCURVE",
"624 -246 OFFCURVE",
"608 -199 CURVE SMOOTH",
"591 -149 OFFCURVE",
"596 -97 OFFCURVE",
"643 -52 CURVE SMOOTH",
"674 -23 OFFCURVE",
"645 18 OFFCURVE",
"610 -7 CURVE SMOOTH"
);
}
);
width = 822;
}
);
leftMetricsKey = A;
rightMetricsKey = A;
unicode = 0104;
},
{
color = 4;
glyphname = B;
lastChange = "2016-08-05 14:34:37 +0200";
layers = (
{
associatedMasterId = "2B556C7D-ACF4-4058-9F01-0A4D9389EAED";
layerId = "E5D0A71D-FC97-460D-80E2-04400A94F2BA";
name = "Regular Aug 3 16, 12:02";
paths = (
{
closed = 1;
nodes = (
"354 731 CURVE SMOOTH",
"362 815 OFFCURVE",
"416 809 OFFCURVE",
"416 762 CURVE",
"404 591 OFFCURVE",
"351 213 OFFCURVE",
"324 135 CURVE SMOOTH",
"314 107 OFFCURVE",
"299 82 OFFCURVE",
"273 80 CURVE SMOOTH",
"241 78 OFFCURVE",
"213 100 OFFCURVE",
"201 144 CURVE SMOOTH",
"140 363 OFFCURVE",
"287 668 OFFCURVE",
"538 700 CURVE SMOOTH",
"670 717 OFFCURVE",
"730 643 OFFCURVE",
"730 579 CURVE SMOOTH",
"730 539 OFFCURVE",
"724 399 OFFCURVE",
"464 337 CURVE SMOOTH",
"373 315 OFFCURVE",
"371 369 OFFCURVE",
"422 395 CURVE SMOOTH",
"495 433 OFFCURVE",
"802 518 OFFCURVE",
"756 233 CURVE SMOOTH",
"728 57 OFFCURVE",
"557 -66 OFFCURVE",
"449 -58 CURVE SMOOTH",
"391 -54 OFFCURVE",
"372 3 OFFCURVE",
"382 44 CURVE SMOOTH",
"401 120 OFFCURVE",
"520 275 OFFCURVE",
"876 320 CURVE SMOOTH",
"930 327 OFFCURVE",
"918 275 OFFCURVE",
"884 272 CURVE SMOOTH",
"569 242 OFFCURVE",
"413 60 OFFCURVE",
"436 4 CURVE SMOOTH",
"453 -37 OFFCURVE",
"664 45 OFFCURVE",
"697 241 CURVE SMOOTH",
"724 400 OFFCURVE",
"610 419 OFFCURVE",
"442 355 CURVE SMOOTH",
"395 337 OFFCURVE",
"475 373 OFFCURVE",
"514 390 CURVE SMOOTH",
"619 436 OFFCURVE",
"676 508 OFFCURVE",
"669 579 CURVE SMOOTH",
"662 653 OFFCURVE",
"568 670 OFFCURVE",
"465 626 CURVE SMOOTH",
"369 585 OFFCURVE",
"276 479 OFFCURVE",
"250 331 CURVE SMOOTH",
"228 207 OFFCURVE",
"244 131 OFFCURVE",
"266 137 CURVE SMOOTH",
"285 142 OFFCURVE",
"325 433 OFFCURVE"
);
}
);
width = 873;
},
{
associatedMasterId = "2B556C7D-ACF4-4058-9F01-0A4D9389EAED";
layerId = "78038698-13AF-4B1A-BEEF-009E56FDDB62";
name = "Regular Aug 3 16, 12:09";
paths = (
{
closed = 1;
nodes = (
"354 731 CURVE SMOOTH",
"364 815 OFFCURVE",
"412 809 OFFCURVE",
"412 762 CURVE SMOOTH",
"412 762 OFFCURVE",
"339 221 OFFCURVE",
"318 135 CURVE SMOOTH",
"311 108 OFFCURVE",
"296 90 OFFCURVE",
"270 88 CURVE SMOOTH",
"212 84 OFFCURVE",
"170 159 OFFCURVE",
"190 303 CURVE SMOOTH",
"213 472 OFFCURVE",
"338 674 OFFCURVE",
"538 700 CURVE SMOOTH",
"671 717 OFFCURVE",
"731 643 OFFCURVE",
"731 579 CURVE SMOOTH",
"731 551 OFFCURVE",
"724 397 OFFCURVE",
"464 347 CURVE SMOOTH",
"372 329 OFFCURVE",
"371 369 OFFCURVE",
"422 395 CURVE SMOOTH",
"495 433 OFFCURVE",
"801 519 OFFCURVE",
"755 234 CURVE SMOOTH",
"727 58 OFFCURVE",
"557 -66 OFFCURVE",
"449 -58 CURVE SMOOTH",
"391 -54 OFFCURVE",
"373 -1 OFFCURVE",
"383 37 CURVE SMOOTH",
"403 113 OFFCURVE",
"502 275 OFFCURVE",
"876 320 CURVE SMOOTH",
"930 327 OFFCURVE",
"918 274 OFFCURVE",
"884 272 CURVE SMOOTH",
"569 251 OFFCURVE",
"413 60 OFFCURVE",
"436 4 CURVE SMOOTH",
"453 -37 OFFCURVE",
"664 50 OFFCURVE",
"697 247 CURVE SMOOTH",
"724 406 OFFCURVE",
"610 419 OFFCURVE",
"442 355 CURVE SMOOTH",
"395 337 OFFCURVE",
"477 369 OFFCURVE",
"514 390 CURVE SMOOTH",
"619 449 OFFCURVE",
"678 496 OFFCURVE",
"671 587 CURVE SMOOTH",
"665 661 OFFCURVE",
"567 671 OFFCURVE",
"465 624 CURVE SMOOTH",
"361 576 OFFCURVE",
"274 477 OFFCURVE",
"248 320 CURVE SMOOTH",
"229 204 OFFCURVE",
"243 166 OFFCURVE",
"247 151 CURVE SMOOTH",
"251 137 OFFCURVE",
"266 126 OFFCURVE",
"271 155 CURVE SMOOTH",
"275 178 OFFCURVE",
"318 441 OFFCURVE"
);
}
);
width = 852;
},
{
layerId = "2B556C7D-ACF4-4058-9F01-0A4D9389EAED";
name = Regular;
paths = (
{
closed = 1;
nodes = (
"165 703 CURVE SMOOTH",
"170 758 OFFCURVE",
"230 756 OFFCURVE",
"227 709 CURVE SMOOTH",
"215 544 OFFCURVE",
"155 137 OFFCURVE",
"143 96 CURVE SMOOTH",
"133 63 OFFCURVE",
"110 40 OFFCURVE",
"84 38 CURVE SMOOTH",
"-6 32 OFFCURVE",
"-19 202 OFFCURVE",
"3 314 CURVE SMOOTH",
"41 505 OFFCURVE",
"189 677 OFFCURVE",
"374 701 CURVE SMOOTH",
"506 718 OFFCURVE",
"570 643 OFFCURVE",
"570 579 CURVE SMOOTH",
"570 539 OFFCURVE",
"560 399 OFFCURVE",
"300 337 CURVE SMOOTH",
"209 315 OFFCURVE",
"207 369 OFFCURVE",
"258 395 CURVE SMOOTH",
"331 433 OFFCURVE",
"635 518 OFFCURVE",
"593 233 CURVE SMOOTH",
"565 45 OFFCURVE",
"393 -66 OFFCURVE",
"285 -58 CURVE SMOOTH",
"227 -54 OFFCURVE",
"208 3 OFFCURVE",
"218 44 CURVE SMOOTH",
"237 120 OFFCURVE",
"356 282 OFFCURVE",
"712 327 CURVE SMOOTH",
"766 334 OFFCURVE",
"754 275 OFFCURVE",
"720 272 CURVE SMOOTH",
"405 242 OFFCURVE",
"254 64 OFFCURVE",
"277 8 CURVE SMOOTH",
"294 -33 OFFCURVE",
"496 46 OFFCURVE",
"529 240 CURVE SMOOTH",
"554 385 OFFCURVE",
"446 417 OFFCURVE",
"278 353 CURVE SMOOTH",
"231 335 OFFCURVE",
"312 376 OFFCURVE",
"350 395 CURVE SMOOTH",
"445 441 OFFCURVE",
"510 507 OFFCURVE",
"503 578 CURVE SMOOTH",
"496 652 OFFCURVE",
"405 662 OFFCURVE",
"301 619 CURVE SMOOTH",
"199 577 OFFCURVE",
"88 460 OFFCURVE",
"60 304 CURVE SMOOTH",
"31 140 OFFCURVE",
"74 81 OFFCURVE",
"84 102 CURVE SMOOTH",
"97 130 OFFCURVE",
"147 504 OFFCURVE"
);
}
);
width = 709;
}
);
unicode = 0042;
},
{
color = 4;
glyphname = C;
lastChange = "2016-08-03 12:17:51 +0200";
layers = (
{
associatedMasterId = "2B556C7D-ACF4-4058-9F01-0A4D9389EAED";
layerId = "9FAF0C2C-A9B2-4E38-AF89-F80723B21E82";
name = "Regular Jul 30 16, 20:56";
paths = (
{
closed = 1;
nodes = (
"356 626 OFFCURVE",
"316 709 OFFCURVE",
"269 700 CURVE SMOOTH",
"94 668 OFFCURVE",
"-8 34 OFFCURVE",
"146 34 CURVE SMOOTH",
"217 34 OFFCURVE",
"294 157 OFFCURVE",
"372 311 CURVE SMOOTH",
"392 350 OFFCURVE",
"418 311 OFFCURVE",
"418 311 CURVE SMOOTH",
"351 117 OFFCURVE",
"258 -2 OFFCURVE",
"162 -8 CURVE SMOOTH",
"26 -17 OFFCURVE",
"10 131 OFFCURVE",
"10 248 CURVE SMOOTH",
"10 417 OFFCURVE",
"95 733 OFFCURVE",
"265 741 CURVE SMOOTH",
"390 746 OFFCURVE",
"415 601 OFFCURVE",
"373 476 CURVE SMOOTH",
"373 476 OFFCURVE",
"305 464 OFFCURVE",
"316 500 CURVE SMOOTH"
);
}
);
width = 368;
},
{
associatedMasterId = "2B556C7D-ACF4-4058-9F01-0A4D9389EAED";
layerId = "EA7D86C5-9249-49D9-9CA4-D718F585F224";
name = "Regular Aug 3 16, 12:17";
paths = (
{
closed = 1;
nodes = (
"353 624 OFFCURVE",
"316 703 OFFCURVE",
"269 694 CURVE SMOOTH",
"94 662 OFFCURVE",
"-3 43 OFFCURVE",
"151 43 CURVE SMOOTH",
"222 43 OFFCURVE",
"301 158 OFFCURVE",
"372 311 CURVE SMOOTH",
"395 360 OFFCURVE",
"426 311 OFFCURVE",
"426 311 CURVE SMOOTH",
"358 115 OFFCURVE",
"254 -5 OFFCURVE",
"162 -11 CURVE SMOOTH",
"26 -20 OFFCURVE",
"10 131 OFFCURVE",
"10 248 CURVE SMOOTH",
"10 417 OFFCURVE",
"95 733 OFFCURVE",
"265 741 CURVE SMOOTH",
"390 746 OFFCURVE",
"415 601 OFFCURVE",
"373 476 CURVE SMOOTH",
"373 476 OFFCURVE",
"297 437 OFFCURVE",
"316 500 CURVE SMOOTH"
);
}
);
width = 368;
},
{
layerId = "2B556C7D-ACF4-4058-9F01-0A4D9389EAED";
name = Regular;
paths = (
{
closed = 1;
nodes = (
"353 624 OFFCURVE",
"313 690 OFFCURVE",
"266 684 CURVE SMOOTH",
"135 668 OFFCURVE",
"47 294 OFFCURVE",
"88 127 CURVE SMOOTH",
"100 78 OFFCURVE",
"129 53 OFFCURVE",
"165 48 CURVE SMOOTH",
"244 38 OFFCURVE",
"351 139 OFFCURVE",
"436 309 CURVE SMOOTH",
"454 345 OFFCURVE",
"499 329 OFFCURVE",
"481 288 CURVE SMOOTH",
"389 81 OFFCURVE",
"287 -12 OFFCURVE",
"165 -12 CURVE SMOOTH",
"29 -12 OFFCURVE",
"8 120 OFFCURVE",
"8 237 CURVE SMOOTH",
"8 406 OFFCURVE",
"89 733 OFFCURVE",
"265 741 CURVE SMOOTH",
"390 747 OFFCURVE",
"413 602 OFFCURVE",
"373 476 CURVE SMOOTH",
"360 437 OFFCURVE",
"300 445 OFFCURVE",
"316 500 CURVE SMOOTH"
);
}
);
width = 436;
}
);
unicode = 0043;
},
{
color = 4;
glyphname = Cacute;
lastChange = "2016-08-05 12:10:56 +0200";
layers = (
{
associatedMasterId = "2B556C7D-ACF4-4058-9F01-0A4D9389EAED";
layerId = "44D58E60-2943-47E3-B748-E90DF50B3FB8";
name = "Regular Aug 5 16, 12:08";
paths = (
{
closed = 1;
nodes = (
"353 624 OFFCURVE",
"313 690 OFFCURVE",
"266 684 CURVE SMOOTH",
"135 668 OFFCURVE",
"47 294 OFFCURVE",
"88 127 CURVE SMOOTH",
"100 78 OFFCURVE",
"129 53 OFFCURVE",
"165 48 CURVE SMOOTH",
"244 38 OFFCURVE",
"351 139 OFFCURVE",
"436 309 CURVE SMOOTH",
"454 345 OFFCURVE",
"499 329 OFFCURVE",
"481 288 CURVE SMOOTH",
"389 81 OFFCURVE",
"287 -12 OFFCURVE",
"165 -12 CURVE SMOOTH",
"29 -12 OFFCURVE",
"8 120 OFFCURVE",
"8 237 CURVE SMOOTH",
"8 406 OFFCURVE",
"89 733 OFFCURVE",
"265 741 CURVE SMOOTH",
"390 747 OFFCURVE",
"413 602 OFFCURVE",
"373 476 CURVE SMOOTH",
"360 437 OFFCURVE",
"300 445 OFFCURVE",
"316 500 CURVE SMOOTH"
);
},
{
closed = 1;
nodes = (
"260 835 OFFCURVE",
"269 903 OFFCURVE",
"299 951 CURVE SMOOTH",
"325 994 OFFCURVE",
"376 966 OFFCURVE",
"356 929 CURVE SMOOTH",
"331 882 OFFCURVE",
"319 844 OFFCURVE",
"317 814 CURVE SMOOTH",
"313 775 OFFCURVE",
"260 771 OFFCURVE",
"260 816 CURVE SMOOTH"
);
}
);
width = 436;
},
{
associatedMasterId = "2B556C7D-ACF4-4058-9F01-0A4D9389EAED";
layerId = "EBBF8DC2-9ED8-4D6D-BD8C-1F97C8E3266F";
name = "Regular Aug 5 16, 12:10";
paths = (
{
closed = 1;
nodes = (
"352 624 OFFCURVE",
"311 688 OFFCURVE",
"264 682 CURVE SMOOTH",
"133 666 OFFCURVE",
"46 294 OFFCURVE",
"87 127 CURVE SMOOTH",
"99 78 OFFCURVE",
"129 53 OFFCURVE",
"165 48 CURVE SMOOTH",
"244 38 OFFCURVE",
"351 139 OFFCURVE",
"436 309 CURVE SMOOTH",
"454 345 OFFCURVE",
"499 329 OFFCURVE",
"481 288 CURVE SMOOTH",
"389 81 OFFCURVE",
"287 -12 OFFCURVE",
"165 -12 CURVE SMOOTH",
"29 -12 OFFCURVE",
"8 120 OFFCURVE",
"8 237 CURVE SMOOTH",
"8 406 OFFCURVE",
"89 733 OFFCURVE",
"265 741 CURVE SMOOTH",
"390 747 OFFCURVE",
"413 602 OFFCURVE",
"373 476 CURVE SMOOTH",
"360 437 OFFCURVE",
"299 445 OFFCURVE",
"315 500 CURVE SMOOTH"
);
},
{
closed = 1;
nodes = (
"291 926 OFFCURVE",
"277 861 OFFCURVE",
"268 824 CURVE SMOOTH",
"257 780 OFFCURVE",
"313 767 OFFCURVE",
"326 808 CURVE SMOOTH",
"343 863 OFFCURVE",
"356 912 OFFCURVE",
"365 946 CURVE SMOOTH",
"377 990 OFFCURVE",
"316 1009 OFFCURVE",
"302 962 CURVE SMOOTH"
);
}
);
width = 436;
},
{
layerId = "2B556C7D-ACF4-4058-9F01-0A4D9389EAED";
name = Regular;
paths = (
{
closed = 1;
nodes = (
"338 568 OFFCURVE",
"312 633 OFFCURVE",
"261 627 CURVE SMOOTH",
"130 611 OFFCURVE",
"46 294 OFFCURVE",
"87 127 CURVE SMOOTH",
"99 78 OFFCURVE",
"129 53 OFFCURVE",
"165 48 CURVE SMOOTH",
"244 38 OFFCURVE",
"351 139 OFFCURVE",
"436 309 CURVE SMOOTH",
"454 345 OFFCURVE",
"499 329 OFFCURVE",
"481 288 CURVE SMOOTH",
"389 81 OFFCURVE",
"287 -12 OFFCURVE",
"165 -12 CURVE SMOOTH",
"29 -12 OFFCURVE",
"8 120 OFFCURVE",
"8 237 CURVE SMOOTH",
"8 406 OFFCURVE",
"89 680 OFFCURVE",
"265 688 CURVE SMOOTH",
"373 693 OFFCURVE",
"412 557 OFFCURVE",
"374 432 CURVE SMOOTH",
"362 394 OFFCURVE",
"305 390 OFFCURVE",
"315 445 CURVE SMOOTH"
);
},
{
closed = 1;
nodes = (
"276 885 OFFCURVE",
"262 820 OFFCURVE",
"253 783 CURVE SMOOTH",
"242 739 OFFCURVE",
"298 726 OFFCURVE",
"311 767 CURVE SMOOTH",
"328 822 OFFCURVE",
"341 871 OFFCURVE",
"350 905 CURVE SMOOTH",
"362 949 OFFCURVE",
"301 968 OFFCURVE",
"287 921 CURVE SMOOTH"
);
}
);
width = 436;
}
);
leftMetricsKey = C;
rightMetricsKey = C;
unicode = 0106;
},
{
color = 4;
glyphname = D;
lastChange = "2016-08-03 13:29:48 +0200";
layers = (
{
associatedMasterId = "2B556C7D-ACF4-4058-9F01-0A4D9389EAED";
layerId = "27CB3CF5-0F86-42B2-8FB8-CA14F5CF4C2F";
name = "Regular Jul 31 16, 15:41";
paths = (
{
closed = 1;
nodes = (
"340 641 OFFCURVE",
"265 136 OFFCURVE",
"226 -6 CURVE SMOOTH",
"203 -90 OFFCURVE",
"97 107 OFFCURVE",
"140 131 CURVE SMOOTH",
"190 159 OFFCURVE",
"337 -10 OFFCURVE",
"545 -74 CURVE SMOOTH",
"618 -96 OFFCURVE",
"722 -91 OFFCURVE",
"780 -38 CURVE SMOOTH",
"977 141 OFFCURVE",
"610 681 OFFCURVE",
"328 681 CURVE SMOOTH",
"247 681 OFFCURVE",
"202 638 OFFCURVE",
"208 543 CURVE SMOOTH",
"213 446 OFFCURVE",
"290 287 OFFCURVE",
"496 216 CURVE SMOOTH",
"628 171 OFFCURVE",
"771 195 OFFCURVE",
"895 260 CURVE SMOOTH",
"913 269 OFFCURVE",
"917 276 OFFCURVE",
"917 288 CURVE SMOOTH",
"917 288 OFFCURVE",
"911 315 OFFCURVE",
"893 308 CURVE SMOOTH",
"756 253 OFFCURVE",
"644 221 OFFCURVE",
"500 275 CURVE SMOOTH",
"304 349 OFFCURVE",
"226 565 OFFCURVE",
"285 611 CURVE SMOOTH",
"441 733 OFFCURVE",
"913 168 OFFCURVE",
"742 4 CURVE SMOOTH",
"701 -37 OFFCURVE",
"624 -39 OFFCURVE",
"587 -32 CURVE SMOOTH",
"430 0 OFFCURVE",
"272 147 OFFCURVE",
"186 177 CURVE SMOOTH",
"137 194 OFFCURVE",
"91 184 OFFCURVE",
"79 138 CURVE SMOOTH",
"56 62 OFFCURVE",
"131 -54 OFFCURVE",
"190 -75 CURVE SMOOTH",
"214 -84 OFFCURVE",
"251 -71 OFFCURVE",
"266 -32 CURVE SMOOTH",
"298 52 OFFCURVE",
"391 585 OFFCURVE",
"420 760 CURVE SMOOTH",
"427 805 OFFCURVE",
"379 816 OFFCURVE",
"370 774 CURVE SMOOTH"
);
}
);
width = 876;
},
{
associatedMasterId = "2B556C7D-ACF4-4058-9F01-0A4D9389EAED";
layerId = "A09F5FA2-14A3-4DC1-97D6-51A5D0A4A61B";
name = "Regular Jul 31 16, 15:47";
paths = (
{
closed = 1;
nodes = (
"340 641 OFFCURVE",
"265 136 OFFCURVE",
"226 -6 CURVE SMOOTH",
"207 -76 OFFCURVE",
"117 52 OFFCURVE",
"139 144 CURVE SMOOTH",
"169 268 OFFCURVE",
"419 38 OFFCURVE",
"606 -37 CURVE SMOOTH",
"715 -81 OFFCURVE",
"848 -76 OFFCURVE",
"822 100 CURVE SMOOTH",
"760 521 OFFCURVE",
"361 746 OFFCURVE",
"235 643 CURVE SMOOTH",
"128 553 OFFCURVE",
"203 310 OFFCURVE",
"483 231 CURVE SMOOTH",
"625 191 OFFCURVE",
"764 217 OFFCURVE",
"895 260 CURVE SMOOTH",
"913 266 OFFCURVE",
"917 276 OFFCURVE",
"917 288 CURVE SMOOTH",
"917 288 OFFCURVE",
"911 314 OFFCURVE",
"893 308 CURVE SMOOTH",
"756 265 OFFCURVE",
"614 245 OFFCURVE",
"500 277 CURVE SMOOTH",
"326 326 OFFCURVE",
"190 496 OFFCURVE",
"264 591 CURVE SMOOTH",
"351 705 OFFCURVE",
"709 464 OFFCURVE",
"768 104 CURVE SMOOTH",
"791 -36 OFFCURVE",
"715 -22 OFFCURVE",
"648 5 CURVE SMOOTH",
"458 81 OFFCURVE",
"304 222 OFFCURVE",
"174 222 CURVE SMOOTH",
"142 222 OFFCURVE",
"99 194 OFFCURVE",
"93 150 CURVE SMOOTH",
"81 60 OFFCURVE",
"128 -47 OFFCURVE",
"190 -69 CURVE SMOOTH",
"214 -78 OFFCURVE",
"251 -71 OFFCURVE",
"266 -32 CURVE SMOOTH",
"298 52 OFFCURVE",
"391 585 OFFCURVE",
"420 760 CURVE SMOOTH",
"427 805 OFFCURVE",
"379 816 OFFCURVE",
"370 774 CURVE SMOOTH"
);
}
);
width = 876;
},
{
associatedMasterId = "2B556C7D-ACF4-4058-9F01-0A4D9389EAED";
layerId = "9A524803-A9A6-4E80-BEFD-BA56EC155522";
name = "Regular Aug 3 16, 13:28";
paths = (
{
closed = 1;
nodes = (
"340 641 OFFCURVE",
"271 173 OFFCURVE",
"232 31 CURVE SMOOTH",
"223 -3 OFFCURVE",
"185 3 OFFCURVE",
"163 24 CURVE SMOOTH",
"130 55 OFFCURVE",
"115 117 OFFCURVE",
"140 131 CURVE SMOOTH",
"187 157 OFFCURVE",
"339 -11 OFFCURVE",
"545 -74 CURVE SMOOTH",
"618 -96 OFFCURVE",
"722 -91 OFFCURVE",
"780 -38 CURVE SMOOTH",
"977 141 OFFCURVE",
"625 671 OFFCURVE",
"343 681 CURVE SMOOTH",
"255 684 OFFCURVE",
"197 625 OFFCURVE",
"203 542 CURVE SMOOTH",
"208 444 OFFCURVE",
"297 285 OFFCURVE",
"496 216 CURVE SMOOTH",
"628 171 OFFCURVE",
"771 195 OFFCURVE",
"895 260 CURVE SMOOTH",
"913 269 OFFCURVE",
"917 276 OFFCURVE",
"917 288 CURVE SMOOTH",
"917 288 OFFCURVE",
"911 315 OFFCURVE",
"893 308 CURVE SMOOTH",
"756 253 OFFCURVE",
"636 221 OFFCURVE",
"500 273 CURVE SMOOTH",
"295 351 OFFCURVE",
"226 565 OFFCURVE",
"285 611 CURVE SMOOTH",
"451 741 OFFCURVE",
"919 173 OFFCURVE",
"742 4 CURVE SMOOTH",
"701 -37 OFFCURVE",
"624 -39 OFFCURVE",
"587 -32 CURVE SMOOTH",
"430 0 OFFCURVE",
"272 147 OFFCURVE",
"186 177 CURVE SMOOTH",
"137 194 OFFCURVE",
"93 184 OFFCURVE",
"79 138 CURVE SMOOTH",
"56 62 OFFCURVE",
"109 -17 OFFCURVE",
"168 -38 CURVE SMOOTH",
"192 -47 OFFCURVE",
"255 -50 OFFCURVE",
"276 5 CURVE SMOOTH",
"308 89 OFFCURVE",
"391 585 OFFCURVE",
"420 760 CURVE SMOOTH",
"427 805 OFFCURVE",
"379 816 OFFCURVE",
"370 774 CURVE SMOOTH"
);
}
);
width = 876;
},
{
layerId = "2B556C7D-ACF4-4058-9F01-0A4D9389EAED";
name = Regular;
paths = (
{
closed = 1;
nodes = (
"318 559 OFFCURVE",
"241 194 OFFCURVE",
"199 67 CURVE SMOOTH",
"187 30 OFFCURVE",
"157 29 OFFCURVE",
"132 53 CURVE SMOOTH",
"99 84 OFFCURVE",
"83 141 OFFCURVE",
"108 155 CURVE SMOOTH",
"155 181 OFFCURVE",
"305 15 OFFCURVE",
"511 -48 CURVE SMOOTH",
"584 -70 OFFCURVE",
"685 -65 OFFCURVE",
"743 -12 CURVE SMOOTH",
"943 170 OFFCURVE",
"589 702 OFFCURVE",
"311 698 CURVE SMOOTH",
"223 697 OFFCURVE",
"164 632 OFFCURVE",
"170 543 CURVE SMOOTH",
"177 445 OFFCURVE",
"254 276 OFFCURVE",
"465 228 CURVE SMOOTH",
"597 198 OFFCURVE",
"803 218 OFFCURVE",
"927 289 CURVE SMOOTH",
"964 310 OFFCURVE",
"945 356 OFFCURVE",
"908 339 CURVE SMOOTH",
"724 255 OFFCURVE",
"448 234 OFFCURVE",
"297 391 CURVE SMOOTH",
"218 473 OFFCURVE",
"218 592 OFFCURVE",
"257 622 CURVE SMOOTH",
"426 755 OFFCURVE",
"855 214 OFFCURVE",
"703 40 CURVE SMOOTH",
"665 -4 OFFCURVE",
"590 3 OFFCURVE",
"553 10 CURVE SMOOTH",
"396 42 OFFCURVE",
"246 182 OFFCURVE",
"152 212 CURVE SMOOTH",
"103 228 OFFCURVE",
"54 212 OFFCURVE",
"43 165 CURVE SMOOTH",
"25 89 OFFCURVE",
"74 4 OFFCURVE",
"133 -17 CURVE SMOOTH",
"157 -26 OFFCURVE",
"221 -29 OFFCURVE",
"247 31 CURVE SMOOTH",
"286 122 OFFCURVE",
"372 533 OFFCURVE",
"416 727 CURVE SMOOTH",
"426 772 OFFCURVE",
"367 783 OFFCURVE",
"358 741 CURVE SMOOTH"
);
}
);
width = 907;
}
);
unicode = 0044;
},
{
color = 4;
glyphname = E;
lastChange = "2016-08-03 13:42:19 +0200";
layers = (
{
associatedMasterId = "2B556C7D-ACF4-4058-9F01-0A4D9389EAED";
layerId = "9A7D8182-8E65-4099-99F7-AB9EF51F415D";
name = "Regular Jul 31 16, 15:52 Jul 31 16, 15:55";
paths = (
{
closed = 1;
nodes = (
"405 566 OFFCURVE",
"428 719 OFFCURVE",
"379 731 CURVE SMOOTH",
"323 745 OFFCURVE",
"222 606 OFFCURVE",
"199 435 CURVE SMOOTH",
"174 253 OFFCURVE",
"352 246 OFFCURVE",
"359 275 CURVE SMOOTH",
"363 292 OFFCURVE",
"277 278 OFFCURVE",
"234 245 CURVE SMOOTH",
"124 161 OFFCURVE",
"142 -31 OFFCURVE",
"262 -12 CURVE SMOOTH",
"315 -4 OFFCURVE",
"477 83 OFFCURVE",
"597 303 CURVE SMOOTH",
"628 360 OFFCURVE",
"672 356 OFFCURVE",
"640 283 CURVE SMOOTH",
"567 118 OFFCURVE",
"445 0 OFFCURVE",
"330 -51 CURVE SMOOTH",
"235 -93 OFFCURVE",
"147 -73 OFFCURVE",
"113 14 CURVE SMOOTH",
"89 75 OFFCURVE",
"97 176 OFFCURVE",
"162 249 CURVE SMOOTH",
"259 358 OFFCURVE",
"422 352 OFFCURVE",
"406 281 CURVE SMOOTH",
"389 207 OFFCURVE",
"288 212 OFFCURVE",
"237 233 CURVE SMOOTH",
"165 263 OFFCURVE",
"108 367 OFFCURVE",
"163 544 CURVE SMOOTH",
"218 721 OFFCURVE",
"348 830 OFFCURVE",
"428 765 CURVE SMOOTH",
"484 720 OFFCURVE",
"461 554 OFFCURVE",
"443 500 CURVE SMOOTH",
"425 446 OFFCURVE",
"376 471 OFFCURVE",
"378 478 CURVE SMOOTH"
);
}
);
width = 600;
},
{
associatedMasterId = "2B556C7D-ACF4-4058-9F01-0A4D9389EAED";
layerId = "C403BBC6-2BAF-46C2-A845-DC9B4BB1C171";
name = "Regular Aug 3 16, 13:40";
paths = (
{
closed = 1;
nodes = (
"412 556 OFFCURVE",
"416 717 OFFCURVE",
"376 731 CURVE SMOOTH",
"309 754 OFFCURVE",
"206 576 OFFCURVE",
"199 434 CURVE SMOOTH",
"189 239 OFFCURVE",
"352 246 OFFCURVE",
"359 275 CURVE SMOOTH",
"363 292 OFFCURVE",
"275 287 OFFCURVE",
"235 251 CURVE SMOOTH",
"190 210 OFFCURVE",
"169 161 OFFCURVE",
"168 121 CURVE SMOOTH",
"166 67 OFFCURVE",
"192 27 OFFCURVE",
"239 27 CURVE SMOOTH",
"365 27 OFFCURVE",
"496 164 OFFCURVE",
"612 378 CURVE SMOOTH",
"643 435 OFFCURVE",
"689 430 OFFCURVE",
"655 358 CURVE SMOOTH",
"552 138 OFFCURVE",
"399 -26 OFFCURVE",
"246 -26 CURVE SMOOTH",
"149 -26 OFFCURVE",
"111 43 OFFCURVE",
"111 104 CURVE SMOOTH",
"111 224 OFFCURVE",
"214 333 OFFCURVE",
"319 333 CURVE SMOOTH",
"375 333 OFFCURVE",
"411 313 OFFCURVE",
"411 279 CURVE SMOOTH",
"411 241 OFFCURVE",
"365 220 OFFCURVE",
"312 220 CURVE SMOOTH",
"241 220 OFFCURVE",
"141 271 OFFCURVE",
"141 413 CURVE SMOOTH",
"141 563 OFFCURVE",
"233 800 OFFCURVE",
"379 784 CURVE SMOOTH",
"479 773 OFFCURVE",
"478 604 OFFCURVE",
"443 500 CURVE SMOOTH",
"425 446 OFFCURVE",
"375 471 OFFCURVE",
"378 478 CURVE SMOOTH"
);
}
);
width = 600;
},
{
layerId = "2B556C7D-ACF4-4058-9F01-0A4D9389EAED";
name = Regular;
paths = (
{
closed = 1;
nodes = (
"304 571 OFFCURVE",
"304 710 OFFCURVE",
"264 724 CURVE SMOOTH",
"197 747 OFFCURVE",
"103 547 OFFCURVE",
"97 417 CURVE SMOOTH",
"88 212 OFFCURVE",
"241 246 OFFCURVE",
"248 275 CURVE SMOOTH",
"252 292 OFFCURVE",
"178 292 OFFCURVE",
"131 251 CURVE SMOOTH",
"46 178 OFFCURVE",
"38 31 OFFCURVE",
"135 31 CURVE SMOOTH",
"261 31 OFFCURVE",
"407 182 OFFCURVE",
"518 378 CURVE SMOOTH",
"540 417 OFFCURVE",
"589 403 OFFCURVE",
"565 354 CURVE SMOOTH",
"451 124 OFFCURVE",
"292 -27 OFFCURVE",
"139 -27 CURVE SMOOTH",
"42 -27 OFFCURVE",
"0 43 OFFCURVE",
"0 104 CURVE SMOOTH",
"0 224 OFFCURVE",
"98 334 OFFCURVE",
"212 334 CURVE SMOOTH",
"268 334 OFFCURVE",
"305 313 OFFCURVE",
"305 279 CURVE SMOOTH",
"305 241 OFFCURVE",
"258 206 OFFCURVE",
"205 206 CURVE SMOOTH",
"134 206 OFFCURVE",
"32 246 OFFCURVE",
"32 400 CURVE SMOOTH",
"32 558 OFFCURVE",
"126 802 OFFCURVE",
"272 786 CURVE SMOOTH",
"372 775 OFFCURVE",
"378 586 OFFCURVE",
"343 482 CURVE SMOOTH",
"324 424 OFFCURVE",
"260 447 OFFCURVE",
"271 478 CURVE SMOOTH"
);
}
);
width = 493;
}
);
unicode = 0045;
},
{
color = 4;
glyphname = Eogonek;
lastChange = "2016-08-19 13:19:31 +0200";
layers = (
{
associatedMasterId = "2B556C7D-ACF4-4058-9F01-0A4D9389EAED";
layerId = "8E423109-677A-482C-8526-4C9388E83B74";
name = "Regular Aug 4 16, 18:54 Aug 4 16, 18:55";
paths = (
{
closed = 1;
nodes = (
"126 802 OFFCURVE",
"32 558 OFFCURVE",
"32 400 CURVE SMOOTH",
"32 246 OFFCURVE",
"134 206 OFFCURVE",
"205 206 CURVE SMOOTH",
"258 206 OFFCURVE",
"305 241 OFFCURVE",
"305 279 CURVE SMOOTH",
"305 313 OFFCURVE",
"268 334 OFFCURVE",
"212 334 CURVE SMOOTH",
"98 334 OFFCURVE",
"0 224 OFFCURVE",
"0 104 CURVE SMOOTH",
"0 43 OFFCURVE",
"42 -27 OFFCURVE",
"139 -27 CURVE SMOOTH",
"230 -27 OFFCURVE",
"323 26 OFFCURVE",
"407 118 CURVE SMOOTH",
"448 162 OFFCURVE",
"400 201 OFFCURVE",
"360 159 CURVE SMOOTH",
"285 80 OFFCURVE",
"207 31 OFFCURVE",
"135 31 CURVE SMOOTH",
"38 31 OFFCURVE",
"46 178 OFFCURVE",
"131 251 CURVE SMOOTH",
"178 292 OFFCURVE",
"252 292 OFFCURVE",
"248 275 CURVE SMOOTH",
"241 246 OFFCURVE",
"88 212 OFFCURVE",
"97 417 CURVE SMOOTH",
"103 547 OFFCURVE",
"197 747 OFFCURVE",
"264 724 CURVE SMOOTH",
"304 710 OFFCURVE",
"304 571 OFFCURVE",
"271 478 CURVE SMOOTH",
"260 447 OFFCURVE",
"324 424 OFFCURVE",
"343 482 CURVE SMOOTH",
"378 586 OFFCURVE",
"372 775 OFFCURVE",
"272 786 CURVE SMOOTH"
);
},
{
closed = 1;
nodes = (
"276 47 OFFCURVE",
"220 -104 OFFCURVE",
"307 -171 CURVE SMOOTH",
"342 -198 OFFCURVE",
"381 -156 OFFCURVE",
"344 -125 CURVE SMOOTH",
"281 -72 OFFCURVE",
"357 69 OFFCURVE",
"397 108 CURVE SMOOTH",
"428 139 OFFCURVE",
"372 153 OFFCURVE",
"344 122 CURVE SMOOTH"
);
}
);
width = 493;
},
{
associatedMasterId = "2B556C7D-ACF4-4058-9F01-0A4D9389EAED";
layerId = "AE85CA3F-65A7-41A2-A049-E0A7BB10CDC6";
name = "Regular Aug 4 16, 18:58";
paths = (
{
closed = 1;
nodes = (
"126 802 OFFCURVE",
"32 558 OFFCURVE",
"32 400 CURVE SMOOTH",
"32 246 OFFCURVE",
"134 206 OFFCURVE",
"205 206 CURVE SMOOTH",
"258 206 OFFCURVE",
"305 241 OFFCURVE",
"305 279 CURVE SMOOTH",
"305 313 OFFCURVE",
"268 334 OFFCURVE",
"212 334 CURVE SMOOTH",
"98 334 OFFCURVE",
"0 224 OFFCURVE",
"0 104 CURVE SMOOTH",
"0 43 OFFCURVE",
"42 -27 OFFCURVE",
"139 -27 CURVE SMOOTH",
"292 -27 OFFCURVE",
"451 124 OFFCURVE",
"565 354 CURVE SMOOTH",
"589 403 OFFCURVE",
"540 417 OFFCURVE",
"518 378 CURVE SMOOTH",
"407 182 OFFCURVE",
"261 31 OFFCURVE",
"135 31 CURVE SMOOTH",
"38 31 OFFCURVE",
"46 178 OFFCURVE",
"131 251 CURVE SMOOTH",
"178 292 OFFCURVE",
"252 292 OFFCURVE",
"248 275 CURVE SMOOTH",
"241 246 OFFCURVE",
"88 212 OFFCURVE",
"97 417 CURVE SMOOTH",
"103 547 OFFCURVE",
"197 747 OFFCURVE",
"264 724 CURVE SMOOTH",
"304 710 OFFCURVE",
"304 571 OFFCURVE",
"271 478 CURVE SMOOTH",
"260 447 OFFCURVE",
"324 424 OFFCURVE",
"343 482 CURVE SMOOTH",
"378 586 OFFCURVE",
"372 775 OFFCURVE",
"272 786 CURVE SMOOTH"
);
},
{
closed = 1;
nodes = (
"310 83 OFFCURVE",
"250 -17 OFFCURVE",
"261 -97 CURVE SMOOTH",
"267 -141 OFFCURVE",
"285 -169 OFFCURVE",
"300 -182 CURVE SMOOTH",
"332 -210 OFFCURVE",
"383 -189 OFFCURVE",
"351 -154 CURVE SMOOTH",
"285 -78 OFFCURVE",
"348 47 OFFCURVE",
"388 97 CURVE SMOOTH",
"416 132 OFFCURVE",
"363 142 OFFCURVE",
"335 111 CURVE SMOOTH"
);
}
);
width = 493;
},
{
associatedMasterId = "2B556C7D-ACF4-4058-9F01-0A4D9389EAED";
layerId = "2289915E-1E71-4E95-B6E4-754DAEFF96DC";
name = "Regular Aug 4 16, 19:01";
paths = (
{
closed = 1;
nodes = (
"126 802 OFFCURVE",
"32 558 OFFCURVE",
"32 400 CURVE SMOOTH",
"32 246 OFFCURVE",
"134 206 OFFCURVE",
"205 206 CURVE SMOOTH",
"258 206 OFFCURVE",
"305 241 OFFCURVE",
"305 279 CURVE SMOOTH",
"305 313 OFFCURVE",
"268 334 OFFCURVE",
"212 334 CURVE SMOOTH",
"98 334 OFFCURVE",
"0 224 OFFCURVE",
"0 104 CURVE SMOOTH",
"0 43 OFFCURVE",
"42 -27 OFFCURVE",
"139 -27 CURVE SMOOTH",
"230 -27 OFFCURVE",
"323 26 OFFCURVE",
"407 118 CURVE SMOOTH",
"448 162 OFFCURVE",
"400 201 OFFCURVE",
"360 159 CURVE SMOOTH",
"285 80 OFFCURVE",
"207 31 OFFCURVE",
"135 31 CURVE SMOOTH",
"38 31 OFFCURVE",
"46 178 OFFCURVE",
"131 251 CURVE SMOOTH",
"178 292 OFFCURVE",
"252 292 OFFCURVE",
"248 275 CURVE SMOOTH",
"241 246 OFFCURVE",
"88 212 OFFCURVE",
"97 417 CURVE SMOOTH",
"103 547 OFFCURVE",
"197 747 OFFCURVE",
"264 724 CURVE SMOOTH",
"304 710 OFFCURVE",
"304 571 OFFCURVE",
"271 478 CURVE SMOOTH",
"260 447 OFFCURVE",
"324 424 OFFCURVE",
"343 482 CURVE SMOOTH",
"378 586 OFFCURVE",
"372 775 OFFCURVE",
"272 786 CURVE SMOOTH"
);
},
{
closed = 1;
nodes = (
"319 94 OFFCURVE",
"261 12 OFFCURVE",
"272 -90 CURVE SMOOTH",
"277 -134 OFFCURVE",
"294 -158 OFFCURVE",
"309 -171 CURVE SMOOTH",
"338 -196 OFFCURVE",
"384 -166 OFFCURVE",
"356 -134 CURVE SMOOTH",
"291 -59 OFFCURVE",
"360 62 OFFCURVE",
"397 108 CURVE SMOOTH",
"425 143 OFFCURVE",
"372 153 OFFCURVE",
"344 122 CURVE SMOOTH"
);
}
);
width = 430;
},
{
associatedMasterId = "2B556C7D-ACF4-4058-9F01-0A4D9389EAED";
layerId = "45B62CF2-C0C2-4E10-91CD-402ECFE079A7";
name = "Regular Aug 5 16, 12:01";
paths = (
{
closed = 1;
nodes = (
"126 802 OFFCURVE",
"32 558 OFFCURVE",
"32 400 CURVE SMOOTH",
"32 246 OFFCURVE",
"134 206 OFFCURVE",
"205 206 CURVE SMOOTH",
"258 206 OFFCURVE",
"305 241 OFFCURVE",
"305 279 CURVE SMOOTH",
"305 313 OFFCURVE",
"268 334 OFFCURVE",
"212 334 CURVE SMOOTH",
"98 334 OFFCURVE",
"0 224 OFFCURVE",
"0 104 CURVE SMOOTH",
"0 43 OFFCURVE",
"42 -27 OFFCURVE",
"139 -27 CURVE SMOOTH",
"230 -27 OFFCURVE",
"323 26 OFFCURVE",
"407 118 CURVE SMOOTH",
"448 162 OFFCURVE",
"400 201 OFFCURVE",
"360 159 CURVE SMOOTH",
"285 80 OFFCURVE",
"207 31 OFFCURVE",
"135 31 CURVE SMOOTH",
"38 31 OFFCURVE",
"46 178 OFFCURVE",
"131 251 CURVE SMOOTH",
"178 292 OFFCURVE",
"252 292 OFFCURVE",
"248 275 CURVE SMOOTH",
"241 246 OFFCURVE",
"88 212 OFFCURVE",
"97 417 CURVE SMOOTH",
"103 547 OFFCURVE",
"197 747 OFFCURVE",
"264 724 CURVE SMOOTH",
"304 710 OFFCURVE",
"304 571 OFFCURVE",
"271 478 CURVE SMOOTH",
"260 447 OFFCURVE",
"324 424 OFFCURVE",
"343 482 CURVE SMOOTH",
"378 586 OFFCURVE",
"372 775 OFFCURVE",
"272 786 CURVE SMOOTH"
);
},
{
closed = 1;
nodes = (
"266 -53 OFFCURVE",
"252 -118 OFFCURVE",
"242 -158 CURVE SMOOTH",
"231 -202 OFFCURVE",
"287 -215 OFFCURVE",
"300 -174 CURVE SMOOTH",
"316 -123 OFFCURVE",
"330 -72 OFFCURVE",
"339 -36 CURVE SMOOTH",
"351 8 OFFCURVE",
"290 27 OFFCURVE",
"276 -20 CURVE SMOOTH"
);
}
);
width = 430;
},
{
associatedMasterId = "2B556C7D-ACF4-4058-9F01-0A4D9389EAED";
layerId = "B57045B0-6659-4440-9FA0-7A4508726F64";
name = "Regular Aug 5 16, 12:06";
paths = (
{
closed = 1;
nodes = (
"126 802 OFFCURVE",
"32 558 OFFCURVE",
"32 400 CURVE SMOOTH",
"32 246 OFFCURVE",
"134 206 OFFCURVE",
"205 206 CURVE SMOOTH",
"258 206 OFFCURVE",
"305 241 OFFCURVE",
"305 279 CURVE SMOOTH",
"305 313 OFFCURVE",
"268 334 OFFCURVE",
"212 334 CURVE SMOOTH",
"98 334 OFFCURVE",
"0 224 OFFCURVE",
"0 104 CURVE SMOOTH",
"0 43 OFFCURVE",
"42 -27 OFFCURVE",
"139 -27 CURVE SMOOTH",
"230 -27 OFFCURVE",
"323 26 OFFCURVE",
"407 118 CURVE SMOOTH",
"448 162 OFFCURVE",
"400 201 OFFCURVE",
"360 159 CURVE SMOOTH",
"285 80 OFFCURVE",
"207 31 OFFCURVE",
"135 31 CURVE SMOOTH",
"38 31 OFFCURVE",
"46 178 OFFCURVE",
"131 251 CURVE SMOOTH",
"178 292 OFFCURVE",
"252 292 OFFCURVE",
"248 275 CURVE SMOOTH",
"241 246 OFFCURVE",
"88 212 OFFCURVE",
"97 417 CURVE SMOOTH",
"103 547 OFFCURVE",
"197 747 OFFCURVE",
"264 724 CURVE SMOOTH",
"304 710 OFFCURVE",
"304 571 OFFCURVE",
"271 478 CURVE SMOOTH",
"260 447 OFFCURVE",
"324 424 OFFCURVE",
"343 482 CURVE SMOOTH",
"378 586 OFFCURVE",
"372 775 OFFCURVE",
"272 786 CURVE SMOOTH"
);
},
{
closed = 1;
nodes = (
"319 94 OFFCURVE",
"262 8 OFFCURVE",
"273 -94 CURVE SMOOTH",
"278 -138 OFFCURVE",
"295 -162 OFFCURVE",
"310 -175 CURVE SMOOTH",
"341 -202 OFFCURVE",
"386 -171 OFFCURVE",
"356 -137 CURVE SMOOTH",
"293 -64 OFFCURVE",
"359 68 OFFCURVE",
"397 108 CURVE SMOOTH",
"428 140 OFFCURVE",
"372 153 OFFCURVE",
"344 122 CURVE SMOOTH"
);
}
);
width = 430;
},
{
associatedMasterId = "2B556C7D-ACF4-4058-9F01-0A4D9389EAED";
layerId = "51DBD53A-BEDF-4685-A0C1-2F42D675692F";
name = "Regular Aug 19 16, 13:19";
paths = (
{
closed = 1;
nodes = (
"126 802 OFFCURVE",
"32 558 OFFCURVE",
"32 400 CURVE SMOOTH",
"32 246 OFFCURVE",
"134 206 OFFCURVE",
"205 206 CURVE SMOOTH",
"258 206 OFFCURVE",
"305 241 OFFCURVE",
"305 279 CURVE SMOOTH",
"305 313 OFFCURVE",
"271 337 OFFCURVE",
"215 337 CURVE SMOOTH",
"101 337 OFFCURVE",
"0 224 OFFCURVE",
"0 104 CURVE SMOOTH",
"0 43 OFFCURVE",
"42 -27 OFFCURVE",
"139 -27 CURVE SMOOTH",
"230 -27 OFFCURVE",
"323 26 OFFCURVE",
"407 118 CURVE SMOOTH",
"448 162 OFFCURVE",
"400 201 OFFCURVE",
"360 159 CURVE SMOOTH",
"285 80 OFFCURVE",
"207 31 OFFCURVE",
"135 31 CURVE SMOOTH",
"38 31 OFFCURVE",
"46 178 OFFCURVE",
"131 251 CURVE SMOOTH",
"178 292 OFFCURVE",
"252 292 OFFCURVE",
"248 275 CURVE SMOOTH",
"241 246 OFFCURVE",
"88 212 OFFCURVE",
"97 417 CURVE SMOOTH",
"103 547 OFFCURVE",
"197 747 OFFCURVE",
"264 724 CURVE SMOOTH",
"304 710 OFFCURVE",
"304 571 OFFCURVE",
"271 478 CURVE SMOOTH",
"260 447 OFFCURVE",
"324 424 OFFCURVE",
"343 482 CURVE SMOOTH",
"378 586 OFFCURVE",
"372 775 OFFCURVE",
"272 786 CURVE SMOOTH"
);
},
{
closed = 1;
nodes = (
"261 -22 OFFCURVE",
"234 -140 OFFCURVE",
"224 -180 CURVE SMOOTH",
"213 -224 OFFCURVE",
"270 -237 OFFCURVE",
"283 -196 CURVE SMOOTH",
"299 -145 OFFCURVE",
"325 -41 OFFCURVE",
"334 -5 CURVE SMOOTH",
"346 39 OFFCURVE",
"285 58 OFFCURVE",
"271 11 CURVE SMOOTH"
);
},
{
closed = 1;
nodes = (
"200 30 OFFCURVE",
"163 -80 OFFCURVE",
"205 -149 CURVE SMOOTH",
"232 -193 OFFCURVE",
"284 -166 OFFCURVE",
"261 -129 CURVE SMOOTH",
"225 -72 OFFCURVE",
"254 -2 OFFCURVE",
"284 16 CURVE SMOOTH",
"319 37 OFFCURVE",
"284 74 OFFCURVE",
"246 54 CURVE SMOOTH"
);
}
);
width = 430;
},
{
layerId = "2B556C7D-ACF4-4058-9F01-0A4D9389EAED";
name = Regular;
paths = (
{
closed = 1;
nodes = (
"126 802 OFFCURVE",
"32 558 OFFCURVE",
"32 400 CURVE SMOOTH",
"32 246 OFFCURVE",
"134 206 OFFCURVE",
"205 206 CURVE SMOOTH",
"258 206 OFFCURVE",
"305 241 OFFCURVE",
"305 279 CURVE SMOOTH",
"305 313 OFFCURVE",
"271 337 OFFCURVE",
"215 337 CURVE SMOOTH",
"101 337 OFFCURVE",
"0 224 OFFCURVE",
"0 104 CURVE SMOOTH",
"0 43 OFFCURVE",
"42 -27 OFFCURVE",
"139 -27 CURVE SMOOTH",
"230 -27 OFFCURVE",
"323 26 OFFCURVE",
"407 118 CURVE SMOOTH",
"448 162 OFFCURVE",
"400 201 OFFCURVE",
"360 159 CURVE SMOOTH",
"285 80 OFFCURVE",
"207 31 OFFCURVE",
"135 31 CURVE SMOOTH",
"38 31 OFFCURVE",
"46 178 OFFCURVE",
"131 251 CURVE SMOOTH",
"178 292 OFFCURVE",
"252 292 OFFCURVE",
"248 275 CURVE SMOOTH",
"241 246 OFFCURVE",
"88 212 OFFCURVE",
"97 417 CURVE SMOOTH",
"103 547 OFFCURVE",
"197 747 OFFCURVE",
"264 724 CURVE SMOOTH",
"304 710 OFFCURVE",
"304 571 OFFCURVE",
"271 478 CURVE SMOOTH",
"260 447 OFFCURVE",
"324 424 OFFCURVE",
"343 482 CURVE SMOOTH",
"378 586 OFFCURVE",
"372 775 OFFCURVE",
"272 786 CURVE SMOOTH"
);
},
{
closed = 1;
nodes = (
"202 30 OFFCURVE",
"165 -80 OFFCURVE",
"207 -149 CURVE SMOOTH",
"234 -193 OFFCURVE",
"286 -166 OFFCURVE",
"263 -129 CURVE SMOOTH",
"227 -72 OFFCURVE",
"256 -2 OFFCURVE",
"286 16 CURVE SMOOTH",
"321 37 OFFCURVE",
"286 74 OFFCURVE",
"248 54 CURVE SMOOTH"
);
}
);
width = 430;
}
);
leftMetricsKey = E;
rightMetricsKey = E;
unicode = 0118;
},
{
color = 4;
glyphname = F;
lastChange = "2016-08-19 13:29:19 +0200";
layers = (
{
associatedMasterId = "2B556C7D-ACF4-4058-9F01-0A4D9389EAED";
layerId = "5611DF07-D0ED-438B-B5AC-A757926FCF16";
name = "Regular Aug 3 16, 13:58";
paths = (
{
closed = 1;
nodes = (
"880 635 OFFCURVE",
"886 700 OFFCURVE",
"815 699 CURVE SMOOTH",
"597 695 OFFCURVE",
"443 647 OFFCURVE",
"341 597 CURVE SMOOTH",
"243 550 OFFCURVE",
"135 465 OFFCURVE",
"182 403 CURVE SMOOTH",
"216 358 OFFCURVE",
"314 391 OFFCURVE",
"383 464 CURVE SMOOTH",
"443 527 OFFCURVE",
"505 618 OFFCURVE",
"532 688 CURVE SMOOTH",
"532 688 OFFCURVE",
"520 713 OFFCURVE",
"501 704 CURVE SMOOTH",
"479 694 OFFCURVE",
"379 7 OFFCURVE",
"386 -28 CURVE SMOOTH",
"388 -37 OFFCURVE",
"397 137 OFFCURVE",
"426 186 CURVE SMOOTH",
"482 281 OFFCURVE",
"663 291 OFFCURVE",
"740 291 CURVE SMOOTH",
"768 291 OFFCURVE",
"790 345 OFFCURVE",
"748 349 CURVE SMOOTH",
"692 354 OFFCURVE",
"443 341 OFFCURVE",
"379 215 CURVE SMOOTH",
"329 117 OFFCURVE",
"349 -28 OFFCURVE",
"387 -42 CURVE SMOOTH",
"406 -49 OFFCURVE",
"429 -39 OFFCURVE",
"433 -8 CURVE SMOOTH",
"441 57 OFFCURVE",
"523 531 OFFCURVE",
"545 669 CURVE SMOOTH",
"555 731 OFFCURVE",
"500 733 OFFCURVE",
"478 688 CURVE SMOOTH",
"451 635 OFFCURVE",
"415 584 OFFCURVE",
"377 536 CURVE SMOOTH",
"324 469 OFFCURVE",
"256 424 OFFCURVE",
"234 435 CURVE SMOOTH",
"216 444 OFFCURVE",
"243 481 OFFCURVE",
"306 515 CURVE SMOOTH",
"459 598 OFFCURVE",
"554 631 OFFCURVE",
"823 634 CURVE SMOOTH"
);
}
);
width = 747;
},
{
associatedMasterId = "2B556C7D-ACF4-4058-9F01-0A4D9389EAED";
layerId = "B719786A-D874-4C07-997B-1BF03D22BEF7";
name = "Regular Aug 12 16, 12:36";
paths = (
{
closed = 1;
nodes = (
"864 665 OFFCURVE",
"874 730 OFFCURVE",
"815 729 CURVE SMOOTH",
"597 725 OFFCURVE",
"443 685 OFFCURVE",
"341 635 CURVE SMOOTH",
"243 588 OFFCURVE",
"160 520 OFFCURVE",
"200 458 CURVE SMOOTH",
"214 437 OFFCURVE",
"253 430 OFFCURVE",
"293 438 CURVE SMOOTH",
"394 457 OFFCURVE",
"482 574 OFFCURVE",
"532 688 CURVE SMOOTH",
"532 688 OFFCURVE",
"520 713 OFFCURVE",
"501 704 CURVE SMOOTH",
"479 694 OFFCURVE",
"379 7 OFFCURVE",
"386 -28 CURVE SMOOTH",
"388 -37 OFFCURVE",
"397 137 OFFCURVE",
"426 186 CURVE SMOOTH",
"482 281 OFFCURVE",
"663 291 OFFCURVE",
"740 291 CURVE SMOOTH",
"775 291 OFFCURVE",
"794 345 OFFCURVE",
"748 349 CURVE SMOOTH",
"692 354 OFFCURVE",
"443 346 OFFCURVE",
"379 220 CURVE SMOOTH",
"329 122 OFFCURVE",
"349 -28 OFFCURVE",
"387 -42 CURVE SMOOTH",
"406 -49 OFFCURVE",
"425 -39 OFFCURVE",
"433 -8 CURVE SMOOTH",
"448 51 OFFCURVE",
"523 531 OFFCURVE",
"545 669 CURVE SMOOTH",
"555 731 OFFCURVE",
"500 733 OFFCURVE",
"478 688 CURVE SMOOTH",
"451 635 OFFCURVE",
"423 598 OFFCURVE",
"391 564 CURVE SMOOTH",
"339 509 OFFCURVE",
"272 475 OFFCURVE",
"256 489 CURVE SMOOTH",
"240 503 OFFCURVE",
"264 529 OFFCURVE",
"327 563 CURVE SMOOTH",
"480 646 OFFCURVE",
"615 661 OFFCURVE",
"823 664 CURVE SMOOTH"
);
}
);
width = 747;
},
{
associatedMasterId = "2B556C7D-ACF4-4058-9F01-0A4D9389EAED";
layerId = "D4FD2020-8AB8-433A-87B7-CFBDDFF73F64";
name = "Regular Aug 12 16, 12:59";
paths = (
{
closed = 1;
nodes = (
"39 468 OFFCURVE",
"186 742 OFFCURVE",
"321 774 CURVE SMOOTH",
"395 792 OFFCURVE",
"467 782 OFFCURVE",
"474 681 CURVE SMOOTH",
"486 516 OFFCURVE",
"378 112 OFFCURVE",
"338 -25 CURVE SMOOTH",
"320 -87 OFFCURVE",
"261 -61 OFFCURVE",
"275 -14 CURVE SMOOTH",
"321 142 OFFCURVE",
"432 618 OFFCURVE",
"404 700 CURVE SMOOTH",
"375 787 OFFCURVE",
"130 530 OFFCURVE",
"71 388 CURVE SMOOTH",
"47 329 OFFCURVE",
"-10 347 OFFCURVE",
"15 409 CURVE SMOOTH"
);
},
{
closed = 1;
nodes = (
"297 297 OFFCURVE",
"439 317 OFFCURVE",
"533 317 CURVE SMOOTH",
"600 317 OFFCURVE",
"589 257 OFFCURVE",
"535 257 CURVE SMOOTH",
"494 257 OFFCURVE",
"313 238 OFFCURVE",
"253 229 CURVE SMOOTH",
"202 221 OFFCURVE",
"191 277 OFFCURVE",
"238 286 CURVE SMOOTH"
);
}
);
width = 548;
},
{
associatedMasterId = "2B556C7D-ACF4-4058-9F01-0A4D9389EAED";
layerId = "BDFA696D-EA0A-4CC7-9155-9CFFE8DDC790";
name = "Regular Aug 19 16, 13:18";
paths = (
{
closed = 1;
nodes = (
"50 650 OFFCURVE",
"220 770 OFFCURVE",
"340 787 CURVE SMOOTH",
"415 798 OFFCURVE",
"467 782 OFFCURVE",
"474 681 CURVE SMOOTH",
"486 516 OFFCURVE",
"378 85 OFFCURVE",
"338 -25 CURVE SMOOTH",
"318 -79 OFFCURVE",
"260 -50 OFFCURVE",
"272 -9 CURVE SMOOTH",
"325 173 OFFCURVE",
"423 560 OFFCURVE",
"404 700 CURVE SMOOTH",
"401 722 OFFCURVE",
"378 734 OFFCURVE",
"329 717 CURVE SMOOTH",
"252 692 OFFCURVE",
"122 620 OFFCURVE",
"19 512 CURVE SMOOTH",
"-16 475 OFFCURVE",
"-66 507 OFFCURVE",
"-25 558 CURVE SMOOTH"
);
},
{
closed = 1;
nodes = (
"297 297 OFFCURVE",
"439 317 OFFCURVE",
"533 317 CURVE SMOOTH",
"600 317 OFFCURVE",
"589 257 OFFCURVE",
"535 257 CURVE SMOOTH",
"494 257 OFFCURVE",
"313 238 OFFCURVE",
"253 229 CURVE SMOOTH",
"202 221 OFFCURVE",
"191 277 OFFCURVE",
"238 286 CURVE SMOOTH"
);
}
);
width = 548;
},
{
layerId = "2B556C7D-ACF4-4058-9F01-0A4D9389EAED";
name = Regular;
paths = (
{
closed = 1;
nodes = (
"35 600 OFFCURVE",
"220 769 OFFCURVE",
"349 786 CURVE SMOOTH",
"424 796 OFFCURVE",
"467 759 OFFCURVE",
"474 658 CURVE SMOOTH",
"486 493 OFFCURVE",
"376 85 OFFCURVE",
"336 -24 CURVE SMOOTH",
"316 -78 OFFCURVE",
"261 -50 OFFCURVE",
"272 -9 CURVE SMOOTH",
"342 239 OFFCURVE",
"459 694 OFFCURVE",
"380 720 CURVE SMOOTH",
"302 752 OFFCURVE",
"119 595 OFFCURVE",
"27 368 CURVE SMOOTH",
"7 318 OFFCURVE",
"-55 326 OFFCURVE",
"-35 386 CURVE SMOOTH"
);
},
{
closed = 1;
nodes = (
"332 299 OFFCURVE",
"474 319 OFFCURVE",
"568 319 CURVE SMOOTH",
"628 319 OFFCURVE",
"619 259 OFFCURVE",
"570 259 CURVE SMOOTH",
"542 259 OFFCURVE",
"355 241 OFFCURVE",
"288 231 CURVE SMOOTH",
"237 223 OFFCURVE",
"226 279 OFFCURVE",
"273 288 CURVE SMOOTH"
);
}
);
width = 548;
}
);
unicode = 0046;
},
{
color = 4;
glyphname = G;
lastChange = "2016-08-03 14:08:42 +0200";
layers = (
{
associatedMasterId = "2B556C7D-ACF4-4058-9F01-0A4D9389EAED";
layerId = "D67B0565-ADA9-4DE6-AC36-D0F6C97B45C2";
name = "Regular Jul 31 16, 17:26";
paths = (
{
closed = 1;
nodes = (
"449 624 OFFCURVE",
"410 700 OFFCURVE",
"363 691 CURVE SMOOTH",
"188 659 OFFCURVE",
"93 43 OFFCURVE",
"247 43 CURVE SMOOTH",
"308 43 OFFCURVE",
"400 160 OFFCURVE",
"449 274 CURVE SMOOTH",
"476 336 OFFCURVE",
"531 352 OFFCURVE",
"517 297 CURVE SMOOTH",
"464 85 OFFCURVE",
"441 -68 OFFCURVE",
"427 -148 CURVE SMOOTH",
"418 -201 OFFCURVE",
"396 -237 OFFCURVE",
"371 -223 CURVE SMOOTH",
"345 -209 OFFCURVE",
"345 -166 OFFCURVE",
"375 -102 CURVE SMOOTH",
"384 -83 OFFCURVE",
"405 -3 OFFCURVE",
"617 282 CURVE SMOOTH",
"648 323 OFFCURVE",
"701 301 OFFCURVE",
"657 244 CURVE SMOOTH",
"436 -46 OFFCURVE",
"367 -207 OFFCURVE",
"369 -191 CURVE SMOOTH",
"380 -74 OFFCURVE",
"411 145 OFFCURVE",
"457 294 CURVE SMOOTH",
"467 326 OFFCURVE",
"478 337 OFFCURVE",
"495 338 CURVE SMOOTH",
"552 343 OFFCURVE",
"501 251 OFFCURVE",
"497 244 CURVE SMOOTH",
"436 124 OFFCURVE",
"347 -5 OFFCURVE",
"258 -11 CURVE SMOOTH",
"122 -20 OFFCURVE",
"106 131 OFFCURVE",
"106 248 CURVE SMOOTH",
"106 417 OFFCURVE",
"191 733 OFFCURVE",
"361 741 CURVE SMOOTH",
"486 746 OFFCURVE",
"510 598 OFFCURVE",
"469 476 CURVE SMOOTH",
"456 437 OFFCURVE",
"391 431 OFFCURVE",
"412 500 CURVE SMOOTH"
);
}
);
width = 654;
},
{
associatedMasterId = "2B556C7D-ACF4-4058-9F01-0A4D9389EAED";
layerId = "0AF8E884-F1E1-41E9-AC98-9C52D8FE1FA4";
name = "Regular Jul 31 16, 17:26 Jul 31 16, 17:31";
paths = (
{
closed = 1;
nodes = (
"449 624 OFFCURVE",
"410 700 OFFCURVE",
"363 691 CURVE SMOOTH",
"188 659 OFFCURVE",
"93 35 OFFCURVE",
"247 35 CURVE SMOOTH",
"308 35 OFFCURVE",
"400 160 OFFCURVE",
"449 274 CURVE SMOOTH",
"476 336 OFFCURVE",
"531 352 OFFCURVE",
"517 297 CURVE SMOOTH",
"464 85 OFFCURVE",
"441 -68 OFFCURVE",
"427 -148 CURVE SMOOTH",
"418 -201 OFFCURVE",
"396 -237 OFFCURVE",
"371 -223 CURVE SMOOTH",
"345 -209 OFFCURVE",
"366 -110 OFFCURVE",
"385 -42 CURVE SMOOTH",
"394 -9 OFFCURVE",
"429 184 OFFCURVE",
"682 308 CURVE SMOOTH",
"726 330 OFFCURVE",
"743 272 OFFCURVE",
"702 252 CURVE SMOOTH",
"388 98 OFFCURVE",
"368 -216 OFFCURVE",
"368 -216 CURVE SMOOTH",
"379 -99 OFFCURVE",
"411 145 OFFCURVE",
"457 294 CURVE SMOOTH",
"467 326 OFFCURVE",
"478 337 OFFCURVE",
"495 338 CURVE SMOOTH",
"552 343 OFFCURVE",
"501 251 OFFCURVE",
"497 244 CURVE SMOOTH",
"436 124 OFFCURVE",
"347 -13 OFFCURVE",
"258 -19 CURVE SMOOTH",
"122 -28 OFFCURVE",
"107 121 OFFCURVE",
"107 238 CURVE SMOOTH",
"107 407 OFFCURVE",
"191 733 OFFCURVE",
"361 741 CURVE SMOOTH",
"486 746 OFFCURVE",
"510 598 OFFCURVE",
"469 476 CURVE SMOOTH",
"456 437 OFFCURVE",
"391 431 OFFCURVE",
"412 500 CURVE SMOOTH"
);
}
);
width = 675;
},
{
associatedMasterId = "2B556C7D-ACF4-4058-9F01-0A4D9389EAED";
layerId = "C06ED7A3-3581-4696-96B2-FDA3D8215F6E";
name = "Regular Jul 31 16, 17:46";
paths = (
{
closed = 1;
nodes = (
"449 624 OFFCURVE",
"410 700 OFFCURVE",
"363 691 CURVE SMOOTH",
"188 659 OFFCURVE",
"93 43 OFFCURVE",
"247 43 CURVE SMOOTH",
"308 43 OFFCURVE",
"400 160 OFFCURVE",
"449 274 CURVE SMOOTH",
"476 336 OFFCURVE",
"531 352 OFFCURVE",
"517 297 CURVE SMOOTH",
"464 85 OFFCURVE",
"433 -123 OFFCURVE",
"427 -189 CURVE SMOOTH",
"420 -258 OFFCURVE",
"360 -251 OFFCURVE",
"364 -207 CURVE SMOOTH",
"374 -97 OFFCURVE",
"411 145 OFFCURVE",
"457 294 CURVE SMOOTH",
"467 326 OFFCURVE",
"478 337 OFFCURVE",
"495 338 CURVE SMOOTH",
"552 343 OFFCURVE",
"501 251 OFFCURVE",
"497 244 CURVE SMOOTH",
"436 124 OFFCURVE",
"347 -5 OFFCURVE",
"258 -11 CURVE SMOOTH",
"122 -20 OFFCURVE",
"106 131 OFFCURVE",
"106 248 CURVE SMOOTH",
"106 417 OFFCURVE",
"191 733 OFFCURVE",
"361 741 CURVE SMOOTH",
"486 746 OFFCURVE",
"510 598 OFFCURVE",
"469 476 CURVE SMOOTH",
"456 437 OFFCURVE",
"391 431 OFFCURVE",
"412 500 CURVE SMOOTH"
);
}
);
width = 600;
},
{
associatedMasterId = "2B556C7D-ACF4-4058-9F01-0A4D9389EAED";
layerId = "1C78DB55-CF35-4714-9256-8862FD529364";
name = "Regular Aug 3 16, 14:07";
paths = (
{
closed = 1;
nodes = (
"449 624 OFFCURVE",
"410 700 OFFCURVE",
"363 691 CURVE SMOOTH",
"188 659 OFFCURVE",
"91 34 OFFCURVE",
"245 34 CURVE SMOOTH",
"306 34 OFFCURVE",
"403 185 OFFCURVE",
"457 290 CURVE SMOOTH",
"484 343 OFFCURVE",
"531 352 OFFCURVE",
"517 297 CURVE SMOOTH",
"464 85 OFFCURVE",
"441 -68 OFFCURVE",
"427 -148 CURVE SMOOTH",
"418 -201 OFFCURVE",
"396 -237 OFFCURVE",
"371 -223 CURVE SMOOTH",
"345 -209 OFFCURVE",
"334 -145 OFFCURVE",
"353 -77 CURVE SMOOTH",
"362 -44 OFFCURVE",
"415 173 OFFCURVE",
"682 308 CURVE SMOOTH",
"727 331 OFFCURVE",
"742 276 OFFCURVE",
"702 252 CURVE SMOOTH",
"374 57 OFFCURVE",
"371 -212 OFFCURVE",
"371 -212 CURVE SMOOTH",
"371 -125 OFFCURVE",
"418 145 OFFCURVE",
"457 294 CURVE SMOOTH",
"465 326 OFFCURVE",
"478 337 OFFCURVE",
"495 338 CURVE SMOOTH",
"552 343 OFFCURVE",
"501 262 OFFCURVE",
"497 255 CURVE SMOOTH",
"436 145 OFFCURVE",
"347 -13 OFFCURVE",
"258 -19 CURVE SMOOTH",
"122 -28 OFFCURVE",
"107 121 OFFCURVE",
"107 238 CURVE SMOOTH",
"107 407 OFFCURVE",
"191 733 OFFCURVE",
"361 741 CURVE SMOOTH",
"486 746 OFFCURVE",
"510 598 OFFCURVE",
"469 476 CURVE SMOOTH",
"456 437 OFFCURVE",
"391 431 OFFCURVE",
"412 500 CURVE SMOOTH"
);
}
);
width = 675;
},
{
layerId = "2B556C7D-ACF4-4058-9F01-0A4D9389EAED";
name = Regular;
paths = (
{
closed = 1;
nodes = (
"343 632 OFFCURVE",
"301 696 OFFCURVE",
"254 687 CURVE SMOOTH",
"77 654 OFFCURVE",
"-29 25 OFFCURVE",
"125 59 CURVE SMOOTH",
"184 72 OFFCURVE",
"266 190 OFFCURVE",
"320 297 CURVE SMOOTH",
"347 350 OFFCURVE",
"381 329 OFFCURVE",
"373 297 CURVE SMOOTH",
"320 85 OFFCURVE",
"297 -80 OFFCURVE",
"283 -160 CURVE SMOOTH",
"274 -213 OFFCURVE",
"252 -231 OFFCURVE",
"227 -223 CURVE SMOOTH",
"199 -214 OFFCURVE",
"187 -155 OFFCURVE",
"206 -87 CURVE SMOOTH",
"215 -54 OFFCURVE",
"252 111 OFFCURVE",
"496 289 CURVE SMOOTH",
"534 317 OFFCURVE",
"555 266 OFFCURVE",
"521 241 CURVE SMOOTH",
"211 17 OFFCURVE",
"227 -212 OFFCURVE",
"227 -212 CURVE SMOOTH",
"227 -125 OFFCURVE",
"274 145 OFFCURVE",
"313 294 CURVE SMOOTH",
"321 326 OFFCURVE",
"334 353 OFFCURVE",
"360 345 CURVE SMOOTH",
"403 332 OFFCURVE",
"367 261 OFFCURVE",
"363 254 CURVE SMOOTH",
"302 137 OFFCURVE",
"225 21 OFFCURVE",
"132 4 CURVE SMOOTH",
"-2 -21 OFFCURVE",
"-16 144 OFFCURVE",
"-7 261 CURVE SMOOTH",
"7 436 OFFCURVE",
"88 736 OFFCURVE",
"258 744 CURVE SMOOTH",
"383 749 OFFCURVE",
"404 598 OFFCURVE",
"363 476 CURVE SMOOTH",
"350 437 OFFCURVE",
"287 431 OFFCURVE",
"306 500 CURVE SMOOTH"
);
}
);
width = 508;
}
);
unicode = 0047;
},
{
color = 4;
glyphname = H;
lastChange = "2016-08-04 16:45:53 +0200";
layers = (
{
associatedMasterId = "2B556C7D-ACF4-4058-9F01-0A4D9389EAED";
layerId = "E98EE475-9D18-45BF-92B7-FB4087A31D29";
name = "Regular Jul 31 16, 17:49";
paths = (
{
closed = 1;
nodes = (
"134 563 OFFCURVE",
"39 79 OFFCURVE",
"76 20 CURVE SMOOTH",
"96 -12 OFFCURVE",
"124 -11 OFFCURVE",
"139 31 CURVE SMOOTH",
"152 68 OFFCURVE",
"139 315 OFFCURVE",
"21 469 CURVE SMOOTH",
"-13 513 OFFCURVE",
"-43 514 OFFCURVE",
"-72 511 CURVE SMOOTH",
"-189 500 OFFCURVE",
"-158 213 OFFCURVE",
"-52 167 CURVE SMOOTH",
"88 107 OFFCURVE",
"493 500 OFFCURVE",
"542 682 CURVE SMOOTH",
"543 686 OFFCURVE",
"548 724 OFFCURVE",
"532 744 CURVE SMOOTH",
"527 750 OFFCURVE",
"503 768 OFFCURVE",
"466 729 CURVE SMOOTH",
"458 721 OFFCURVE",
"320 73 OFFCURVE",
"333 -27 CURVE SMOOTH",
"336 -51 OFFCURVE",
"379 -46 OFFCURVE",
"388 -25 CURVE SMOOTH",
"392 -17 OFFCURVE",
"516 717 OFFCURVE",
"511 708 CURVE SMOOTH",
"374 460 OFFCURVE",
"69 169 OFFCURVE",
"-21 211 CURVE SMOOTH",
"-130 262 OFFCURVE",
"-114 516 OFFCURVE",
"-51 472 CURVE SMOOTH",
"79 381 OFFCURVE",
"86 38 OFFCURVE",
"85 38 CURVE SMOOTH",
"85 38 OFFCURVE",
"116 31 OFFCURVE",
"116 41 CURVE SMOOTH",
"116 87 OFFCURVE",
"154 376 OFFCURVE",
"242 666 CURVE SMOOTH",
"252 699 OFFCURVE",
"179 696 OFFCURVE",
"178 694 CURVE SMOOTH"
);
}
);
width = 526;
},
{
associatedMasterId = "2B556C7D-ACF4-4058-9F01-0A4D9389EAED";
layerId = "074A9064-C275-4BE8-B2D8-765626A0475F";
name = "Regular Jul 31 16, 17:49 Jul 31 16, 18:43";
paths = (
{
closed = 1;
nodes = (
"304 635 OFFCURVE",
"190 79 OFFCURVE",
"227 20 CURVE SMOOTH",
"247 -12 OFFCURVE",
"290 0 OFFCURVE",
"290 31 CURVE SMOOTH",
"290 69 OFFCURVE",
"294 315 OFFCURVE",
"176 469 CURVE SMOOTH",
"142 513 OFFCURVE",
"108 522 OFFCURVE",
"79 519 CURVE SMOOTH",
"-52 507 OFFCURVE",
"-18 205 OFFCURVE",
"99 167 CURVE SMOOTH",
"246 119 OFFCURVE",
"542 242 OFFCURVE",
"652 555 CURVE SMOOTH",
"653 559 OFFCURVE",
"671 614 OFFCURVE",
"657 635 CURVE",
"650 653 OFFCURVE",
"612 670 OFFCURVE",
"591 620 CURVE SMOOTH",
"535 485 OFFCURVE",
"461 79 OFFCURVE",
"468 -21 CURVE SMOOTH",
"471 -63 OFFCURVE",
"521 -47 OFFCURVE",
"523 -25 CURVE SMOOTH",
"541 229 OFFCURVE",
"640 608 OFFCURVE",
"636 599 CURVE SMOOTH",
"499 282 OFFCURVE",
"225 186 OFFCURVE",
"130 216 CURVE SMOOTH",
"18 251 OFFCURVE",
"37 509 OFFCURVE",
"100 465 CURVE SMOOTH",
"230 374 OFFCURVE",
"237 38 OFFCURVE",
"236 38 CURVE SMOOTH",
"236 38 OFFCURVE",
"265 31 OFFCURVE",
"267 41 CURVE SMOOTH",
"277 99 OFFCURVE",
"294 315 OFFCURVE",
"406 741 CURVE SMOOTH",
"421 798 OFFCURVE",
"364 827 OFFCURVE",
"346 769 CURVE SMOOTH"
);
}
);
width = 676;
},
{
associatedMasterId = "2B556C7D-ACF4-4058-9F01-0A4D9389EAED";
layerId = "601CE82B-8F3F-470A-BD80-92025690EC89";
name = "Regular Jul 31 16, 18:51";
paths = (
{
closed = 1;
nodes = (
"508 -46 OFFCURVE",
"482.244 -83 OFFCURVE",
"451 -83 CURVE",
"413.674 -83 OFFCURVE",
"392 64.2294 OFFCURVE",
"392 247 CURVE",
"392 384.352 OFFCURVE",
"431.948 605 OFFCURVE",
"478 605 CURVE",
"503.072 605 OFFCURVE",
"526 548.249 OFFCURVE",
"526 500 CURVE",
"526 285.143 OFFCURVE",
"266.198 167.838 OFFCURVE",
"15.4384 174.25 CURVE",
"11.0169 71.7011 OFFCURVE",
"40.1 -25 OFFCURVE",
"100 -25 CURVE",
"210.892 -25 OFFCURVE",
"248 210.272 OFFCURVE",
"248 401 CURVE",
"248 496.741 OFFCURVE",
"234.797 572 OFFCURVE",
"161 572 CURVE",
"79.5102 572 OFFCURVE",
"-20 450.128 OFFCURVE",
"-20 391 CURVE",
"-20 353.175 OFFCURVE",
"12.1196 335.509 OFFCURVE",
"30.0345 329.91 CURVE",
"41.9655 368.09 LINE",
"28.1392 372.41 OFFCURVE",
"20 377.108 OFFCURVE",
"20 391 CURVE",
"20 433.787 OFFCURVE",
"100.552 532 OFFCURVE",
"161 532 CURVE",
"199.109 532 OFFCURVE",
"208 491.216 OFFCURVE",
"208 401 CURVE",
"208 221.706 OFFCURVE",
"169.148 15 OFFCURVE",
"100 15 CURVE",
"81.5421 15 OFFCURVE",
"59.174 64.9502 OFFCURVE",
"55.5168 134.277 CURVE",
"304.989 140.987 OFFCURVE",
"566 269.618 OFFCURVE",
"566 500 CURVE",
"566 557.674 OFFCURVE",
"532.792 645 OFFCURVE",
"478 645 CURVE",
"389.998 645 OFFCURVE",
"352 395.676 OFFCURVE",
"352 247 CURVE",
"352 53.749 OFFCURVE",
"370.265 -123 OFFCURVE",
"451 -123 CURVE",
"505.643 -123 OFFCURVE",
"548 -60 OFFCURVE",
"548 -9 CURVE",
"508 -9 LINE"
);
}
);
width = 526;
},
{
layerId = "2B556C7D-ACF4-4058-9F01-0A4D9389EAED";
name = Regular;
paths = (
{
closed = 1;
nodes = (
"319 636 OFFCURVE",
"224 89 OFFCURVE",
"239 20 CURVE SMOOTH",
"247 -16 OFFCURVE",
"295 0 OFFCURVE",
"302 31 CURVE SMOOTH",
"314 88 OFFCURVE",
"306 345 OFFCURVE",
"188 478 CURVE SMOOTH",
"151 520 OFFCURVE",
"120 528 OFFCURVE",
"91 525 CURVE SMOOTH",
"29 519 OFFCURVE",
"-1 447 OFFCURVE",
"0 369 CURVE SMOOTH",
"2 169 OFFCURVE",
"156 111 OFFCURVE",
"347 196 CURVE SMOOTH",
"472 250 OFFCURVE",
"597 367 OFFCURVE",
"665 551 CURVE SMOOTH",
"666 555 OFFCURVE",
"683 614 OFFCURVE",
"669 635 CURVE",
"662 653 OFFCURVE",
"621 670 OFFCURVE",
"600 620 CURVE SMOOTH",
"544 485 OFFCURVE",
"473 79 OFFCURVE",
"480 -21 CURVE SMOOTH",
"483 -63 OFFCURVE",
"534 -47 OFFCURVE",
"536 -25 CURVE SMOOTH",
"554 229 OFFCURVE",
"652 608 OFFCURVE",
"648 599 CURVE SMOOTH",
"578 437 OFFCURVE",
"475 334 OFFCURVE",
"376 275 CURVE SMOOTH",
"213 179 OFFCURVE",
"66 189 OFFCURVE",
"60 356 CURVE SMOOTH",
"58 403 OFFCURVE",
"69 447 OFFCURVE",
"85 463 CURVE SMOOTH",
"145 523 OFFCURVE",
"273 227 OFFCURVE",
"248 53 CURVE SMOOTH",
"248 53 OFFCURVE",
"288 31 OFFCURVE",
"290 41 CURVE SMOOTH",
"301 103 OFFCURVE",
"324 323 OFFCURVE",
"420 741 CURVE SMOOTH",
"433 798 OFFCURVE",
"372 800 OFFCURVE",
"362 769 CURVE SMOOTH"
);
}
);
width = 689;
}
);
unicode = 0048;
},
{
color = 4;
glyphname = I;
lastChange = "2016-08-23 14:46:11 +0200";
layers = (
{
layerId = "2B556C7D-ACF4-4058-9F01-0A4D9389EAED";
name = Regular;
paths = (
{
closed = 1;
nodes = (
"114 557 OFFCURVE",
"52 117 OFFCURVE",
"52 33 CURVE SMOOTH",
"52 -21 OFFCURVE",
"111 -16 OFFCURVE",
"115 31 CURVE SMOOTH",
"126 164 OFFCURVE",
"181 516 OFFCURVE",
"216 670 CURVE SMOOTH",
"230 732 OFFCURVE",
"169 734 OFFCURVE",
"157 698 CURVE SMOOTH"
);
}
);
width = 278;
}
);
unicode = 0049;
},
{
color = 4;
glyphname = J;
lastChange = "2016-08-19 13:05:44 +0200";
layers = (
{
associatedMasterId = "2B556C7D-ACF4-4058-9F01-0A4D9389EAED";
layerId = "077F3D2C-04DB-4C76-BC01-8DF1770A7DE4";
name = "Regular Jul 30 16, 21:13";
paths = (
{
closed = 1;
nodes = (
"137 585 OFFCURVE",
"140 634 OFFCURVE",
"172 655 CURVE",
"280 692 OFFCURVE",
"387 714 OFFCURVE",
"473 703 CURVE SMOOTH",
"557 692 OFFCURVE",
"583 647 OFFCURVE",
"577 578 CURVE SMOOTH",
"572 524 OFFCURVE",
"512 82 OFFCURVE",
"417 -19 CURVE SMOOTH",
"348 -92 OFFCURVE",
"280 -114 OFFCURVE",
"191 -110 CURVE SMOOTH",
"109 -106 OFFCURVE",
"31 -63 OFFCURVE",
"0 13 CURVE SMOOTH",
"-71 185 OFFCURVE",
"55 333 OFFCURVE",
"158 379 CURVE SMOOTH",
"212 403 OFFCURVE",
"390 466 OFFCURVE",
"615 392 CURVE SMOOTH",
"668 375 OFFCURVE",
"686 335 OFFCURVE",
"608 350 CURVE SMOOTH",
"530 365 OFFCURVE",
"259 407 OFFCURVE",
"126 292 CURVE SMOOTH",
"2 185 OFFCURVE",
"15 0 OFFCURVE",
"118 -45 CURVE SMOOTH",
"191 -77 OFFCURVE",
"336 -69 OFFCURVE",
"402 58 CURVE SMOOTH",
"474 196 OFFCURVE",
"526 578 OFFCURVE",
"524 610 CURVE SMOOTH",
"520 662 OFFCURVE",
"416 662 OFFCURVE",
"189 599 CURVE SMOOTH"
);
}
);
width = 600;
},
{
associatedMasterId = "2B556C7D-ACF4-4058-9F01-0A4D9389EAED";
layerId = "4A8ACD6E-520E-40ED-A47D-C8A8675202F8";
name = "Regular Jul 31 16, 19:04";
paths = (
{
closed = 1;
nodes = (
"137 590 OFFCURVE",
"140 634 OFFCURVE",
"172 655 CURVE",
"280 692 OFFCURVE",
"387 714 OFFCURVE",
"473 703 CURVE SMOOTH",
"557 692 OFFCURVE",
"583 647 OFFCURVE",
"577 578 CURVE SMOOTH",
"560 395 OFFCURVE",
"511 -72 OFFCURVE",
"193 -92 CURVE SMOOTH",
"103 -98 OFFCURVE",
"11 -72 OFFCURVE",
"-18 -1 CURVE SMOOTH",
"-116 237 OFFCURVE",
"263 420 OFFCURVE",
"615 392 CURVE SMOOTH",
"669 388 OFFCURVE",
"687 350 OFFCURVE",
"608 350 CURVE SMOOTH",
"530 350 OFFCURVE",
"288 336 OFFCURVE",
"140 238 CURVE SMOOTH",
"3 147 OFFCURVE",
"-16 18 OFFCURVE",
"87 -27 CURVE SMOOTH",
"160 -59 OFFCURVE",
"297 -47 OFFCURVE",
"378 70 CURVE SMOOTH",
"473 207 OFFCURVE",
"523 533 OFFCURVE",
"521 610 CURVE SMOOTH",
"520 662 OFFCURVE",
"416 667 OFFCURVE",
"189 604 CURVE SMOOTH"
);
}
);
width = 600;
},
{
associatedMasterId = "2B556C7D-ACF4-4058-9F01-0A4D9389EAED";
layerId = "372F5DCA-6443-4764-B6D6-AD68258BE9B4";
name = "Regular Aug 4 16, 16:49";
paths = (
{
closed = 1;
nodes = (
"137 590 OFFCURVE",
"118 634 OFFCURVE",
"172 655 CURVE",
"280 692 OFFCURVE",
"387 714 OFFCURVE",
"473 703 CURVE SMOOTH",
"557 692 OFFCURVE",
"583 647 OFFCURVE",
"577 578 CURVE SMOOTH",
"560 395 OFFCURVE",
"523 -32 OFFCURVE",
"258 -90 CURVE SMOOTH",
"170 -109 OFFCURVE",
"76 -69 OFFCURVE",
"44 1 CURVE SMOOTH",
"-54 217 OFFCURVE",
"263 420 OFFCURVE",
"615 392 CURVE SMOOTH",
"669 388 OFFCURVE",
"687 350 OFFCURVE",
"608 350 CURVE SMOOTH",
"530 350 OFFCURVE",
"329 339 OFFCURVE",
"205 257 CURVE SMOOTH",
"68 167 OFFCURVE",
"49 19 OFFCURVE",
"152 -26 CURVE SMOOTH",
"225 -58 OFFCURVE",
"322 -22 OFFCURVE",
"386 70 CURVE SMOOTH",
"481 206 OFFCURVE",
"523 533 OFFCURVE",
"521 610 CURVE SMOOTH",
"520 656 OFFCURVE",
"403 663 OFFCURVE",
"189 604 CURVE SMOOTH"
);
}
);
width = 600;
},
{
associatedMasterId = "2B556C7D-ACF4-4058-9F01-0A4D9389EAED";
layerId = "7B931195-48D7-4F7F-BE1A-7E9A18E4BD49";
name = "Regular Aug 18 16, 16:52";
paths = (
{
closed = 1;
nodes = (
"138 584 OFFCURVE",
"117 632 OFFCURVE",
"172 655 CURVE SMOOTH",
"261 692 OFFCURVE",
"389 713 OFFCURVE",
"481 707 CURVE SMOOTH",
"566 701 OFFCURVE",
"586 647 OFFCURVE",
"580 578 CURVE SMOOTH",
"563 395 OFFCURVE",
"525 -34 OFFCURVE",
"260 -92 CURVE SMOOTH",
"20 -144 OFFCURVE",
"-73 123 OFFCURVE",
"145 280 CURVE SMOOTH",
"264 366 OFFCURVE",
"439 417 OFFCURVE",
"697 403 CURVE SMOOTH",
"737 401 OFFCURVE",
"754 348 OFFCURVE",
"690 348 CURVE SMOOTH",
"612 348 OFFCURVE",
"357 350 OFFCURVE",
"205 250 CURVE SMOOTH",
"69 160 OFFCURVE",
"48 15 OFFCURVE",
"151 -30 CURVE SMOOTH",
"224 -62 OFFCURVE",
"322 -22 OFFCURVE",
"386 70 CURVE SMOOTH",
"481 206 OFFCURVE",
"518 533 OFFCURVE",
"516 610 CURVE SMOOTH",
"515 658 OFFCURVE",
"420 667 OFFCURVE",
"189 599 CURVE SMOOTH"
);
}
);
width = 658;
},
{
layerId = "2B556C7D-ACF4-4058-9F01-0A4D9389EAED";
name = Regular;
paths = (
{
closed = 1;
nodes = (
"140 584 OFFCURVE",
"117 631 OFFCURVE",
"172 655 CURVE SMOOTH",
"253 691 OFFCURVE",
"392 713 OFFCURVE",
"481 707 CURVE SMOOTH",
"568 701 OFFCURVE",
"583 648 OFFCURVE",
"580 578 CURVE SMOOTH",
"572 402 OFFCURVE",
"509 -107 OFFCURVE",
"244 -165 CURVE SMOOTH",
"150 -186 OFFCURVE",
"81 -154 OFFCURVE",
"42 -101 CURVE SMOOTH",
"-17 -21 OFFCURVE",
"7 125 OFFCURVE",
"138 219 CURVE SMOOTH",
"257 305 OFFCURVE",
"442 346 OFFCURVE",
"683 333 CURVE SMOOTH",
"723 331 OFFCURVE",
"740 275 OFFCURVE",
"676 275 CURVE SMOOTH",
"556 275 OFFCURVE",
"324 278 OFFCURVE",
"179 172 CURVE SMOOTH",
"76 97 OFFCURVE",
"59 3 OFFCURVE",
"90 -57 CURVE SMOOTH",
"116 -106 OFFCURVE",
"179 -127 OFFCURVE",
"241 -105 CURVE SMOOTH",
"421 -42 OFFCURVE",
"496 294 OFFCURVE",
"514 545 CURVE SMOOTH",
"519 609 OFFCURVE",
"523 646 OFFCURVE",
"454 646 CURVE SMOOTH",
"402 646 OFFCURVE",
"318 637 OFFCURVE",
"191 599 CURVE SMOOTH"
);
}
);
width = 658;
}
);
rightMetricsKey = "-";
unicode = 004A;
},
{
color = 4;
glyphname = K;
lastChange = "2016-08-19 21:55:22 +0200";
layers = (
{
associatedMasterId = "2B556C7D-ACF4-4058-9F01-0A4D9389EAED";
layerId = "8842650D-9270-4D9A-A92A-B54C24A62077";
name = "Regular Jul 31 16, 19:53";
paths = (
{
closed = 1;
nodes = (
"132 531 OFFCURVE",
"32 64 OFFCURVE",
"69 5 CURVE SMOOTH",
"89 -27 OFFCURVE",
"124 -18 OFFCURVE",
"154 14 CURVE SMOOTH",
"256 123 OFFCURVE",
"336 313 OFFCURVE",
"337 315 CURVE SMOOTH",
"337 315 OFFCURVE",
"275 302 OFFCURVE",
"248 225 CURVE SMOOTH",
"221 147 OFFCURVE",
"251 25 OFFCURVE",
"298 -8 CURVE SMOOTH",
"326 -28 OFFCURVE",
"381 -30 OFFCURVE",
"419 0 CURVE SMOOTH",
"459 31 OFFCURVE",
"522 113 OFFCURVE",
"569 261 CURVE SMOOTH",
"588 322 OFFCURVE",
"537 323 OFFCURVE",
"528 300 CURVE SMOOTH",
"463 138 OFFCURVE",
"395 30 OFFCURVE",
"356 30 CURVE SMOOTH",
"316 30 OFFCURVE",
"277 202 OFFCURVE",
"291 222 CURVE SMOOTH",
"300 235 OFFCURVE",
"499 638 OFFCURVE",
"510 678 CURVE SMOOTH",
"523 726 OFFCURVE",
"465 739 OFFCURVE",
"451 706 CURVE SMOOTH",
"301 354 OFFCURVE",
"126 39 OFFCURVE",
"92 28 CURVE SMOOTH",
"92 28 OFFCURVE",
"117 -3 OFFCURVE",
"125 6 CURVE SMOOTH",
"132 14 OFFCURVE",
"133 21 OFFCURVE",
"125 26 CURVE SMOOTH",
"103 40 OFFCURVE",
"177 416 OFFCURVE",
"274 749 CURVE SMOOTH",
"289 800 OFFCURVE",
"222 819 OFFCURVE",
"209 777 CURVE SMOOTH"
);
}
);
width = 600;
},
{
associatedMasterId = "2B556C7D-ACF4-4058-9F01-0A4D9389EAED";
layerId = "BD66D243-4AEB-48AC-B4C5-40BFFD6FD64F";
name = "Regular Aug 4 16, 16:52";
paths = (
{
closed = 1;
nodes = (
"132 531 OFFCURVE",
"51 72 OFFCURVE",
"69 5 CURVE SMOOTH",
"81 -39 OFFCURVE",
"117 -34 OFFCURVE",
"145 0 CURVE SMOOTH",
"247 123 OFFCURVE",
"327 299 OFFCURVE",
"328 301 CURVE SMOOTH",
"328 301 OFFCURVE",
"275 302 OFFCURVE",
"248 225 CURVE SMOOTH",
"221 147 OFFCURVE",
"251 25 OFFCURVE",
"298 -8 CURVE SMOOTH",
"326 -28 OFFCURVE",
"381 -30 OFFCURVE",
"419 0 CURVE SMOOTH",
"459 31 OFFCURVE",
"522 113 OFFCURVE",
"569 261 CURVE SMOOTH",
"588 322 OFFCURVE",
"537 323 OFFCURVE",
"528 300 CURVE SMOOTH",
"463 138 OFFCURVE",
"396 32 OFFCURVE",
"357 32 CURVE SMOOTH",
"306 32 OFFCURVE",
"293 187 OFFCURVE",
"293 227 CURVE SMOOTH",
"293 235 OFFCURVE",
"462 568 OFFCURVE",
"508 678 CURVE SMOOTH",
"527 724 OFFCURVE",
"466 739 OFFCURVE",
"451 706 CURVE SMOOTH",
"301 378 OFFCURVE",
"126 39 OFFCURVE",
"92 28 CURVE SMOOTH",
"92 28 OFFCURVE",
"117 -3 OFFCURVE",
"125 6 CURVE SMOOTH",
"132 14 OFFCURVE",
"133 21 OFFCURVE",
"125 26 CURVE SMOOTH",
"103 40 OFFCURVE",
"177 416 OFFCURVE",
"274 749 CURVE SMOOTH",
"289 800 OFFCURVE",
"222 819 OFFCURVE",
"209 777 CURVE SMOOTH"
);
}
);
width = 543;
},
{
layerId = "2B556C7D-ACF4-4058-9F01-0A4D9389EAED";
name = Regular;
paths = (
{
closed = 1;
nodes = (
"66 531 OFFCURVE",
"-15 72 OFFCURVE",
"3 5 CURVE SMOOTH",
"15 -39 OFFCURVE",
"62 -35 OFFCURVE",
"89 0 CURVE SMOOTH",
"191 134 OFFCURVE",
"278 299 OFFCURVE",
"279 301 CURVE",
"279 301 OFFCURVE",
"212 305 OFFCURVE",
"197 225 CURVE SMOOTH",
"176 109 OFFCURVE",
"222 -31 OFFCURVE",
"318 -27 CURVE SMOOTH",
"400 -20 OFFCURVE",
"471 63 OFFCURVE",
"540 261 CURVE SMOOTH",
"562 324 OFFCURVE",
"499 321 OFFCURVE",
"489 295 CURVE SMOOTH",
"418 117 OFFCURVE",
"360 41 OFFCURVE",
"321 41 CURVE SMOOTH",
"270 41 OFFCURVE",
"248 195 OFFCURVE",
"248 235 CURVE SMOOTH",
"248 241 OFFCURVE",
"407 491 OFFCURVE",
"475 624 CURVE SMOOTH",
"501 675 OFFCURVE",
"435 693 OFFCURVE",
"414 656 CURVE SMOOTH",
"256 380 OFFCURVE",
"60 39 OFFCURVE",
"26 28 CURVE SMOOTH",
"26 28 OFFCURVE",
"51 -3 OFFCURVE",
"59 6 CURVE SMOOTH",
"66 14 OFFCURVE",
"58 16 OFFCURVE",
"59 26 CURVE SMOOTH",
"70 150 OFFCURVE",
"113 424 OFFCURVE",
"210 757 CURVE SMOOTH",
"225 808 OFFCURVE",
"156 819 OFFCURVE",
"143 777 CURVE SMOOTH"
);
}
);
width = 494;
}
);
unicode = 004B;
},
{
color = 4;
glyphname = L;
lastChange = "2016-08-19 13:34:43 +0200";
layers = (
{
associatedMasterId = "2B556C7D-ACF4-4058-9F01-0A4D9389EAED";
layerId = "2DCF1836-A22C-4E9C-AD5E-AD09A42B3AC6";
name = "Regular Jul 31 16, 20:12";
paths = (
{
closed = 1;
nodes = (
"387 685 OFFCURVE",
"385 744 OFFCURVE",
"347 744 CURVE SMOOTH",
"295 744 OFFCURVE",
"231 372 OFFCURVE",
"131 98 CURVE SMOOTH",
"108 35 OFFCURVE",
"56 0 OFFCURVE",
"24 0 CURVE SMOOTH",
"-23 0 OFFCURVE",
"-39 47 OFFCURVE",
"-1 79 CURVE SMOOTH",
"56 127 OFFCURVE",
"277 16 OFFCURVE",
"386 1 CURVE SMOOTH",
"489 -13 OFFCURVE",
"525 62 OFFCURVE",
"599 268 CURVE SMOOTH",
"620 327 OFFCURVE",
"673 293 OFFCURVE",
"657 240 CURVE SMOOTH",
"608 74 OFFCURVE",
"552 -47 OFFCURVE",
"419 -60 CURVE SMOOTH",
"320 -70 OFFCURVE",
"121 15 OFFCURVE",
"66 25 CURVE SMOOTH",
"23 33 OFFCURVE",
"17 21 OFFCURVE",
"31 51 CURVE SMOOTH",
"113 223 OFFCURVE",
"188 601 OFFCURVE",
"249 735 CURVE SMOOTH",
"282 807 OFFCURVE",
"381 827 OFFCURVE",
"429 757 CURVE SMOOTH",
"445 733 OFFCURVE",
"452 686 OFFCURVE",
"439 657 CURVE SMOOTH",
"418 610 OFFCURVE",
"357 623 OFFCURVE",
"369 648 CURVE SMOOTH"
);
}
);
width = 600;
},
{
associatedMasterId = "2B556C7D-ACF4-4058-9F01-0A4D9389EAED";
layerId = "00250483-047E-4176-A3AC-BB2E8142B1D5";
name = "Regular Jul 31 16, 20:14";
paths = (
{
closed = 1;
nodes = (
"167 448 OFFCURVE",
"301 425 OFFCURVE",
"345 473 CURVE SMOOTH",
"423 558 OFFCURVE",
"391 744 OFFCURVE",
"347 744 CURVE SMOOTH",
"295 744 OFFCURVE",
"222 377 OFFCURVE",
"122 103 CURVE SMOOTH",
"99 40 OFFCURVE",
"56 0 OFFCURVE",
"24 0 CURVE SMOOTH",
"-23 0 OFFCURVE",
"-39 45 OFFCURVE",
"-1 77 CURVE SMOOTH",
"56 125 OFFCURVE",
"252 16 OFFCURVE",
"386 1 CURVE SMOOTH",
"489 -11 OFFCURVE",
"551 62 OFFCURVE",
"599 268 CURVE SMOOTH",
"613 330 OFFCURVE",
"659 294 OFFCURVE",
"648 240 CURVE SMOOTH",
"618 95 OFFCURVE",
"552 -47 OFFCURVE",
"419 -60 CURVE SMOOTH",
"320 -70 OFFCURVE",
"121 15 OFFCURVE",
"66 25 CURVE SMOOTH",
"23 33 OFFCURVE",
"17 21 OFFCURVE",
"31 51 CURVE SMOOTH",
"113 223 OFFCURVE",
"196 601 OFFCURVE",
"257 735 CURVE SMOOTH",
"290 807 OFFCURVE",
"379 824 OFFCURVE",
"425 754 CURVE SMOOTH",
"462 697 OFFCURVE",
"480 526 OFFCURVE",
"402 442 CURVE SMOOTH",
"348 384 OFFCURVE",
"231 372 OFFCURVE",
"86 411 CURVE SMOOTH",
"36 424 OFFCURVE",
"40 484 OFFCURVE",
"67 476 CURVE SMOOTH"
);
}
);
width = 600;
},
{
associatedMasterId = "2B556C7D-ACF4-4058-9F01-0A4D9389EAED";
layerId = "04CBBFBA-D00D-45D9-BEFC-A8CC17F0449E";
name = "Regular Aug 4 16, 17:13";
paths = (
{
closed = 1;
nodes = (
"167 448 OFFCURVE",
"301 425 OFFCURVE",
"345 473 CURVE SMOOTH",
"423 558 OFFCURVE",
"391 744 OFFCURVE",
"347 744 CURVE SMOOTH",
"295 744 OFFCURVE",
"222 377 OFFCURVE",
"122 103 CURVE SMOOTH",
"99 40 OFFCURVE",
"56 0 OFFCURVE",
"24 0 CURVE SMOOTH",
"-23 0 OFFCURVE",
"-39 45 OFFCURVE",
"-1 77 CURVE SMOOTH",
"56 125 OFFCURVE",
"199 26 OFFCURVE",
"333 11 CURVE SMOOTH",
"439 -1 OFFCURVE",
"477 91 OFFCURVE",
"525 286 CURVE SMOOTH",
"540 348 OFFCURVE",
"585 312 OFFCURVE",
"574 258 CURVE SMOOTH",
"548 131 OFFCURVE",
"508 -37 OFFCURVE",
"375 -50 CURVE SMOOTH",
"276 -60 OFFCURVE",
"121 15 OFFCURVE",
"66 25 CURVE SMOOTH",
"23 33 OFFCURVE",
"17 21 OFFCURVE",
"31 51 CURVE SMOOTH",
"113 223 OFFCURVE",
"196 601 OFFCURVE",
"257 735 CURVE SMOOTH",
"290 807 OFFCURVE",
"379 824 OFFCURVE",
"425 754 CURVE SMOOTH",
"462 697 OFFCURVE",
"480 526 OFFCURVE",
"402 442 CURVE SMOOTH",
"348 384 OFFCURVE",
"231 372 OFFCURVE",
"86 411 CURVE SMOOTH",
"36 424 OFFCURVE",
"40 484 OFFCURVE",
"67 476 CURVE SMOOTH"
);
}
);
width = 526;
},
{
layerId = "2B556C7D-ACF4-4058-9F01-0A4D9389EAED";
name = Regular;
paths = (
{
closed = 1;
nodes = (
"193 446 OFFCURVE",
"301 431 OFFCURVE",
"345 479 CURVE SMOOTH",
"423 564 OFFCURVE",
"391 697 OFFCURVE",
"347 697 CURVE SMOOTH",
"295 697 OFFCURVE",
"222 377 OFFCURVE",
"122 103 CURVE SMOOTH",
"99 40 OFFCURVE",
"66 16 OFFCURVE",
"34 10 CURVE SMOOTH",
"-40 -4 OFFCURVE",
"-89 48 OFFCURVE",
"-35 94 CURVE SMOOTH",
"26 145 OFFCURVE",
"202 26 OFFCURVE",
"333 11 CURVE SMOOTH",
"439 -1 OFFCURVE",
"477 100 OFFCURVE",
"525 286 CURVE SMOOTH",
"540 345 OFFCURVE",
"593 322 OFFCURVE",
"583 271 CURVE SMOOTH",
"557 133 OFFCURVE",
"508 -37 OFFCURVE",
"375 -50 CURVE SMOOTH",
"276 -60 OFFCURVE",
"121 15 OFFCURVE",
"66 25 CURVE SMOOTH",
"23 33 OFFCURVE",
"17 21 OFFCURVE",
"31 51 CURVE SMOOTH",
"113 223 OFFCURVE",
"196 562 OFFCURVE",
"257 696 CURVE SMOOTH",
"293 774 OFFCURVE",
"377 788 OFFCURVE",
"425 715 CURVE SMOOTH",
"462 658 OFFCURVE",
"477 527 OFFCURVE",
"399 443 CURVE SMOOTH",
"345 385 OFFCURVE",
"231 372 OFFCURVE",
"86 411 CURVE SMOOTH",
"36 424 OFFCURVE",
"50 487 OFFCURVE",
"95 474 CURVE SMOOTH"
);
}
);
width = 524;
}
);
unicode = 004C;
},
{
color = 4;
glyphname = Lslash;
lastChange = "2016-08-19 13:24:44 +0200";
layers = (
{
associatedMasterId = "2B556C7D-ACF4-4058-9F01-0A4D9389EAED";
layerId = "7D410386-2C8E-4A3C-A4B8-983304644DA6";
name = "Regular Aug 5 16, 12:16";
paths = (
{
closed = 1;
nodes = (
"338 764 OFFCURVE",
"322 716 CURVE SMOOTH",
"290 621 OFFCURVE",
"195 289 OFFCURVE",
"127 103 CURVE SMOOTH",
"104 39 OFFCURVE",
"66 16 OFFCURVE",
"34 10 CURVE SMOOTH",
"-40 -4 OFFCURVE",
"-89 48 OFFCURVE",
"-35 94 CURVE SMOOTH",
"26 145 OFFCURVE",
"202 26 OFFCURVE",
"333 11 CURVE SMOOTH",
"439 -1 OFFCURVE",
"477 100 OFFCURVE",
"525 286 CURVE SMOOTH",
"540 345 OFFCURVE",
"593 322 OFFCURVE",
"583 271 CURVE SMOOTH",
"557 133 OFFCURVE",
"508 -37 OFFCURVE",
"375 -50 CURVE SMOOTH",
"276 -60 OFFCURVE",
"121 15 OFFCURVE",
"66 25 CURVE SMOOTH",
"23 33 OFFCURVE",
"17 21 OFFCURVE",
"31 51 CURVE SMOOTH",
"113 223 OFFCURVE",
"195 576 OFFCURVE",
"257 735 CURVE SMOOTH",
"279 790 OFFCURVE"
);
}
);
width = 600;
},
{
associatedMasterId = "2B556C7D-ACF4-4058-9F01-0A4D9389EAED";
layerId = "F1B922E6-8D53-4893-A493-BFC1D4E21DE3";
name = "Regular Aug 5 16, 12:16 Aug 5 16, 12:17";
paths = (
{
closed = 1;
nodes = (
"338 764 OFFCURVE",
"322 716 CURVE SMOOTH",
"290 621 OFFCURVE",
"195 289 OFFCURVE",
"127 103 CURVE SMOOTH",
"104 39 OFFCURVE",
"66 16 OFFCURVE",
"34 10 CURVE SMOOTH",
"-40 -4 OFFCURVE",
"-89 48 OFFCURVE",
"-35 94 CURVE SMOOTH",
"26 145 OFFCURVE",
"202 30 OFFCURVE",
"333 15 CURVE SMOOTH",
"439 3 OFFCURVE",
"477 100 OFFCURVE",
"525 286 CURVE SMOOTH",
"540 345 OFFCURVE",
"598 322 OFFCURVE",
"588 271 CURVE SMOOTH",
"562 133 OFFCURVE",
"508 -37 OFFCURVE",
"375 -50 CURVE SMOOTH",
"276 -60 OFFCURVE",
"121 15 OFFCURVE",
"66 25 CURVE SMOOTH",
"23 33 OFFCURVE",
"17 21 OFFCURVE",
"31 51 CURVE SMOOTH",
"113 223 OFFCURVE",
"195 576 OFFCURVE",
"257 735 CURVE SMOOTH",
"279 790 OFFCURVE"
);
},
{
closed = 1;
nodes = (
"178 379 OFFCURVE",
"231 402 OFFCURVE",
"403 505 CURVE SMOOTH",
"456 537 OFFCURVE",
"476 470 OFFCURVE",
"443 449 CURVE SMOOTH",
"341 382 OFFCURVE",
"173 303 OFFCURVE",
"31 253 CURVE SMOOTH",
"-29 232 OFFCURVE",
"-48 292 OFFCURVE",
"3 312 CURVE SMOOTH"
);
}
);
width = 529;
},
{
associatedMasterId = "2B556C7D-ACF4-4058-9F01-0A4D9389EAED";
layerId = "74859A85-8F20-46DE-A54E-ED91FD123637";
name = "Regular Aug 5 16, 12:16 Aug 5 16, 12:17 Aug 5 16, 12:21";
paths = (
{
closed = 1;
nodes = (
"323 698 OFFCURVE",
"307 650 CURVE SMOOTH",
"274 552 OFFCURVE",
"194 287 OFFCURVE",
"127 103 CURVE SMOOTH",
"104 39 OFFCURVE",
"66 16 OFFCURVE",
"34 10 CURVE SMOOTH",
"-40 -4 OFFCURVE",
"-89 48 OFFCURVE",
"-35 94 CURVE SMOOTH",
"26 145 OFFCURVE",
"202 30 OFFCURVE",
"333 15 CURVE SMOOTH",
"439 3 OFFCURVE",
"477 100 OFFCURVE",
"525 286 CURVE SMOOTH",
"540 345 OFFCURVE",
"598 322 OFFCURVE",
"588 271 CURVE SMOOTH",
"562 133 OFFCURVE",
"508 -37 OFFCURVE",
"375 -50 CURVE SMOOTH",
"276 -60 OFFCURVE",
"121 15 OFFCURVE",
"66 25 CURVE SMOOTH",
"23 33 OFFCURVE",
"17 21 OFFCURVE",
"31 51 CURVE SMOOTH",
"113 223 OFFCURVE",
"177 488 OFFCURVE",
"239 669 CURVE SMOOTH",
"258 725 OFFCURVE"
);
},
{
closed = 1;
nodes = (
"133 311 OFFCURVE",
"208 347 OFFCURVE",
"362 424 CURVE SMOOTH",
"417 451 OFFCURVE",
"434 388 OFFCURVE",
"398 368 CURVE SMOOTH",
"306 318 OFFCURVE",
"167 248 OFFCURVE",
"18 186 CURVE SMOOTH",
"-40 162 OFFCURVE",
"-60 221 OFFCURVE",
"-10 244 CURVE SMOOTH"
);
}
);
width = 529;
},
{
associatedMasterId = "2B556C7D-ACF4-4058-9F01-0A4D9389EAED";
layerId = "E99A9F35-861E-447B-BB91-018BF24CEC74";
name = "Regular Aug 5 16, 12:23";
paths = (
{
closed = 1;
nodes = (
"193 446 OFFCURVE",
"301 431 OFFCURVE",
"345 479 CURVE SMOOTH",
"423 564 OFFCURVE",
"391 737 OFFCURVE",
"347 737 CURVE SMOOTH",
"295 737 OFFCURVE",
"222 377 OFFCURVE",
"122 103 CURVE SMOOTH",
"99 40 OFFCURVE",
"66 16 OFFCURVE",
"34 10 CURVE SMOOTH",
"-40 -4 OFFCURVE",
"-89 48 OFFCURVE",
"-35 94 CURVE SMOOTH",
"26 145 OFFCURVE",
"202 26 OFFCURVE",
"333 11 CURVE SMOOTH",
"439 -1 OFFCURVE",
"477 100 OFFCURVE",
"525 286 CURVE SMOOTH",
"540 345 OFFCURVE",
"593 322 OFFCURVE",
"583 271 CURVE SMOOTH",
"557 133 OFFCURVE",
"508 -37 OFFCURVE",
"375 -50 CURVE SMOOTH",
"276 -60 OFFCURVE",
"121 15 OFFCURVE",
"66 25 CURVE SMOOTH",
"23 33 OFFCURVE",
"17 21 OFFCURVE",
"31 51 CURVE SMOOTH",
"113 223 OFFCURVE",
"196 601 OFFCURVE",
"257 735 CURVE SMOOTH",
"293 813 OFFCURVE",
"377 827 OFFCURVE",
"425 754 CURVE SMOOTH",
"462 697 OFFCURVE",
"480 526 OFFCURVE",
"402 442 CURVE SMOOTH",
"348 384 OFFCURVE",
"231 372 OFFCURVE",
"86 411 CURVE SMOOTH",
"36 424 OFFCURVE",
"50 487 OFFCURVE",
"95 474 CURVE SMOOTH"
);
}
);
width = 600;
},
{
layerId = "2B556C7D-ACF4-4058-9F01-0A4D9389EAED";
name = Regular;
paths = (
{
closed = 1;
nodes = (
"323 698 OFFCURVE",
"307 650 CURVE SMOOTH",
"274 552 OFFCURVE",
"194 287 OFFCURVE",
"127 103 CURVE SMOOTH",
"104 39 OFFCURVE",
"66 16 OFFCURVE",
"34 10 CURVE SMOOTH",
"-40 -4 OFFCURVE",
"-89 48 OFFCURVE",
"-35 94 CURVE SMOOTH",
"26 145 OFFCURVE",
"202 30 OFFCURVE",
"333 15 CURVE SMOOTH",
"439 3 OFFCURVE",
"477 100 OFFCURVE",
"525 286 CURVE SMOOTH",
"540 345 OFFCURVE",
"600 321 OFFCURVE",
"586 271 CURVE SMOOTH",
"544 119 OFFCURVE",
"508 -37 OFFCURVE",
"375 -50 CURVE SMOOTH",
"276 -60 OFFCURVE",
"121 15 OFFCURVE",
"66 25 CURVE SMOOTH",
"23 33 OFFCURVE",
"17 21 OFFCURVE",
"31 51 CURVE SMOOTH",
"113 223 OFFCURVE",
"177 488 OFFCURVE",
"239 669 CURVE SMOOTH",
"258 725 OFFCURVE"
);
},
{
closed = 1;
nodes = (
"152 323 OFFCURVE",
"208 342 OFFCURVE",
"362 424 CURVE SMOOTH",
"416 453 OFFCURVE",
"434 393 OFFCURVE",
"398 368 CURVE SMOOTH",
"328 320 OFFCURVE",
"113 234 OFFCURVE",
"18 213 CURVE SMOOTH",
"-36 202 OFFCURVE",
"-47 258 OFFCURVE",
"-2 273 CURVE SMOOTH"
);
}
);
width = 529;
}
);
unicode = 0141;
},
{
color = 4;
glyphname = M;
lastChange = "2016-08-19 13:14:43 +0200";
layers = (
{
associatedMasterId = "2B556C7D-ACF4-4058-9F01-0A4D9389EAED";
layerId = "BB9F9D29-B804-4ECC-AA38-C3BD5C6EE011";
name = "Regular Jul 31 16, 20:15 Jul 31 16, 20:28 Jul 31 16, 20:31 Jul 31 16, 20:37 Jul 31 16, 20:38";
paths = (
{
closed = 1;
nodes = (
"120 105 OFFCURVE",
"168 -38 OFFCURVE",
"302 -30 CURVE SMOOTH",
"484 -19 OFFCURVE",
"686 386 OFFCURVE",
"784 691 CURVE SMOOTH",
"790 711 OFFCURVE",
"765 718 OFFCURVE",
"760 700 CURVE SMOOTH",
"725 575 OFFCURVE",
"704 198 OFFCURVE",
"704 78 CURVE SMOOTH",
"704 63 OFFCURVE",
"700 -3 OFFCURVE",
"709 13 CURVE SMOOTH",
"765 115 OFFCURVE",
"956 495 OFFCURVE",
"1062 746 CURVE SMOOTH",
"1068 761 OFFCURVE",
"1067 772 OFFCURVE",
"1047 754 CURVE SMOOTH",
"1006 716 OFFCURVE",
"924 335 OFFCURVE",
"946 141 CURVE SMOOTH",
"957 48 OFFCURVE",
"995 -14 OFFCURVE",
"1080 0 CURVE SMOOTH",
"1182 17 OFFCURVE",
"1250 175 OFFCURVE",
"1296 348 CURVE SMOOTH",
"1309 398 OFFCURVE",
"1259 399 OFFCURVE",
"1247 358 CURVE SMOOTH",
"1200 201 OFFCURVE",
"1122 51 OFFCURVE",
"1059 51 CURVE SMOOTH",
"978 51 OFFCURVE",
"985 364 OFFCURVE",
"1090 725 CURVE SMOOTH",
"1106 780 OFFCURVE",
"1015 783 OFFCURVE",
"1006 760 CURVE SMOOTH",
"880 452 OFFCURVE",
"679 88 OFFCURVE",
"679 58 CURVE SMOOTH",
"679 -22 OFFCURVE",
"762 -18 OFFCURVE",
"762 54 CURVE SMOOTH",
"762 214 OFFCURVE",
"781 475 OFFCURVE",
"817 681 CURVE SMOOTH",
"829 749 OFFCURVE",
"744 749 OFFCURVE",
"732 715 CURVE SMOOTH",
"633 423 OFFCURVE",
"453 51 OFFCURVE",
"300 23 CURVE SMOOTH",
"213 7 OFFCURVE",
"195 119 OFFCURVE",
"222 227 CURVE SMOOTH",
"232 268 OFFCURVE",
"176 291 OFFCURVE",
"167 260 CURVE SMOOTH"
);
}
);
width = 1242;
},
{
associatedMasterId = "2B556C7D-ACF4-4058-9F01-0A4D9389EAED";
layerId = "2BACFBF4-A8FF-4CDA-9C4D-F643F2D9DFD2";
name = "Regular Jul 31 16, 20:48 Jul 31 16, 20:49";
paths = (
{
closed = 1;
nodes = (
"253 391 OFFCURVE",
"102 326 OFFCURVE",
"56 248 CURVE SMOOTH",
"16 181 OFFCURVE",
"11 93 OFFCURVE",
"34 44 CURVE SMOOTH",
"71 -36 OFFCURVE",
"170 -41 OFFCURVE",
"236 7 CURVE SMOOTH",
"384 111 OFFCURVE",
"522 414 OFFCURVE",
"614 691 CURVE SMOOTH",
"621 711 OFFCURVE",
"598 718 OFFCURVE",
"594 700 CURVE SMOOTH",
"559 549 OFFCURVE",
"534 198 OFFCURVE",
"534 78 CURVE SMOOTH",
"534 63 OFFCURVE",
"530 -3 OFFCURVE",
"539 13 CURVE SMOOTH",
"595 115 OFFCURVE",
"776 481 OFFCURVE",
"882 732 CURVE SMOOTH",
"888 747 OFFCURVE",
"880 763 OFFCURVE",
"867 740 CURVE SMOOTH",
"826 667 OFFCURVE",
"754 325 OFFCURVE",
"776 131 CURVE SMOOTH",
"787 38 OFFCURVE",
"825 -14 OFFCURVE",
"910 0 CURVE SMOOTH",
"1012 17 OFFCURVE",
"1083 186 OFFCURVE",
"1126 348 CURVE SMOOTH",
"1139 397 OFFCURVE",
"1089 399 OFFCURVE",
"1077 358 CURVE SMOOTH",
"1030 201 OFFCURVE",
"952 51 OFFCURVE",
"889 51 CURVE SMOOTH",
"808 51 OFFCURVE",
"820 377 OFFCURVE",
"910 725 CURVE SMOOTH",
"925 785 OFFCURVE",
"838 776 OFFCURVE",
"826 745 CURVE SMOOTH",
"700 437 OFFCURVE",
"517 89 OFFCURVE",
"513 59 CURVE SMOOTH",
"503 -21 OFFCURVE",
"592 -18 OFFCURVE",
"592 54 CURVE SMOOTH",
"592 214 OFFCURVE",
"611 475 OFFCURVE",
"647 681 CURVE SMOOTH",
"661 758 OFFCURVE",
"571 735 OFFCURVE",
"564 715 CURVE SMOOTH",
"442 370 OFFCURVE",
"259 27 OFFCURVE",
"141 27 CURVE SMOOTH",
"74 27 OFFCURVE",
"59 174 OFFCURVE",
"142 252 CURVE SMOOTH",
"209 315 OFFCURVE",
"343 293 OFFCURVE",
"426 225 CURVE SMOOTH",
"446 208 OFFCURVE",
"471 265 OFFCURVE",
"423 293 CURVE SMOOTH"
);
}
);
width = 1068;
},
{
associatedMasterId = "2B556C7D-ACF4-4058-9F01-0A4D9389EAED";
layerId = "17FB0EA2-2BAF-40F4-BDA3-A9C8FFA1AC37";
name = "Regular Jul 31 16, 20:53";
paths = (
{
closed = 1;
nodes = (
"-33 109 OFFCURVE",
"-6 -38 OFFCURVE",
"128 -30 CURVE SMOOTH",
"310 -19 OFFCURVE",
"513 335 OFFCURVE",
"597 691 CURVE SMOOTH",
"602 711 OFFCURVE",
"581 718 OFFCURVE",
"577 700 CURVE SMOOTH",
"542 549 OFFCURVE",
"517 198 OFFCURVE",
"517 78 CURVE SMOOTH",
"517 63 OFFCURVE",
"513 -3 OFFCURVE",
"522 13 CURVE SMOOTH",
"578 115 OFFCURVE",
"759 481 OFFCURVE",
"865 732 CURVE SMOOTH",
"871 747 OFFCURVE",
"870 758 OFFCURVE",
"850 740 CURVE SMOOTH",
"809 702 OFFCURVE",
"737 325 OFFCURVE",
"759 131 CURVE SMOOTH",
"770 38 OFFCURVE",
"808 -14 OFFCURVE",
"893 0 CURVE SMOOTH",
"995 17 OFFCURVE",
"1066 186 OFFCURVE",
"1109 348 CURVE SMOOTH",
"1122 397 OFFCURVE",
"1072 399 OFFCURVE",
"1060 358 CURVE SMOOTH",
"1013 201 OFFCURVE",
"935 51 OFFCURVE",
"872 51 CURVE SMOOTH",
"791 51 OFFCURVE",
"803 377 OFFCURVE",
"893 725 CURVE SMOOTH",
"908 785 OFFCURVE",
"821 776 OFFCURVE",
"809 745 CURVE SMOOTH",
"683 437 OFFCURVE",
"500 89 OFFCURVE",
"496 59 CURVE SMOOTH",
"486 -21 OFFCURVE",
"575 -18 OFFCURVE",
"575 54 CURVE SMOOTH",
"575 214 OFFCURVE",
"594 475 OFFCURVE",
"630 681 CURVE SMOOTH",
"644 758 OFFCURVE",
"552 735 OFFCURVE",
"547 715 CURVE SMOOTH",
"467 396 OFFCURVE",
"279 51 OFFCURVE",
"126 23 CURVE SMOOTH",
"39 7 OFFCURVE",
"49 141 OFFCURVE",
"95 227 CURVE SMOOTH",
"121 275 OFFCURVE",
"57 294 OFFCURVE",
"40 260 CURVE SMOOTH"
);
}
);
width = 1051;
},
{
associatedMasterId = "2B556C7D-ACF4-4058-9F01-0A4D9389EAED";
layerId = "7460B539-75CD-4D22-BEC8-E18629663B1E";
name = "Regular Aug 4 16, 17:19";
paths = (
{
closed = 1;
nodes = (
"-33 91 OFFCURVE",
"-12 -38 OFFCURVE",
"122 -30 CURVE SMOOTH",
"304 -19 OFFCURVE",
"485 337 OFFCURVE",
"597 691 CURVE SMOOTH",
"603 711 OFFCURVE",
"581 718 OFFCURVE",
"577 700 CURVE SMOOTH",
"542 549 OFFCURVE",
"517 198 OFFCURVE",
"517 78 CURVE SMOOTH",
"517 63 OFFCURVE",
"514 -4 OFFCURVE",
"522 13 CURVE SMOOTH",
"578 137 OFFCURVE",
"759 468 OFFCURVE",
"865 732 CURVE SMOOTH",
"871 747 OFFCURVE",
"870 758 OFFCURVE",
"850 740 CURVE SMOOTH",
"809 702 OFFCURVE",
"737 325 OFFCURVE",
"759 131 CURVE SMOOTH",
"770 38 OFFCURVE",
"808 -14 OFFCURVE",
"893 0 CURVE SMOOTH",
"995 17 OFFCURVE",
"1066 186 OFFCURVE",
"1109 348 CURVE SMOOTH",
"1122 397 OFFCURVE",
"1072 399 OFFCURVE",
"1060 358 CURVE SMOOTH",
"1013 201 OFFCURVE",
"935 51 OFFCURVE",
"872 51 CURVE SMOOTH",
"791 51 OFFCURVE",
"803 377 OFFCURVE",
"893 725 CURVE SMOOTH",
"908 785 OFFCURVE",
"821 776 OFFCURVE",
"809 745 CURVE SMOOTH",
"679 428 OFFCURVE",
"499 122 OFFCURVE",
"496 72 CURVE SMOOTH",
"491 -8 OFFCURVE",
"575 -18 OFFCURVE",
"575 54 CURVE SMOOTH",
"575 214 OFFCURVE",
"594 475 OFFCURVE",
"630 681 CURVE SMOOTH",
"644 758 OFFCURVE",
"554 735 OFFCURVE",
"547 715 CURVE SMOOTH",
"425 370 OFFCURVE",
"252 51 OFFCURVE",
"120 23 CURVE SMOOTH",
"34 5 OFFCURVE",
"49 141 OFFCURVE",
"95 227 CURVE SMOOTH",
"121 275 OFFCURVE",
"55 295 OFFCURVE",
"40 260 CURVE SMOOTH"
);
}
);
width = 1051;
},
{
layerId = "2B556C7D-ACF4-4058-9F01-0A4D9389EAED";
name = Regular;
paths = (
{
closed = 1;
nodes = (
"-32 79 OFFCURVE",
"-6 -52 OFFCURVE",
"118 -45 CURVE SMOOTH",
"300 -34 OFFCURVE",
"459 337 OFFCURVE",
"571 691 CURVE SMOOTH",
"576 707 OFFCURVE",
"553 717 OFFCURVE",
"549 700 CURVE SMOOTH",
"514 549 OFFCURVE",
"490 213 OFFCURVE",
"472 93 CURVE SMOOTH",
"466 52 OFFCURVE",
"502 59 OFFCURVE",
"517 86 CURVE SMOOTH",
"591 219 OFFCURVE",
"721 414 OFFCURVE",
"812 656 CURVE SMOOTH",
"816 667 OFFCURVE",
"814 702 OFFCURVE",
"801 686 CURVE SMOOTH",
"768 644 OFFCURVE",
"687 304 OFFCURVE",
"708 117 CURVE SMOOTH",
"716 54 OFFCURVE",
"741 -19 OFFCURVE",
"835 -3 CURVE SMOOTH",
"937 14 OFFCURVE",
"1004 144 OFFCURVE",
"1062 328 CURVE SMOOTH",
"1077 376 OFFCURVE",
"1019 384 OFFCURVE",
"1007 344 CURVE SMOOTH",
"957 184 OFFCURVE",
"875 54 OFFCURVE",
"812 54 CURVE SMOOTH",
"746 54 OFFCURVE",
"758 312 OFFCURVE",
"838 658 CURVE SMOOTH",
"854 726 OFFCURVE",
"787 731 OFFCURVE",
"767 688 CURVE SMOOTH",
"617 361 OFFCURVE",
"498 173 OFFCURVE",
"470 123 CURVE SMOOTH",
"423 39 OFFCURVE",
"523 15 OFFCURVE",
"535 114 CURVE SMOOTH",
"556 293 OFFCURVE",
"582 538 OFFCURVE",
"597 679 CURVE SMOOTH",
"606 767 OFFCURVE",
"533 748 OFFCURVE",
"520 712 CURVE SMOOTH",
"401 377 OFFCURVE",
"266 56 OFFCURVE",
"122 16 CURVE SMOOTH",
"58 -2 OFFCURVE",
"39 98 OFFCURVE",
"98 214 CURVE SMOOTH",
"127 271 OFFCURVE",
"59 289 OFFCURVE",
"40 245 CURVE SMOOTH"
);
}
);
width = 1003;
}
);
unicode = 004D;
},
{
color = 4;
glyphname = N;
lastChange = "2016-08-05 11:36:16 +0200";
layers = (
{
associatedMasterId = "2B556C7D-ACF4-4058-9F01-0A4D9389EAED";
layerId = "AAD9EAF2-83A9-4A88-86F8-F26525DFDF2A";
name = "Regular Jul 31 16, 21:15";
paths = (
{
closed = 1;
nodes = (
"286 462 OFFCURVE",
"419 697 OFFCURVE",
"531 770 CURVE SMOOTH",
"583 804 OFFCURVE",
"630 791 OFFCURVE",
"646 737 CURVE SMOOTH",
"687 599 OFFCURVE",
"579 234 OFFCURVE",
"538 55 CURVE SMOOTH",
"534 36 OFFCURVE",
"486 26 OFFCURVE",
"490 43 CURVE SMOOTH",
"572 369 OFFCURVE",
"689 572 OFFCURVE",
"791 661 CURVE SMOOTH",
"873 734 OFFCURVE",
"933 667 OFFCURVE",
"929 599 CURVE SMOOTH",
"919 440 OFFCURVE",
"754 55 OFFCURVE",
"898 44 CURVE SMOOTH",
"957 39 OFFCURVE",
"1082 219 OFFCURVE",
"1111 304 CURVE SMOOTH",
"1131 363 OFFCURVE",
"1179 332 OFFCURVE",
"1146 242 CURVE SMOOTH",
"1107 136 OFFCURVE",
"955 -90 OFFCURVE",
"822 6 CURVE SMOOTH",
"754 55 OFFCURVE",
"763 185 OFFCURVE",
"817 405 CURVE SMOOTH",
"850 538 OFFCURVE",
"869 626 OFFCURVE",
"856 639 CURVE SMOOTH",
"811 689 OFFCURVE",
"622 310 OFFCURVE",
"549 36 CURVE",
"526 -13 OFFCURVE",
"479 7 OFFCURVE",
"487 43 CURVE SMOOTH",
"504 116 OFFCURVE",
"616 700 OFFCURVE",
"583 723 CURVE SMOOTH",
"534 757 OFFCURVE",
"362 475 OFFCURVE",
"296 268 CURVE SMOOTH",
"284 231 OFFCURVE",
"236 262 OFFCURVE",
"244 293 CURVE SMOOTH"
);
}
);
width = 1111;
},
{
associatedMasterId = "2B556C7D-ACF4-4058-9F01-0A4D9389EAED";
layerId = "2F31857E-4547-46C3-A777-D119DBDB5D2E";
name = "Regular Aug 4 16, 17:29";
paths = (
{
closed = 1;
nodes = (
"43 462 OFFCURVE",
"176 697 OFFCURVE",
"288 770 CURVE SMOOTH",
"340 804 OFFCURVE",
"387 791 OFFCURVE",
"403 737 CURVE SMOOTH",
"438 621 OFFCURVE",
"332 215 OFFCURVE",
"291 36 CURVE SMOOTH",
"287 17 OFFCURVE",
"238 7 OFFCURVE",
"243 24 CURVE SMOOTH",
"347 350 OFFCURVE",
"443 573 OFFCURVE",
"545 662 CURVE SMOOTH",
"627 735 OFFCURVE",
"682 667 OFFCURVE",
"678 599 CURVE SMOOTH",
"668 440 OFFCURVE",
"501 45 OFFCURVE",
"645 34 CURVE SMOOTH",
"704 29 OFFCURVE",
"826 181 OFFCURVE",
"868 304 CURVE SMOOTH",
"888 363 OFFCURVE",
"936 332 OFFCURVE",
"903 242 CURVE SMOOTH",
"875 167 OFFCURVE",
"789 31 OFFCURVE",
"693 -13 CURVE SMOOTH",
"654 -31 OFFCURVE",
"614 -32 OFFCURVE",
"575 -4 CURVE SMOOTH",
"507 45 OFFCURVE",
"520 185 OFFCURVE",
"574 405 CURVE SMOOTH",
"607 538 OFFCURVE",
"627 618 OFFCURVE",
"614 631 CURVE SMOOTH",
"569 681 OFFCURVE",
"375 291 OFFCURVE",
"302 17 CURVE",
"279 -32 OFFCURVE",
"232 -12 OFFCURVE",
"240 24 CURVE SMOOTH",
"257 97 OFFCURVE",
"373 700 OFFCURVE",
"340 723 CURVE SMOOTH",
"291 757 OFFCURVE",
"119 475 OFFCURVE",
"53 268 CURVE SMOOTH",
"41 231 OFFCURVE",
"-7 262 OFFCURVE",
"1 293 CURVE SMOOTH"
);
}
);
width = 867;
},
{
layerId = "2B556C7D-ACF4-4058-9F01-0A4D9389EAED";
name = Regular;
paths = (
{
closed = 1;
nodes = (
"92 452 OFFCURVE",
"183 705 OFFCURVE",
"289 774 CURVE SMOOTH",
"341 808 OFFCURVE",
"388 790 OFFCURVE",
"404 736 CURVE SMOOTH",
"439 620 OFFCURVE",
"332 215 OFFCURVE",
"291 36 CURVE SMOOTH",
"287 17 OFFCURVE",
"242 7 OFFCURVE",
"247 24 CURVE SMOOTH",
"341 350 OFFCURVE",
"438 585 OFFCURVE",
"540 674 CURVE SMOOTH",
"620 745 OFFCURVE",
"671 669 OFFCURVE",
"671 599 CURVE SMOOTH",
"671 445 OFFCURVE",
"556 46 OFFCURVE",
"650 37 CURVE SMOOTH",
"700 32 OFFCURVE",
"782 144 OFFCURVE",
"850 303 CURVE SMOOTH",
"869 347 OFFCURVE",
"923 327 OFFCURVE",
"900 272 CURVE SMOOTH",
"828 101 OFFCURVE",
"750 -23 OFFCURVE",
"648 -18 CURVE SMOOTH",
"522 -12 OFFCURVE",
"532 137 OFFCURVE",
"583 405 CURVE SMOOTH",
"608 539 OFFCURVE",
"617 618 OFFCURVE",
"604 631 CURVE SMOOTH",
"565 674 OFFCURVE",
"375 350 OFFCURVE",
"313 17 CURVE SMOOTH",
"301 -45 OFFCURVE",
"229 -25 OFFCURVE",
"240 24 CURVE SMOOTH",
"259 105 OFFCURVE",
"380 717 OFFCURVE",
"340 728 CURVE SMOOTH",
"288 743 OFFCURVE",
"154 473 OFFCURVE",
"111 274 CURVE SMOOTH",
"100 225 OFFCURVE",
"40 245 OFFCURVE",
"52 293 CURVE SMOOTH"
);
}
);
width = 856;
}
);
unicode = 004E;
},
{
color = 4;
glyphname = Nacute;
lastChange = "2016-08-18 17:28:35 +0200";
layers = (
{
associatedMasterId = "2B556C7D-ACF4-4058-9F01-0A4D9389EAED";
layerId = "F62564F4-7A83-464F-AAB8-9095412A90F7";
name = "Regular Aug 5 16, 11:42";
paths = (
{
closed = 1;
nodes = (
"92 452 OFFCURVE",
"173 653 OFFCURVE",
"279 722 CURVE SMOOTH",
"331 756 OFFCURVE",
"377 738 OFFCURVE",
"393 684 CURVE SMOOTH",
"428 568 OFFCURVE",
"332 215 OFFCURVE",
"291 36 CURVE SMOOTH",
"287 17 OFFCURVE",
"242 7 OFFCURVE",
"247 24 CURVE SMOOTH",
"341 350 OFFCURVE",
"428 533 OFFCURVE",
"530 622 CURVE SMOOTH",
"610 693 OFFCURVE",
"661 617 OFFCURVE",
"661 547 CURVE SMOOTH",
"661 393 OFFCURVE",
"547 37 OFFCURVE",
"650 37 CURVE SMOOTH",
"700 37 OFFCURVE",
"782 143 OFFCURVE",
"850 303 CURVE SMOOTH",
"869 347 OFFCURVE",
"923 327 OFFCURVE",
"900 272 CURVE SMOOTH",
"828 101 OFFCURVE",
"750 -23 OFFCURVE",
"648 -18 CURVE SMOOTH",
"522 -12 OFFCURVE",
"527 113 OFFCURVE",
"573 353 CURVE SMOOTH",
"599 488 OFFCURVE",
"607 566 OFFCURVE",
"594 579 CURVE SMOOTH",
"555 622 OFFCURVE",
"375 350 OFFCURVE",
"313 17 CURVE SMOOTH",
"301 -45 OFFCURVE",
"229 -25 OFFCURVE",
"240 24 CURVE SMOOTH",
"259 105 OFFCURVE",
"370 665 OFFCURVE",
"330 676 CURVE SMOOTH",
"278 691 OFFCURVE",
"154 473 OFFCURVE",
"111 274 CURVE SMOOTH",
"100 225 OFFCURVE",
"40 245 OFFCURVE",
"52 293 CURVE SMOOTH"
);
},
{
closed = 1;
nodes = (
"503 805 OFFCURVE",
"512 873 OFFCURVE",
"542 921 CURVE SMOOTH",
"568 964 OFFCURVE",
"619 936 OFFCURVE",
"599 899 CURVE SMOOTH",
"574 852 OFFCURVE",
"562 814 OFFCURVE",
"560 784 CURVE SMOOTH",
"556 745 OFFCURVE",
"503 741 OFFCURVE",
"503 786 CURVE SMOOTH"
);
}
);
width = 856;
},
{
associatedMasterId = "2B556C7D-ACF4-4058-9F01-0A4D9389EAED";
layerId = "9C147DC3-C63C-4880-9E7B-EC7CF34B7574";
name = "Regular Aug 5 16, 11:50";
paths = (
{
closed = 1;
nodes = (
"92 452 OFFCURVE",
"183 705 OFFCURVE",
"289 774 CURVE SMOOTH",
"341 808 OFFCURVE",
"387 790 OFFCURVE",
"403 736 CURVE SMOOTH",
"438 620 OFFCURVE",
"332 215 OFFCURVE",
"291 36 CURVE SMOOTH",
"287 17 OFFCURVE",
"242 7 OFFCURVE",
"247 24 CURVE SMOOTH",
"341 350 OFFCURVE",
"438 585 OFFCURVE",
"540 674 CURVE SMOOTH",
"620 745 OFFCURVE",
"671 669 OFFCURVE",
"671 599 CURVE SMOOTH",
"671 445 OFFCURVE",
"556 46 OFFCURVE",
"650 37 CURVE SMOOTH",
"700 32 OFFCURVE",
"782 143 OFFCURVE",
"850 303 CURVE SMOOTH",
"869 347 OFFCURVE",
"923 327 OFFCURVE",
"900 272 CURVE SMOOTH",
"828 101 OFFCURVE",
"750 -23 OFFCURVE",
"648 -18 CURVE SMOOTH",
"522 -12 OFFCURVE",
"532 137 OFFCURVE",
"583 405 CURVE SMOOTH",
"608 539 OFFCURVE",
"617 618 OFFCURVE",
"604 631 CURVE SMOOTH",
"565 674 OFFCURVE",
"375 350 OFFCURVE",
"313 17 CURVE SMOOTH",
"301 -45 OFFCURVE",
"229 -25 OFFCURVE",
"240 24 CURVE SMOOTH",
"259 105 OFFCURVE",
"380 717 OFFCURVE",
"340 728 CURVE SMOOTH",
"288 743 OFFCURVE",
"154 473 OFFCURVE",
"111 274 CURVE SMOOTH",
"100 225 OFFCURVE",
"40 245 OFFCURVE",
"52 293 CURVE SMOOTH"
);
},
{
closed = 1;
nodes = (
"503 805 OFFCURVE",
"512 873 OFFCURVE",
"542 921 CURVE SMOOTH",
"568 964 OFFCURVE",
"619 936 OFFCURVE",
"599 899 CURVE SMOOTH",
"574 852 OFFCURVE",
"562 814 OFFCURVE",
"560 784 CURVE SMOOTH",
"556 745 OFFCURVE",
"503 741 OFFCURVE",
"503 786 CURVE SMOOTH"
);
}
);
width = 856;
},
{
associatedMasterId = "2B556C7D-ACF4-4058-9F01-0A4D9389EAED";
layerId = "9CB1150E-D7F9-4379-9FE2-318099765024";
name = "Regular Aug 5 16, 11:57";
paths = (
{
closed = 1;
nodes = (
"92 452 OFFCURVE",
"173 633 OFFCURVE",
"279 702 CURVE SMOOTH",
"331 736 OFFCURVE",
"375 720 OFFCURVE",
"391 666 CURVE SMOOTH",
"424 557 OFFCURVE",
"332 216 OFFCURVE",
"291 36 CURVE SMOOTH",
"287 17 OFFCURVE",
"242 7 OFFCURVE",
"247 24 CURVE SMOOTH",
"341 350 OFFCURVE",
"428 513 OFFCURVE",
"530 602 CURVE SMOOTH",
"610 673 OFFCURVE",
"659 597 OFFCURVE",
"659 527 CURVE SMOOTH",
"659 373 OFFCURVE",
"548 36 OFFCURVE",
"651 36 CURVE SMOOTH",
"701 36 OFFCURVE",
"782 129 OFFCURVE",
"850 303 CURVE SMOOTH",
"868 348 OFFCURVE",
"920 327 OFFCURVE",
"897 272 CURVE SMOOTH",
"825 101 OFFCURVE",
"750 -23 OFFCURVE",
"648 -18 CURVE SMOOTH",
"530 -12 OFFCURVE",
"531 108 OFFCURVE",
"572 333 CURVE SMOOTH",
"600 485 OFFCURVE",
"604 549 OFFCURVE",
"591 562 CURVE SMOOTH",
"552 605 OFFCURVE",
"375 350 OFFCURVE",
"313 17 CURVE SMOOTH",
"302 -39 OFFCURVE",
"233 -19 OFFCURVE",
"243 25 CURVE SMOOTH",
"262 106 OFFCURVE",
"372 649 OFFCURVE",
"332 660 CURVE SMOOTH",
"279 676 OFFCURVE",
"149 467 OFFCURVE",
"107 274 CURVE SMOOTH",
"96 225 OFFCURVE",
"40 245 OFFCURVE",
"52 293 CURVE SMOOTH"
);
},
{
closed = 1;
nodes = (
"520 749 OFFCURVE",
"531 797 OFFCURVE",
"541 830 CURVE SMOOTH",
"554 874 OFFCURVE",
"609 855 OFFCURVE",
"598 814 CURVE SMOOTH",
"588 776 OFFCURVE",
"574 734 OFFCURVE",
"559 693 CURVE SMOOTH",
"546 657 OFFCURVE",
"500 670 OFFCURVE",
"510 709 CURVE SMOOTH"
);
}
);
width = 856;
},
{
layerId = "2B556C7D-ACF4-4058-9F01-0A4D9389EAED";
name = Regular;
paths = (
{
closed = 1;
nodes = (
"523 816 OFFCURVE",
"509 751 OFFCURVE",
"499 711 CURVE SMOOTH",
"488 667 OFFCURVE",
"544 654 OFFCURVE",
"557 695 CURVE SMOOTH",
"574 750 OFFCURVE",
"587 799 OFFCURVE",
"596 833 CURVE SMOOTH",
"608 877 OFFCURVE",
"547 896 OFFCURVE",
"533 849 CURVE SMOOTH"
);
},
{
closed = 1;
nodes = (
"92 452 OFFCURVE",
"179 641 OFFCURVE",
"279 705 CURVE SMOOTH",
"331 738 OFFCURVE",
"375 720 OFFCURVE",
"391 666 CURVE SMOOTH",
"424 557 OFFCURVE",
"332 216 OFFCURVE",
"291 36 CURVE SMOOTH",
"287 17 OFFCURVE",
"242 7 OFFCURVE",
"247 24 CURVE SMOOTH",
"339 344 OFFCURVE",
"420 509 OFFCURVE",
"526 602 CURVE SMOOTH",
"575 645 OFFCURVE",
"620 629 OFFCURVE",
"640 596 CURVE SMOOTH",
"670 549 OFFCURVE",
"659 484 OFFCURVE",
"647 409 CURVE SMOOTH",
"621 245 OFFCURVE",
"571 35 OFFCURVE",
"652 35 CURVE SMOOTH",
"702 35 OFFCURVE",
"770 121 OFFCURVE",
"848 303 CURVE SMOOTH",
"867 347 OFFCURVE",
"919 326 OFFCURVE",
"897 272 CURVE SMOOTH",
"830 107 OFFCURVE",
"744 -22 OFFCURVE",
"648 -17 CURVE SMOOTH",
"530 -11 OFFCURVE",
"528 108 OFFCURVE",
"569 333 CURVE SMOOTH",
"597 485 OFFCURVE",
"605 553 OFFCURVE",
"591 565 CURVE SMOOTH",
"552 597 OFFCURVE",
"375 325 OFFCURVE",
"313 17 CURVE SMOOTH",
"302 -40 OFFCURVE",
"233 -21 OFFCURVE",
"243 25 CURVE SMOOTH",
"262 106 OFFCURVE",
"368 646 OFFCURVE",
"329 659 CURVE SMOOTH",
"281 675 OFFCURVE",
"158 472 OFFCURVE",
"110 279 CURVE SMOOTH",
"98 230 OFFCURVE",
"40 245 OFFCURVE",
"52 293 CURVE SMOOTH"
);
}
);
width = 856;
}
);
leftMetricsKey = N;
rightMetricsKey = N;
unicode = 0143;
},
{
color = 4;
glyphname = O;
lastChange = "2016-08-05 11:48:48 +0200";
layers = (
{
associatedMasterId = "2B556C7D-ACF4-4058-9F01-0A4D9389EAED";
layerId = "4BD79CE9-C251-4200-A8B1-4EBAA13B8E1A";
name = "Regular Aug 4 16, 17:31";
paths = (
{
closed = 1;
nodes = (
"660 378 OFFCURVE",
"665 440 OFFCURVE",
"614 414 CURVE SMOOTH",
"288 246 OFFCURVE",
"109 292 OFFCURVE",
"92 438 CURVE SMOOTH",
"74 590 OFFCURVE",
"219 782 OFFCURVE",
"326 746 CURVE SMOOTH",
"503 686 OFFCURVE",
"434 75 OFFCURVE",
"204 37 CURVE SMOOTH",
"73 15 OFFCURVE",
"49 191 OFFCURVE",
"101 392 CURVE SMOOTH",
"101 392 OFFCURVE",
"60 444 OFFCURVE",
"42 391 CURVE SMOOTH",
"-4 257 OFFCURVE",
"-24 -34 OFFCURVE",
"198 -20 CURVE SMOOTH",
"518 0 OFFCURVE",
"612 750 OFFCURVE",
"332 799 CURVE SMOOTH",
"168 828 OFFCURVE",
"25 631 OFFCURVE",
"28 461 CURVE SMOOTH",
"33 139 OFFCURVE",
"444 233 OFFCURVE",
"660 378 CURVE SMOOTH"
);
}
);
width = 610;
},
{
layerId = "2B556C7D-ACF4-4058-9F01-0A4D9389EAED";
name = Regular;
paths = (
{
closed = 1;
nodes = (
"685 349 OFFCURVE",
"668 398 OFFCURVE",
"616 370 CURVE SMOOTH",
"323 210 OFFCURVE",
"110 292 OFFCURVE",
"93 438 CURVE SMOOTH",
"75 590 OFFCURVE",
"208 738 OFFCURVE",
"328 702 CURVE SMOOTH",
"511 647 OFFCURVE",
"442 88 OFFCURVE",
"205 37 CURVE SMOOTH",
"80 10 OFFCURVE",
"35 186 OFFCURVE",
"101 392 CURVE SMOOTH",
"101 392 OFFCURVE",
"60 444 OFFCURVE",
"42 391 CURVE SMOOTH",
"-4 257 OFFCURVE",
"-24 -34 OFFCURVE",
"198 -20 CURVE SMOOTH",
"457 -3 OFFCURVE",
"567 482 OFFCURVE",
"443 679 CURVE SMOOTH",
"387 770 OFFCURVE",
"273 787 OFFCURVE",
"173 728 CURVE SMOOTH",
"87 675 OFFCURVE",
"27 571 OFFCURVE",
"29 461 CURVE SMOOTH",
"34 149 OFFCURVE",
"442 190 OFFCURVE",
"649 325 CURVE SMOOTH"
);
}
);
width = 598;
},
{
associatedMasterId = "2B556C7D-ACF4-4058-9F01-0A4D9389EAED";
layerId = "4E936917-CDF8-4F1F-9058-D7AA19F762BE";
name = "Regular Aug 4 16, 17:32";
paths = (
{
closed = 1;
nodes = (
"685 395 OFFCURVE",
"668 444 OFFCURVE",
"616 416 CURVE SMOOTH",
"323 256 OFFCURVE",
"110 292 OFFCURVE",
"93 438 CURVE SMOOTH",
"75 590 OFFCURVE",
"220 776 OFFCURVE",
"327 740 CURVE SMOOTH",
"504 680 OFFCURVE",
"435 79 OFFCURVE",
"205 41 CURVE SMOOTH",
"74 19 OFFCURVE",
"49 191 OFFCURVE",
"101 392 CURVE SMOOTH",
"101 392 OFFCURVE",
"60 444 OFFCURVE",
"42 391 CURVE SMOOTH",
"-4 257 OFFCURVE",
"-24 -34 OFFCURVE",
"198 -20 CURVE SMOOTH",
"518 0 OFFCURVE",
"612 750 OFFCURVE",
"332 799 CURVE SMOOTH",
"168 828 OFFCURVE",
"25 631 OFFCURVE",
"28 461 CURVE SMOOTH",
"33 149 OFFCURVE",
"442 236 OFFCURVE",
"649 371 CURVE SMOOTH"
);
}
);
width = 598;
}
);
unicode = 004F;
},
{
color = 4;
glyphname = Oacute;
lastChange = "2016-08-05 12:07:45 +0200";
layers = (
{
associatedMasterId = "2B556C7D-ACF4-4058-9F01-0A4D9389EAED";
layerId = "D117E1BB-A83C-4867-A328-B0CE7E5B580D";
name = "Regular Aug 5 16, 11:47";
paths = (
{
closed = 1;
nodes = (
"685 349 OFFCURVE",
"668 398 OFFCURVE",
"616 370 CURVE SMOOTH",
"323 210 OFFCURVE",
"110 292 OFFCURVE",
"93 438 CURVE SMOOTH",
"75 590 OFFCURVE",
"221 736 OFFCURVE",
"328 700 CURVE SMOOTH",
"505 640 OFFCURVE",
"435 91 OFFCURVE",
"205 41 CURVE SMOOTH",
"75 13 OFFCURVE",
"49 191 OFFCURVE",
"101 392 CURVE SMOOTH",
"101 392 OFFCURVE",
"60 444 OFFCURVE",
"42 391 CURVE SMOOTH",
"-4 257 OFFCURVE",
"-24 -34 OFFCURVE",
"198 -20 CURVE SMOOTH",
"512 0 OFFCURVE",
"607 713 OFFCURVE",
"332 761 CURVE SMOOTH",
"168 790 OFFCURVE",
"26 629 OFFCURVE",
"29 459 CURVE SMOOTH",
"34 147 OFFCURVE",
"442 190 OFFCURVE",
"649 325 CURVE SMOOTH"
);
},
{
closed = 1;
nodes = (
"288 857 OFFCURVE",
"297 925 OFFCURVE",
"327 973 CURVE SMOOTH",
"353 1016 OFFCURVE",
"404 988 OFFCURVE",
"384 951 CURVE SMOOTH",
"359 904 OFFCURVE",
"347 866 OFFCURVE",
"345 836 CURVE SMOOTH",
"341 797 OFFCURVE",
"288 793 OFFCURVE",
"288 838 CURVE SMOOTH"
);
}
);
width = 598;
},
{
associatedMasterId = "2B556C7D-ACF4-4058-9F01-0A4D9389EAED";
layerId = "88C0F9E8-6CB1-4DE3-BAB4-74D365E8629D";
name = "Regular Aug 5 16, 11:57";
paths = (
{
closed = 1;
nodes = (
"664 275 OFFCURVE",
"646 325 OFFCURVE",
"594 297 CURVE SMOOTH",
"317 149 OFFCURVE",
"114 202 OFFCURVE",
"97 363 CURVE SMOOTH",
"81 515 OFFCURVE",
"207 665 OFFCURVE",
"329 629 CURVE SMOOTH",
"509 576 OFFCURVE",
"439 79 OFFCURVE",
"218 37 CURVE SMOOTH",
"90 13 OFFCURVE",
"43 191 OFFCURVE",
"95 392 CURVE SMOOTH",
"95 392 OFFCURVE",
"49 445 OFFCURVE",
"36 391 CURVE SMOOTH",
"0 244 OFFCURVE",
"-10 -33 OFFCURVE",
"212 -19 CURVE SMOOTH",
"455 -3 OFFCURVE",
"564 439 OFFCURVE",
"441 614 CURVE SMOOTH",
"376 707 OFFCURVE",
"264 711 OFFCURVE",
"165 644 CURVE SMOOTH",
"86 589 OFFCURVE",
"34 489 OFFCURVE",
"36 386 CURVE SMOOTH",
"41 74 OFFCURVE",
"420 125 OFFCURVE",
"627 252 CURVE SMOOTH"
);
},
{
closed = 1;
nodes = (
"292 801 OFFCURVE",
"303 849 OFFCURVE",
"313 882 CURVE SMOOTH",
"326 926 OFFCURVE",
"381 907 OFFCURVE",
"370 866 CURVE SMOOTH",
"360 828 OFFCURVE",
"346 786 OFFCURVE",
"331 745 CURVE SMOOTH",
"318 709 OFFCURVE",
"272 722 OFFCURVE",
"282 761 CURVE SMOOTH"
);
}
);
width = 598;
},
{
layerId = "2B556C7D-ACF4-4058-9F01-0A4D9389EAED";
name = Regular;
paths = (
{
closed = 1;
nodes = (
"664 275 OFFCURVE",
"646 325 OFFCURVE",
"594 297 CURVE SMOOTH",
"317 149 OFFCURVE",
"114 202 OFFCURVE",
"97 363 CURVE SMOOTH",
"81 515 OFFCURVE",
"203 664 OFFCURVE",
"329 627 CURVE SMOOTH",
"509 574 OFFCURVE",
"439 79 OFFCURVE",
"218 37 CURVE SMOOTH",
"90 13 OFFCURVE",
"43 191 OFFCURVE",
"95 392 CURVE SMOOTH",
"95 392 OFFCURVE",
"49 445 OFFCURVE",
"36 391 CURVE SMOOTH",
"0 244 OFFCURVE",
"-10 -33 OFFCURVE",
"212 -19 CURVE SMOOTH",
"455 -3 OFFCURVE",
"564 437 OFFCURVE",
"441 612 CURVE SMOOTH",
"376 705 OFFCURVE",
"251 706 OFFCURVE",
"159 644 CURVE SMOOTH",
"80 589 OFFCURVE",
"34 489 OFFCURVE",
"36 386 CURVE SMOOTH",
"41 74 OFFCURVE",
"420 125 OFFCURVE",
"627 252 CURVE SMOOTH"
);
},
{
closed = 1;
nodes = (
"305 876 OFFCURVE",
"291 811 OFFCURVE",
"282 774 CURVE SMOOTH",
"271 730 OFFCURVE",
"327 717 OFFCURVE",
"340 758 CURVE SMOOTH",
"357 813 OFFCURVE",
"370 862 OFFCURVE",
"379 896 CURVE SMOOTH",
"391 940 OFFCURVE",
"330 959 OFFCURVE",
"316 912 CURVE SMOOTH"
);
}
);
width = 598;
}
);
leftMetricsKey = O;
rightMetricsKey = O;
unicode = 00D3;
},
{
color = 4;
glyphname = P;
lastChange = "2016-08-31 22:33:05 +0200";
layers = (
{
associatedMasterId = "2B556C7D-ACF4-4058-9F01-0A4D9389EAED";
layerId = "05B79F99-E7C3-4285-BBB9-0E978522F7BD";
name = "Regular Aug 1 16, 12:42";
paths = (
{
closed = 1;
nodes = (
"301 548 OFFCURVE",
"216 81 OFFCURVE",
"234 5 CURVE SMOOTH",
"244 -39 OFFCURVE",
"290 -14 OFFCURVE",
"290 12 CURVE SMOOTH",
"290 38 OFFCURVE",
"343 433 OFFCURVE",
"409 651 CURVE SMOOTH",
"412 659 OFFCURVE",
"293 531 OFFCURVE",
"170 521 CURVE SMOOTH",
"160 520 OFFCURVE",
"127 531 OFFCURVE",
"131 579 CURVE SMOOTH",
"135 616 OFFCURVE",
"171 758 OFFCURVE",
"428 779 CURVE SMOOTH",
"501 785 OFFCURVE",
"646 749 OFFCURVE",
"700 658 CURVE SMOOTH",
"754 567 OFFCURVE",
"715 420 OFFCURVE",
"416 346 CURVE SMOOTH",
"405 343 OFFCURVE",
"896 411 OFFCURVE",
"896 419 CURVE SMOOTH",
"896 431 OFFCURVE",
"885 439 OFFCURVE",
"866 444 CURVE SMOOTH",
"751 469 OFFCURVE",
"348 362 OFFCURVE",
"363 344 CURVE SMOOTH",
"373 333 OFFCURVE",
"447 298 OFFCURVE",
"456 301 CURVE SMOOTH",
"787 402 OFFCURVE",
"821 587 OFFCURVE",
"756 692 CURVE SMOOTH",
"692 796 OFFCURVE",
"531 825 OFFCURVE",
"460 822 CURVE SMOOTH",
"151 810 OFFCURVE",
"78 639 OFFCURVE",
"74 584 CURVE SMOOTH",
"69 518 OFFCURVE",
"107 477 OFFCURVE",
"141 472 CURVE SMOOTH",
"299 447 OFFCURVE",
"453 621 OFFCURVE",
"441 656 CURVE SMOOTH",
"417 724 OFFCURVE",
"345 700 OFFCURVE",
"345 679 CURVE SMOOTH"
);
}
);
width = 950;
},
{
associatedMasterId = "2B556C7D-ACF4-4058-9F01-0A4D9389EAED";
layerId = "C56E7E94-A25C-4DA8-8745-065929B69A50";
name = "Regular Aug 1 16, 12:42 Aug 1 16, 12:54";
paths = (
{
closed = 1;
nodes = (
"301 548 OFFCURVE",
"216 81 OFFCURVE",
"234 5 CURVE SMOOTH",
"244 -39 OFFCURVE",
"290 -14 OFFCURVE",
"290 12 CURVE SMOOTH",
"290 38 OFFCURVE",
"343 433 OFFCURVE",
"409 651 CURVE SMOOTH",
"412 659 OFFCURVE",
"293 531 OFFCURVE",
"170 521 CURVE SMOOTH",
"160 520 OFFCURVE",
"127 531 OFFCURVE",
"131 579 CURVE SMOOTH",
"135 616 OFFCURVE",
"171 758 OFFCURVE",
"428 779 CURVE SMOOTH",
"501 785 OFFCURVE",
"646 749 OFFCURVE",
"700 658 CURVE SMOOTH",
"754 567 OFFCURVE",
"715 420 OFFCURVE",
"416 346 CURVE SMOOTH",
"405 343 OFFCURVE",
"631 402 OFFCURVE",
"956 288 CURVE SMOOTH",
"982 279 OFFCURVE",
"980 317 OFFCURVE",
"963 327 CURVE SMOOTH",
"715 470 OFFCURVE",
"348 362 OFFCURVE",
"363 344 CURVE SMOOTH",
"373 333 OFFCURVE",
"447 298 OFFCURVE",
"456 301 CURVE SMOOTH",
"787 402 OFFCURVE",
"821 587 OFFCURVE",
"756 692 CURVE SMOOTH",
"692 796 OFFCURVE",
"531 825 OFFCURVE",
"460 822 CURVE SMOOTH",
"151 810 OFFCURVE",
"78 639 OFFCURVE",
"74 584 CURVE SMOOTH",
"69 518 OFFCURVE",
"107 477 OFFCURVE",
"141 472 CURVE SMOOTH",
"299 447 OFFCURVE",
"453 621 OFFCURVE",
"441 656 CURVE SMOOTH",
"417 724 OFFCURVE",
"345 700 OFFCURVE",
"345 679 CURVE SMOOTH"
);
}
);
width = 950;
},
{
associatedMasterId = "2B556C7D-ACF4-4058-9F01-0A4D9389EAED";
layerId = "2FAE7B16-FDB2-4D2E-9F3F-7450543C25D5";
name = "Regular Aug 1 16, 12:42 Aug 1 16, 12:55";
paths = (
{
closed = 1;
nodes = (
"299 564 OFFCURVE",
"234 132 OFFCURVE",
"234 -21 CURVE SMOOTH",
"234 -65 OFFCURVE",
"292 -55 OFFCURVE",
"292 -14 CURVE SMOOTH",
"292 12 OFFCURVE",
"334 415 OFFCURVE",
"405 651 CURVE SMOOTH",
"407 659 OFFCURVE",
"296 534 OFFCURVE",
"171 522 CURVE SMOOTH",
"161 521 OFFCURVE",
"115 525 OFFCURVE",
"132 572 CURVE SMOOTH",
"209 779 OFFCURVE",
"600 855 OFFCURVE",
"700 658 CURVE SMOOTH",
"750 559 OFFCURVE",
"694 314 OFFCURVE",
"395 225 CURVE SMOOTH",
"384 222 OFFCURVE",
"669 286 OFFCURVE",
"844 300 CURVE SMOOTH",
"888 304 OFFCURVE",
"895 358 OFFCURVE",
"846 358 CURVE SMOOTH",
"645 358 OFFCURVE",
"334 245 OFFCURVE",
"342 223 CURVE SMOOTH",
"361 167 OFFCURVE",
"426 177 OFFCURVE",
"435 180 CURVE SMOOTH",
"766 290 OFFCURVE",
"836 563 OFFCURVE",
"756 692 CURVE SMOOTH",
"689 800 OFFCURVE",
"556 832 OFFCURVE",
"466 829 CURVE SMOOTH",
"159 819 OFFCURVE",
"71 613 OFFCURVE",
"67 558 CURVE SMOOTH",
"62 491 OFFCURVE",
"100 474 OFFCURVE",
"148 469 CURVE SMOOTH",
"298 453 OFFCURVE",
"438 605 OFFCURVE",
"438 650 CURVE SMOOTH",
"438 721 OFFCURVE",
"354 701 OFFCURVE",
"345 679 CURVE SMOOTH"
);
}
);
width = 844;
},
{
associatedMasterId = "2B556C7D-ACF4-4058-9F01-0A4D9389EAED";
layerId = "F61E234F-E140-46D0-BB5A-FFF9068E02A3";
name = "Regular Aug 1 16, 13:18";
paths = (
{
closed = 1;
nodes = (
"123 35 OFFCURVE",
"169 262 OFFCURVE",
"174 320 CURVE SMOOTH",
"176 342 OFFCURVE",
"188 339 OFFCURVE",
"193 333 CURVE SMOOTH",
"199 326 OFFCURVE",
"206 314 OFFCURVE",
"197 308 CURVE SMOOTH",
"188 302 OFFCURVE",
"120 255 OFFCURVE",
"88 269 CURVE SMOOTH",
"23 297 OFFCURVE",
"62 405 OFFCURVE",
"186 439 CURVE SMOOTH",
"307 472 OFFCURVE",
"431 435 OFFCURVE",
"460 351 CURVE SMOOTH",
"529 152 OFFCURVE",
"100 78 OFFCURVE",
"100 180 CURVE SMOOTH",
"100 239 OFFCURVE",
"289 281 OFFCURVE",
"478 172 CURVE SMOOTH",
"492 164 OFFCURVE",
"499 145 OFFCURVE",
"481 155 CURVE SMOOTH",
"287 259 OFFCURVE",
"111 223 OFFCURVE",
"111 178 CURVE SMOOTH",
"111 118 OFFCURVE",
"491 168 OFFCURVE",
"448 333 CURVE SMOOTH",
"417 451 OFFCURVE",
"151 476 OFFCURVE",
"78 329 CURVE SMOOTH",
"42 256 OFFCURVE",
"147 290 OFFCURVE",
"189 326 CURVE SMOOTH",
"189 326 OFFCURVE",
"196 321 OFFCURVE",
"196 318 CURVE SMOOTH",
"196 300 OFFCURVE",
"167 151 OFFCURVE",
"140 11 CURVE SMOOTH",
"137 -6 OFFCURVE",
"118 0 OFFCURVE",
"119 4 CURVE SMOOTH"
);
}
);
width = 475;
},
{
associatedMasterId = "2B556C7D-ACF4-4058-9F01-0A4D9389EAED";
layerId = "1DE9CED4-D852-4789-A157-34674F48C9BF";
name = "Regular Aug 1 16, 13:18";
paths = (
{
closed = 1;
nodes = (
"299 516 OFFCURVE",
"234 132 OFFCURVE",
"234 -21 CURVE SMOOTH",
"234 -65 OFFCURVE",
"292 -55 OFFCURVE",
"292 -14 CURVE SMOOTH",
"292 12 OFFCURVE",
"334 367 OFFCURVE",
"405 603 CURVE SMOOTH",
"407 611 OFFCURVE",
"299 465 OFFCURVE",
"173 461 CURVE SMOOTH",
"142 460 OFFCURVE",
"115 481 OFFCURVE",
"132 528 CURVE SMOOTH",
"209 735 OFFCURVE",
"600 807 OFFCURVE",
"700 610 CURVE SMOOTH",
"750 511 OFFCURVE",
"694 266 OFFCURVE",
"395 177 CURVE SMOOTH",
"384 174 OFFCURVE",
"653 238 OFFCURVE",
"828 252 CURVE SMOOTH",
"872 256 OFFCURVE",
"879 310 OFFCURVE",
"830 310 CURVE SMOOTH",
"629 310 OFFCURVE",
"334 197 OFFCURVE",
"342 175 CURVE SMOOTH",
"361 119 OFFCURVE",
"426 129 OFFCURVE",
"435 132 CURVE SMOOTH",
"766 242 OFFCURVE",
"836 515 OFFCURVE",
"756 644 CURVE SMOOTH",
"689 752 OFFCURVE",
"556 784 OFFCURVE",
"466 781 CURVE SMOOTH",
"159 771 OFFCURVE",
"71 569 OFFCURVE",
"67 514 CURVE SMOOTH",
"62 447 OFFCURVE",
"100 412 OFFCURVE",
"148 407 CURVE SMOOTH",
"298 391 OFFCURVE",
"438 557 OFFCURVE",
"438 602 CURVE SMOOTH",
"438 673 OFFCURVE",
"354 653 OFFCURVE",
"345 631 CURVE SMOOTH"
);
}
);
width = 844;
},
{
associatedMasterId = "2B556C7D-ACF4-4058-9F01-0A4D9389EAED";
layerId = "EDB4273C-5177-4AF4-8FFA-2B52E6AB8B69";
name = "Regular Aug 1 16, 13:20";
paths = (
{
closed = 1;
nodes = (
"299 516 OFFCURVE",
"234 132 OFFCURVE",
"234 -21 CURVE SMOOTH",
"234 -65 OFFCURVE",
"292 -55 OFFCURVE",
"292 -14 CURVE SMOOTH",
"292 12 OFFCURVE",
"334 367 OFFCURVE",
"405 603 CURVE SMOOTH",
"407 611 OFFCURVE",
"299 465 OFFCURVE",
"173 461 CURVE SMOOTH",
"142 460 OFFCURVE",
"115 481 OFFCURVE",
"132 528 CURVE SMOOTH",
"209 735 OFFCURVE",
"603 807 OFFCURVE",
"703 610 CURVE SMOOTH",
"753 511 OFFCURVE",
"695 291 OFFCURVE",
"396 189 CURVE SMOOTH",
"385 185 OFFCURVE",
"578 252 OFFCURVE",
"828 252 CURVE SMOOTH",
"872 252 OFFCURVE",
"879 311 OFFCURVE",
"830 310 CURVE SMOOTH",
"483 300 OFFCURVE",
"331 219 OFFCURVE",
"339 197 CURVE SMOOTH",
"358 141 OFFCURVE",
"423 151 OFFCURVE",
"432 154 CURVE SMOOTH",
"763 264 OFFCURVE",
"836 515 OFFCURVE",
"756 644 CURVE SMOOTH",
"689 752 OFFCURVE",
"556 784 OFFCURVE",
"466 781 CURVE SMOOTH",
"159 771 OFFCURVE",
"71 569 OFFCURVE",
"67 514 CURVE SMOOTH",
"62 447 OFFCURVE",
"100 412 OFFCURVE",
"148 407 CURVE SMOOTH",
"298 391 OFFCURVE",
"438 557 OFFCURVE",
"438 602 CURVE SMOOTH",
"438 673 OFFCURVE",
"354 653 OFFCURVE",
"345 631 CURVE SMOOTH"
);
}
);
width = 844;
},
{
associatedMasterId = "2B556C7D-ACF4-4058-9F01-0A4D9389EAED";
layerId = "D258462F-2A08-4F4D-95FD-BC6C6B59AFA5";
name = "Regular Aug 4 16, 17:33";
paths = (
{
closed = 1;
nodes = (
"299 516 OFFCURVE",
"234 132 OFFCURVE",
"234 -21 CURVE SMOOTH",
"234 -65 OFFCURVE",
"292 -55 OFFCURVE",
"292 -14 CURVE SMOOTH",
"292 12 OFFCURVE",
"334 367 OFFCURVE",
"405 603 CURVE SMOOTH",
"407 611 OFFCURVE",
"299 465 OFFCURVE",
"173 461 CURVE SMOOTH",
"142 460 OFFCURVE",
"115 481 OFFCURVE",
"132 528 CURVE SMOOTH",
"209 735 OFFCURVE",
"608 807 OFFCURVE",
"698 604 CURVE SMOOTH",
"748 491 OFFCURVE",
"682 282 OFFCURVE",
"401 198 CURVE SMOOTH",
"390 195 OFFCURVE",
"500 345 OFFCURVE",
"854 264 CURVE SMOOTH",
"898 254 OFFCURVE",
"905 311 OFFCURVE",
"856 322 CURVE SMOOTH",
"513 399 OFFCURVE",
"339 237 OFFCURVE",
"339 197 CURVE SMOOTH",
"339 144 OFFCURVE",
"398 139 OFFCURVE",
"432 148 CURVE SMOOTH",
"763 239 OFFCURVE",
"838 518 OFFCURVE",
"758 647 CURVE SMOOTH",
"691 755 OFFCURVE",
"572 790 OFFCURVE",
"468 787 CURVE SMOOTH",
"161 777 OFFCURVE",
"71 569 OFFCURVE",
"67 514 CURVE SMOOTH",
"62 447 OFFCURVE",
"100 412 OFFCURVE",
"148 407 CURVE SMOOTH",
"298 391 OFFCURVE",
"438 557 OFFCURVE",
"438 602 CURVE SMOOTH",
"438 673 OFFCURVE",
"354 653 OFFCURVE",
"345 631 CURVE SMOOTH"
);
}
);
width = 844;
},
{
associatedMasterId = "2B556C7D-ACF4-4058-9F01-0A4D9389EAED";
layerId = "C7C5AEFA-D8CA-48E4-9484-3D7D9382FA10";
name = "Regular Aug 4 16, 18:07";
paths = (
{
closed = 1;
nodes = (
"285 336 OFFCURVE",
"243 104 OFFCURVE",
"235 -14 CURVE SMOOTH",
"231 -60 OFFCURVE",
"294 -57 OFFCURVE",
"300 -14 CURVE SMOOTH",
"311 58 OFFCURVE",
"323 183 OFFCURVE",
"366 405 CURVE SMOOTH",
"366 407 OFFCURVE",
"236 251 OFFCURVE",
"51 261 CURVE SMOOTH",
"2 264 OFFCURVE",
"-79 316 OFFCURVE",
"-35 439 CURVE SMOOTH",
"55 694 OFFCURVE",
"457 833 OFFCURVE",
"586 658 CURVE SMOOTH",
"655 566 OFFCURVE",
"577 427 OFFCURVE",
"473 369 CURVE SMOOTH",
"427 343 OFFCURVE",
"460 300 OFFCURVE",
"505 320 CURVE SMOOTH",
"674 397 OFFCURVE",
"715 580 OFFCURVE",
"641 692 CURVE SMOOTH",
"556 821 OFFCURVE",
"348 810 OFFCURVE",
"239 770 CURVE SMOOTH",
"-138 632 OFFCURVE",
"-212 242 OFFCURVE",
"20 204 CURVE SMOOTH",
"187 177 OFFCURVE",
"390 298 OFFCURVE",
"391 383 CURVE SMOOTH",
"392 470 OFFCURVE",
"319 450 OFFCURVE",
"306 406 CURVE SMOOTH"
);
}
);
width = 646;
},
{
associatedMasterId = "2B556C7D-ACF4-4058-9F01-0A4D9389EAED";
layerId = "044AA697-A073-462B-A784-6045D5104B82";
name = "Regular Aug 4 16, 18:07 Aug 4 16, 18:11";
paths = (
{
closed = 1;
nodes = (
"248 336 OFFCURVE",
"211 104 OFFCURVE",
"203 -14 CURVE SMOOTH",
"199 -60 OFFCURVE",
"258 -57 OFFCURVE",
"264 -14 CURVE SMOOTH",
"275 58 OFFCURVE",
"286 183 OFFCURVE",
"329 405 CURVE SMOOTH",
"329 407 OFFCURVE",
"236 251 OFFCURVE",
"51 261 CURVE SMOOTH",
"-2 264 OFFCURVE",
"-85 317 OFFCURVE",
"-39 447 CURVE SMOOTH",
"41 672 OFFCURVE",
"402 772 OFFCURVE",
"515 619 CURVE SMOOTH",
"582 529 OFFCURVE",
"487 389 OFFCURVE",
"402 341 CURVE SMOOTH",
"355 315 OFFCURVE",
"390 270 OFFCURVE",
"434 292 CURVE SMOOTH",
"589 369 OFFCURVE",
"644 539 OFFCURVE",
"570 651 CURVE SMOOTH",
"485 780 OFFCURVE",
"289 766 OFFCURVE",
"180 726 CURVE SMOOTH",
"-182 594 OFFCURVE",
"-190 239 OFFCURVE",
"23 204 CURVE SMOOTH",
"190 177 OFFCURVE",
"353 298 OFFCURVE",
"354 383 CURVE SMOOTH",
"355 470 OFFCURVE",
"282 450 OFFCURVE",
"269 406 CURVE SMOOTH"
);
}
);
width = 646;
},
{
associatedMasterId = "2B556C7D-ACF4-4058-9F01-0A4D9389EAED";
layerId = "96A59D7C-D817-4B1C-B634-1F6580A00FB4";
name = "Regular Aug 4 16, 18:07 Aug 4 16, 18:11 Aug 4 16, 18:15";
paths = (
{
closed = 1;
nodes = (
"248 336 OFFCURVE",
"211 104 OFFCURVE",
"203 -14 CURVE SMOOTH",
"199 -60 OFFCURVE",
"258 -57 OFFCURVE",
"264 -14 CURVE SMOOTH",
"275 58 OFFCURVE",
"286 183 OFFCURVE",
"329 405 CURVE SMOOTH",
"329 407 OFFCURVE",
"236 251 OFFCURVE",
"51 261 CURVE SMOOTH",
"-2 264 OFFCURVE",
"-85 317 OFFCURVE",
"-39 447 CURVE SMOOTH",
"41 672 OFFCURVE",
"367 753 OFFCURVE",
"480 600 CURVE SMOOTH",
"547 510 OFFCURVE",
"452 370 OFFCURVE",
"367 322 CURVE SMOOTH",
"320 296 OFFCURVE",
"355 251 OFFCURVE",
"399 273 CURVE SMOOTH",
"554 350 OFFCURVE",
"609 520 OFFCURVE",
"535 632 CURVE SMOOTH",
"450 761 OFFCURVE",
"289 766 OFFCURVE",
"180 726 CURVE SMOOTH",
"-182 594 OFFCURVE",
"-190 239 OFFCURVE",
"23 204 CURVE SMOOTH",
"190 177 OFFCURVE",
"353 298 OFFCURVE",
"354 383 CURVE SMOOTH",
"355 470 OFFCURVE",
"282 450 OFFCURVE",
"269 406 CURVE SMOOTH"
);
}
);
width = 646;
},
{
associatedMasterId = "2B556C7D-ACF4-4058-9F01-0A4D9389EAED";
layerId = "B477EBED-8C4C-4A0B-B8D7-BF2E7DE86FFB";
name = "Regular Aug 4 16, 18:16";
paths = (
{
closed = 1;
nodes = (
"299 516 OFFCURVE",
"234 132 OFFCURVE",
"234 -21 CURVE SMOOTH",
"234 -65 OFFCURVE",
"292 -55 OFFCURVE",
"292 -14 CURVE SMOOTH",
"292 12 OFFCURVE",
"334 367 OFFCURVE",
"405 603 CURVE SMOOTH",
"407 611 OFFCURVE",
"299 465 OFFCURVE",
"173 461 CURVE SMOOTH",
"142 460 OFFCURVE",
"115 481 OFFCURVE",
"132 528 CURVE SMOOTH",
"209 735 OFFCURVE",
"603 807 OFFCURVE",
"703 610 CURVE SMOOTH",
"753 511 OFFCURVE",
"700 300 OFFCURVE",
"401 198 CURVE SMOOTH",
"390 194 OFFCURVE",
"500 345 OFFCURVE",
"854 264 CURVE SMOOTH",
"898 254 OFFCURVE",
"905 311 OFFCURVE",
"856 322 CURVE SMOOTH",
"513 399 OFFCURVE",
"325 234 OFFCURVE",
"339 197 CURVE SMOOTH",
"359 145 OFFCURVE",
"407 146 OFFCURVE",
"432 154 CURVE SMOOTH",
"766 261 OFFCURVE",
"836 515 OFFCURVE",
"756 644 CURVE SMOOTH",
"689 752 OFFCURVE",
"556 784 OFFCURVE",
"466 781 CURVE SMOOTH",
"159 771 OFFCURVE",
"71 569 OFFCURVE",
"67 514 CURVE SMOOTH",
"62 447 OFFCURVE",
"100 412 OFFCURVE",
"148 407 CURVE SMOOTH",
"298 391 OFFCURVE",
"438 557 OFFCURVE",
"438 602 CURVE SMOOTH",
"438 673 OFFCURVE",
"354 653 OFFCURVE",
"345 631 CURVE SMOOTH"
);
}
);
width = 844;
},
{
associatedMasterId = "2B556C7D-ACF4-4058-9F01-0A4D9389EAED";
layerId = "3D72E360-BFB2-4817-80E9-D0364575D11A";
name = "Regular Aug 23 16, 15:46";
paths = (
{
closed = 1;
nodes = (
"248 336 OFFCURVE",
"211 104 OFFCURVE",
"203 -14 CURVE SMOOTH",
"199 -60 OFFCURVE",
"258 -57 OFFCURVE",
"264 -14 CURVE SMOOTH",
"275 58 OFFCURVE",
"286 183 OFFCURVE",
"329 405 CURVE SMOOTH",
"329 407 OFFCURVE",
"189 222 OFFCURVE",
"4 232 CURVE SMOOTH",
"-49 235 OFFCURVE",
"-132 288 OFFCURVE",
"-86 418 CURVE SMOOTH",
"-3 654 OFFCURVE",
"394 777 OFFCURVE",
"511 619 CURVE SMOOTH",
"578 529 OFFCURVE",
"487 389 OFFCURVE",
"402 341 CURVE SMOOTH",
"355 315 OFFCURVE",
"390 270 OFFCURVE",
"434 292 CURVE SMOOTH",
"589 369 OFFCURVE",
"640 539 OFFCURVE",
"566 651 CURVE SMOOTH",
"481 780 OFFCURVE",
"283 766 OFFCURVE",
"174 726 CURVE SMOOTH",
"-222 582 OFFCURVE",
"-250 212 OFFCURVE",
"-24 175 CURVE SMOOTH",
"143 148 OFFCURVE",
"353 298 OFFCURVE",
"354 383 CURVE SMOOTH",
"355 470 OFFCURVE",
"282 450 OFFCURVE",
"269 406 CURVE SMOOTH"
);
}
);
width = 599;
},
{
layerId = "2B556C7D-ACF4-4058-9F01-0A4D9389EAED";
name = Regular;
paths = (
{
closed = 1;
nodes = (
"511 336 OFFCURVE",
"474 104 OFFCURVE",
"466 -14 CURVE SMOOTH",
"462 -62 OFFCURVE",
"524 -62 OFFCURVE",
"530 -17 CURVE SMOOTH",
"541 55 OFFCURVE",
"549 183 OFFCURVE",
"592 405 CURVE SMOOTH",
"592 363 OFFCURVE",
"423 229 OFFCURVE",
"262 239 CURVE SMOOTH",
"150 246 OFFCURVE",
"94 352 OFFCURVE",
"172 516 CURVE SMOOTH",
"237 652 OFFCURVE",
"358 747 OFFCURVE",
"488 787 CURVE SMOOTH",
"819 890 OFFCURVE",
"958 578 OFFCURVE",
"665 344 CURVE SMOOTH",
"622 310 OFFCURVE",
"661 261 OFFCURVE",
"702 289 CURVE SMOOTH",
"886 414 OFFCURVE",
"942 615 OFFCURVE",
"869 742 CURVE SMOOTH",
"750 948 OFFCURVE",
"428 883 OFFCURVE",
"252 734 CURVE SMOOTH",
"138 638 OFFCURVE",
"84 527 OFFCURVE",
"69 431 CURVE SMOOTH",
"45 256 OFFCURVE",
"136 157 OFFCURVE",
"318 178 CURVE SMOOTH",
"461 195 OFFCURVE",
"616 284 OFFCURVE",
"617 383 CURVE SMOOTH",
"618 470 OFFCURVE",
"545 450 OFFCURVE",
"532 406 CURVE SMOOTH"
);
}
);
width = 861;
}
);
unicode = 0050;
},
{
color = 4;
glyphname = Q;
lastChange = "2016-08-04 19:09:46 +0200";
layers = (
{
associatedMasterId = "2B556C7D-ACF4-4058-9F01-0A4D9389EAED";
layerId = "45F82A2A-D020-4714-9802-7236792F3340";
name = "Regular Aug 1 16, 13:31";
paths = (
{
closed = 1;
nodes = (
"660 378 OFFCURVE",
"665 440 OFFCURVE",
"614 414 CURVE SMOOTH",
"288 246 OFFCURVE",
"109 292 OFFCURVE",
"92 438 CURVE SMOOTH",
"74 590 OFFCURVE",
"219 782 OFFCURVE",
"326 746 CURVE SMOOTH",
"503 686 OFFCURVE",
"434 75 OFFCURVE",
"204 37 CURVE SMOOTH",
"73 15 OFFCURVE",
"49 191 OFFCURVE",
"101 392 CURVE SMOOTH",
"101 392 OFFCURVE",
"60 444 OFFCURVE",
"42 391 CURVE SMOOTH",
"-4 257 OFFCURVE",
"-24 -34 OFFCURVE",
"198 -20 CURVE SMOOTH",
"518 0 OFFCURVE",
"612 750 OFFCURVE",
"332 799 CURVE SMOOTH",
"168 828 OFFCURVE",
"25 631 OFFCURVE",
"28 461 CURVE SMOOTH",
"33 139 OFFCURVE",
"444 233 OFFCURVE",
"660 378 CURVE SMOOTH"
);
}
);
width = 600;
},
{
associatedMasterId = "2B556C7D-ACF4-4058-9F01-0A4D9389EAED";
layerId = "1D5A120A-4875-4174-9362-947EF7E2DE88";
name = "Regular Aug 1 16, 13:31 Aug 1 16, 13:31";
paths = (
{
closed = 1;
nodes = (
"489 -123 OFFCURVE",
"529 -75 OFFCURVE",
"472 -57 CURVE SMOOTH",
"217 23 OFFCURVE",
"124 288 OFFCURVE",
"135 481 CURVE SMOOTH",
"144 634 OFFCURVE",
"219 782 OFFCURVE",
"326 746 CURVE SMOOTH",
"503 686 OFFCURVE",
"434 75 OFFCURVE",
"204 37 CURVE SMOOTH",
"73 15 OFFCURVE",
"49 191 OFFCURVE",
"101 392 CURVE SMOOTH",
"101 392 OFFCURVE",
"60 444 OFFCURVE",
"42 391 CURVE SMOOTH",
"-4 257 OFFCURVE",
"-24 -34 OFFCURVE",
"198 -20 CURVE SMOOTH",
"518 0 OFFCURVE",
"612 750 OFFCURVE",
"332 799 CURVE SMOOTH",
"168 828 OFFCURVE",
"78 652 OFFCURVE",
"71 482 CURVE SMOOTH",
"54 89 OFFCURVE",
"315 -65 OFFCURVE",
"449 -110 CURVE SMOOTH"
);
}
);
width = 600;
},
{
associatedMasterId = "2B556C7D-ACF4-4058-9F01-0A4D9389EAED";
layerId = "AF4E9CB9-D249-4B77-87B9-12BA3CE3C749";
name = "Regular Aug 1 16, 13:31 Aug 1 16, 13:31 Aug 1 16, 13:34";
paths = (
{
closed = 1;
nodes = (
"500 -63 OFFCURVE",
"539 -15 OFFCURVE",
"482 2 CURVE SMOOTH",
"216 82 OFFCURVE",
"123 300 OFFCURVE",
"148 513 CURVE SMOOTH",
"163 643 OFFCURVE",
"219 783 OFFCURVE",
"326 746 CURVE SMOOTH",
"502 686 OFFCURVE",
"434 75 OFFCURVE",
"204 37 CURVE SMOOTH",
"73 15 OFFCURVE",
"49 203 OFFCURVE",
"101 392 CURVE SMOOTH",
"101 392 OFFCURVE",
"59 444 OFFCURVE",
"42 391 CURVE SMOOTH",
"-4 246 OFFCURVE",
"-24 -34 OFFCURVE",
"198 -20 CURVE SMOOTH",
"508 -1 OFFCURVE",
"603 744 OFFCURVE",
"332 799 CURVE SMOOTH",
"188 828 OFFCURVE",
"98 670 OFFCURVE",
"84 500 CURVE SMOOTH",
"54 140 OFFCURVE",
"310 -17 OFFCURVE",
"459 -53 CURVE SMOOTH"
);
}
);
width = 561;
},
{
associatedMasterId = "2B556C7D-ACF4-4058-9F01-0A4D9389EAED";
layerId = "D7CDC786-8904-4994-AFB1-83EBB9D17385";
name = "Regular Aug 1 16, 13:38";
paths = (
{
closed = 1;
nodes = (
"660 378 OFFCURVE",
"665 440 OFFCURVE",
"614 414 CURVE SMOOTH",
"288 246 OFFCURVE",
"109 292 OFFCURVE",
"92 438 CURVE SMOOTH",
"74 590 OFFCURVE",
"219 782 OFFCURVE",
"326 746 CURVE SMOOTH",
"503 686 OFFCURVE",
"434 75 OFFCURVE",
"204 37 CURVE SMOOTH",
"73 15 OFFCURVE",
"49 191 OFFCURVE",
"101 392 CURVE SMOOTH",
"101 392 OFFCURVE",
"60 444 OFFCURVE",
"42 391 CURVE SMOOTH",
"-4 257 OFFCURVE",
"-24 -34 OFFCURVE",
"198 -20 CURVE SMOOTH",
"518 0 OFFCURVE",
"612 750 OFFCURVE",
"332 799 CURVE SMOOTH",
"168 828 OFFCURVE",
"25 631 OFFCURVE",
"28 461 CURVE SMOOTH",
"33 139 OFFCURVE",
"444 233 OFFCURVE",
"660 378 CURVE SMOOTH"
);
}
);
width = 600;
},
{
associatedMasterId = "2B556C7D-ACF4-4058-9F01-0A4D9389EAED";
layerId = "DD45104A-CB29-4CC8-A564-D26319F3B5FF";
name = "Regular Aug 1 16, 13:39";
paths = (
{
closed = 1;
nodes = (
"500 -63 OFFCURVE",
"539 -15 OFFCURVE",
"482 2 CURVE SMOOTH",
"216 82 OFFCURVE",
"128 287 OFFCURVE",
"157 500 CURVE SMOOTH",
"172 609 OFFCURVE",
"219 776 OFFCURVE",
"326 746 CURVE SMOOTH",
"506 696 OFFCURVE",
"450 78 OFFCURVE",
"220 37 CURVE SMOOTH",
"98 15 OFFCURVE",
"60 187 OFFCURVE",
"112 392 CURVE SMOOTH",
"112 392 OFFCURVE",
"66 444 OFFCURVE",
"51 391 CURVE SMOOTH",
"5 233 OFFCURVE",
"5 -34 OFFCURVE",
"214 -20 CURVE SMOOTH",
"524 1 OFFCURVE",
"604 748 OFFCURVE",
"332 799 CURVE SMOOTH",
"177 828 OFFCURVE",
"105 657 OFFCURVE",
"91 487 CURVE SMOOTH",
"61 127 OFFCURVE",
"310 -17 OFFCURVE",
"459 -53 CURVE SMOOTH"
);
}
);
width = 561;
},
{
associatedMasterId = "2B556C7D-ACF4-4058-9F01-0A4D9389EAED";
layerId = "16A6F806-327B-4F48-93AF-426206B445FE";
name = "Regular Aug 4 16, 19:08";
paths = (
{
closed = 1;
nodes = (
"500 -57 OFFCURVE",
"539 -16 OFFCURVE",
"482 2 CURVE SMOOTH",
"233 82 OFFCURVE",
"157 238 OFFCURVE",
"157 469 CURVE SMOOTH",
"157 579 OFFCURVE",
"219 776 OFFCURVE",
"326 746 CURVE SMOOTH",
"506 696 OFFCURVE",
"450 78 OFFCURVE",
"220 37 CURVE SMOOTH",
"98 15 OFFCURVE",
"60 187 OFFCURVE",
"112 392 CURVE SMOOTH",
"112 392 OFFCURVE",
"66 444 OFFCURVE",
"51 391 CURVE SMOOTH",
"5 233 OFFCURVE",
"5 -34 OFFCURVE",
"214 -20 CURVE SMOOTH",
"524 1 OFFCURVE",
"604 748 OFFCURVE",
"332 799 CURVE SMOOTH",
"177 828 OFFCURVE",
"98 645 OFFCURVE",
"93 475 CURVE SMOOTH",
"83 98 OFFCURVE",
"310 -11 OFFCURVE",
"459 -47 CURVE SMOOTH"
);
}
);
width = 561;
},
{
associatedMasterId = "2B556C7D-ACF4-4058-9F01-0A4D9389EAED";
layerId = "490BA0A3-749D-46CB-93E0-3781CFF70672";
name = "Regular Aug 4 16, 19:09";
paths = (
{
closed = 1;
nodes = (
"414 -79 OFFCURVE",
"463 -42 OFFCURVE",
"417 -2 CURVE SMOOTH",
"329 76 OFFCURVE",
"211 214 OFFCURVE",
"190 510 CURVE SMOOTH",
"184 590 OFFCURVE",
"213 760 OFFCURVE",
"322 737 CURVE SMOOTH",
"492 701 OFFCURVE",
"456 88 OFFCURVE",
"220 40 CURVE SMOOTH",
"113 18 OFFCURVE",
"62 162 OFFCURVE",
"112 368 CURVE SMOOTH",
"130 444 OFFCURVE",
"61 426 OFFCURVE",
"51 391 CURVE SMOOTH",
"5 233 OFFCURVE",
"5 -34 OFFCURVE",
"214 -20 CURVE SMOOTH",
"516 1 OFFCURVE",
"594 741 OFFCURVE",
"337 795 CURVE SMOOTH",
"200 824 OFFCURVE",
"122 675 OFFCURVE",
"128 505 CURVE SMOOTH",
"139 198 OFFCURVE",
"300 19 OFFCURVE",
"366 -38 CURVE SMOOTH"
);
}
);
width = 561;
},
{
layerId = "2B556C7D-ACF4-4058-9F01-0A4D9389EAED";
name = Regular;
paths = (
{
closed = 1;
nodes = (
"414 -79 OFFCURVE",
"463 -42 OFFCURVE",
"417 -2 CURVE SMOOTH",
"329 76 OFFCURVE",
"209 163 OFFCURVE",
"188 452 CURVE SMOOTH",
"182 532 OFFCURVE",
"213 760 OFFCURVE",
"322 737 CURVE SMOOTH",
"492 701 OFFCURVE",
"456 88 OFFCURVE",
"220 40 CURVE SMOOTH",
"113 18 OFFCURVE",
"62 162 OFFCURVE",
"112 368 CURVE SMOOTH",
"130 444 OFFCURVE",
"65 426 OFFCURVE",
"55 391 CURVE SMOOTH",
"9 233 OFFCURVE",
"9 -34 OFFCURVE",
"218 -20 CURVE SMOOTH",
"520 1 OFFCURVE",
"594 741 OFFCURVE",
"337 795 CURVE SMOOTH",
"198 824 OFFCURVE",
"120 637 OFFCURVE",
"126 460 CURVE SMOOTH",
"137 153 OFFCURVE",
"300 19 OFFCURVE",
"366 -38 CURVE SMOOTH"
);
}
);
width = 561;
}
);
unicode = 0051;
},
{
color = 4;
glyphname = R;
lastChange = "2016-08-23 22:08:38 +0200";
layers = (
{
associatedMasterId = "2B556C7D-ACF4-4058-9F01-0A4D9389EAED";
layerId = "DF7FC301-CB0B-445D-A3BF-657D2DECD97F";
name = "Regular Aug 1 16, 13:48";
paths = (
{
closed = 1;
nodes = (
"370 849 OFFCURVE",
"89 715 OFFCURVE",
"44 663 CURVE SMOOTH",
"24 639 OFFCURVE",
"51 587 OFFCURVE",
"85 615 CURVE SMOOTH",
"180 693 OFFCURVE",
"396 776 OFFCURVE",
"434 681 CURVE SMOOTH",
"476 576 OFFCURVE",
"324 410 OFFCURVE",
"278 381 CURVE SMOOTH",
"227 349 OFFCURVE",
"231 350 OFFCURVE",
"246 315 CURVE SMOOTH",
"288 218 OFFCURVE",
"363 -15 OFFCURVE",
"480 -15 CURVE SMOOTH",
"590 -15 OFFCURVE",
"652 130 OFFCURVE",
"669 177 CURVE",
"686 224 OFFCURVE",
"646 263 OFFCURVE",
"611 186 CURVE SMOOTH",
"511 -34 OFFCURVE",
"472 31 OFFCURVE",
"400 148 CURVE SMOOTH",
"328 265 OFFCURVE",
"299 383 OFFCURVE",
"271 389 CURVE SMOOTH",
"203 404 OFFCURVE",
"196 288 OFFCURVE",
"226 298 CURVE SMOOTH",
"441 371 OFFCURVE",
"573 622 OFFCURVE",
"474 733 CURVE SMOOTH"
);
},
{
closed = 1;
nodes = (
"239 622 OFFCURVE",
"170 590 OFFCURVE",
"165 528 CURVE SMOOTH",
"163 538 OFFCURVE",
"126 117 OFFCURVE",
"73 60 CURVE SMOOTH",
"38 23 OFFCURVE",
"-20 143 OFFCURVE",
"-36 200 CURVE SMOOTH",
"-52 257 OFFCURVE",
"-107 225 OFFCURVE",
"-88 161 CURVE SMOOTH",
"-75 117 OFFCURVE",
"-30 15 OFFCURVE",
"37 -3 CURVE SMOOTH",
"66 -10 OFFCURVE",
"101 -3 OFFCURVE",
"132 37 CURVE SMOOTH",
"183 104 OFFCURVE",
"210 428 OFFCURVE",
"229 556 CURVE SMOOTH"
);
}
);
width = 600;
},
{
associatedMasterId = "2B556C7D-ACF4-4058-9F01-0A4D9389EAED";
layerId = "92192ABC-3049-4F15-8208-093CC0F5983F";
name = "Regular Aug 1 16, 13:48 Aug 1 16, 13:50";
paths = (
{
closed = 1;
nodes = (
"385 835 OFFCURVE",
"89 715 OFFCURVE",
"44 663 CURVE SMOOTH",
"24 639 OFFCURVE",
"48 591 OFFCURVE",
"85 615 CURVE SMOOTH",
"215 700 OFFCURVE",
"412 757 OFFCURVE",
"447 661 CURVE SMOOTH",
"489 545 OFFCURVE",
"324 325 OFFCURVE",
"278 296 CURVE SMOOTH",
"227 264 OFFCURVE",
"242 275 OFFCURVE",
"257 247 CURVE SMOOTH",
"310 147 OFFCURVE",
"377 -15 OFFCURVE",
"480 -15 CURVE SMOOTH",
"569 -15 OFFCURVE",
"628 120 OFFCURVE",
"645 188 CURVE",
"662 235 OFFCURVE",
"625 274 OFFCURVE",
"590 197 CURVE SMOOTH",
"545 97 OFFCURVE",
"513 51 OFFCURVE",
"484 51 CURVE SMOOTH",
"420 51 OFFCURVE",
"332 270 OFFCURVE",
"271 304 CURVE SMOOTH",
"210 338 OFFCURVE",
"196 203 OFFCURVE",
"226 213 CURVE SMOOTH",
"441 286 OFFCURVE",
"588 608 OFFCURVE",
"489 719 CURVE SMOOTH"
);
},
{
closed = 1;
nodes = (
"239 622 OFFCURVE",
"181 610 OFFCURVE",
"168 548 CURVE SMOOTH",
"158 500 OFFCURVE",
"126 117 OFFCURVE",
"73 60 CURVE SMOOTH",
"38 23 OFFCURVE",
"-20 143 OFFCURVE",
"-36 200 CURVE SMOOTH",
"-52 257 OFFCURVE",
"-107 225 OFFCURVE",
"-88 161 CURVE SMOOTH",
"-75 117 OFFCURVE",
"-30 15 OFFCURVE",
"37 -3 CURVE SMOOTH",
"66 -10 OFFCURVE",
"101 -3 OFFCURVE",
"132 37 CURVE SMOOTH",
"183 104 OFFCURVE",
"210 428 OFFCURVE",
"229 556 CURVE SMOOTH"
);
}
);
width = 600;
},
{
associatedMasterId = "2B556C7D-ACF4-4058-9F01-0A4D9389EAED";
layerId = "AA2F8D75-3650-410B-9ED1-70C972489F0C";
name = "Regular Aug 1 16, 13:53";
paths = (
{
closed = 1;
nodes = (
"370 778 OFFCURVE",
"100 644 OFFCURVE",
"44 592 CURVE SMOOTH",
"21 571 OFFCURVE",
"23 493 OFFCURVE",
"85 544 CURVE SMOOTH",
"181 622 OFFCURVE",
"398 703 OFFCURVE",
"440 610 CURVE SMOOTH",
"482 517 OFFCURVE",
"298 383 OFFCURVE",
"252 354 CURVE SMOOTH",
"201 322 OFFCURVE",
"205 330 OFFCURVE",
"220 295 CURVE SMOOTH",
"262 198 OFFCURVE",
"334 -46 OFFCURVE",
"480 -46 CURVE SMOOTH",
"590 -46 OFFCURVE",
"652 102 OFFCURVE",
"669 149 CURVE",
"686 196 OFFCURVE",
"649 234 OFFCURVE",
"611 158 CURVE SMOOTH",
"511 -41 OFFCURVE",
"459 0 OFFCURVE",
"387 117 CURVE SMOOTH",
"315 234 OFFCURVE",
"281 337 OFFCURVE",
"273 328 CURVE SMOOTH",
"265 319 OFFCURVE",
"231 296 OFFCURVE",
"261 307 CURVE SMOOTH",
"454 380 OFFCURVE",
"573 551 OFFCURVE",
"474 662 CURVE SMOOTH"
);
},
{
closed = 1;
nodes = (
"239 594 OFFCURVE",
"170 562 OFFCURVE",
"165 500 CURVE SMOOTH",
"163 510 OFFCURVE",
"126 82 OFFCURVE",
"73 25 CURVE SMOOTH",
"38 -12 OFFCURVE",
"-31 108 OFFCURVE",
"-47 165 CURVE SMOOTH",
"-63 222 OFFCURVE",
"-118 190 OFFCURVE",
"-99 126 CURVE SMOOTH",
"-86 82 OFFCURVE",
"-30 -20 OFFCURVE",
"37 -38 CURVE SMOOTH",
"66 -45 OFFCURVE",
"101 -38 OFFCURVE",
"132 2 CURVE SMOOTH",
"183 69 OFFCURVE",
"210 400 OFFCURVE",
"229 528 CURVE SMOOTH"
);
}
);
width = 600;
},
{
associatedMasterId = "2B556C7D-ACF4-4058-9F01-0A4D9389EAED";
layerId = "D6A85433-2A75-4CA0-B7CA-DD22F7527AFA";
name = "Regular Aug 4 16, 15:01";
paths = (
{
closed = 1;
nodes = (
"385 835 OFFCURVE",
"89 715 OFFCURVE",
"44 663 CURVE SMOOTH",
"24 639 OFFCURVE",
"48 591 OFFCURVE",
"85 615 CURVE SMOOTH",
"215 700 OFFCURVE",
"415 755 OFFCURVE",
"447 658 CURVE SMOOTH",
"489 531 OFFCURVE",
"355 316 OFFCURVE",
"270 244 CURVE SMOOTH",
"242 221 OFFCURVE",
"233 215 OFFCURVE",
"250 188 CURVE SMOOTH",
"303 105 OFFCURVE",
"377 -15 OFFCURVE",
"480 -15 CURVE SMOOTH",
"569 -15 OFFCURVE",
"628 120 OFFCURVE",
"645 188 CURVE",
"662 235 OFFCURVE",
"625 274 OFFCURVE",
"590 197 CURVE SMOOTH",
"545 97 OFFCURVE",
"513 51 OFFCURVE",
"484 51 CURVE SMOOTH",
"420 51 OFFCURVE",
"323 192 OFFCURVE",
"271 245 CURVE SMOOTH",
"221 295 OFFCURVE",
"196 144 OFFCURVE",
"226 154 CURVE SMOOTH",
"441 227 OFFCURVE",
"588 608 OFFCURVE",
"489 719 CURVE SMOOTH"
);
},
{
closed = 1;
nodes = (
"239 622 OFFCURVE",
"181 610 OFFCURVE",
"168 548 CURVE SMOOTH",
"158 500 OFFCURVE",
"126 117 OFFCURVE",
"73 60 CURVE SMOOTH",
"38 23 OFFCURVE",
"-20 143 OFFCURVE",
"-36 200 CURVE SMOOTH",
"-52 257 OFFCURVE",
"-107 225 OFFCURVE",
"-88 161 CURVE SMOOTH",
"-75 117 OFFCURVE",
"-30 15 OFFCURVE",
"37 -3 CURVE SMOOTH",
"66 -10 OFFCURVE",
"101 -3 OFFCURVE",
"132 37 CURVE SMOOTH",
"183 104 OFFCURVE",
"210 428 OFFCURVE",
"229 556 CURVE SMOOTH"
);
}
);
width = 600;
},
{
associatedMasterId = "2B556C7D-ACF4-4058-9F01-0A4D9389EAED";
layerId = "B5973992-03A4-4BA3-B60B-AA8DA9E3A922";
name = "Regular Aug 23 16, 22:08";
paths = (
{
closed = 1;
nodes = (
"385 835 OFFCURVE",
"91 709 OFFCURVE",
"46 657 CURVE SMOOTH",
"26 633 OFFCURVE",
"48 591 OFFCURVE",
"85 615 CURVE SMOOTH",
"215 700 OFFCURVE",
"415 755 OFFCURVE",
"447 658 CURVE SMOOTH",
"489 531 OFFCURVE",
"356 317 OFFCURVE",
"271 245 CURVE SMOOTH",
"243 222 OFFCURVE",
"230 216 OFFCURVE",
"245 188 CURVE SMOOTH",
"282 118 OFFCURVE",
"384 -23 OFFCURVE",
"480 -15 CURVE SMOOTH",
"569 -8 OFFCURVE",
"629 122 OFFCURVE",
"642 188 CURVE SMOOTH",
"646 210 OFFCURVE",
"614 245 OFFCURVE",
"592 197 CURVE SMOOTH",
"548 100 OFFCURVE",
"508 44 OFFCURVE",
"479 44 CURVE SMOOTH",
"415 44 OFFCURVE",
"323 192 OFFCURVE",
"271 245 CURVE SMOOTH",
"206 310 OFFCURVE",
"180 137 OFFCURVE",
"226 154 CURVE SMOOTH",
"441 235 OFFCURVE",
"588 608 OFFCURVE",
"489 719 CURVE SMOOTH"
);
},
{
closed = 1;
nodes = (
"234 600 OFFCURVE",
"178 596 OFFCURVE",
"168 548 CURVE SMOOTH",
"158 500 OFFCURVE",
"126 117 OFFCURVE",
"73 60 CURVE SMOOTH",
"38 23 OFFCURVE",
"-13 125 OFFCURVE",
"-36 188 CURVE SMOOTH",
"-52 233 OFFCURVE",
"-102 209 OFFCURVE",
"-88 161 CURVE SMOOTH",
"-75 117 OFFCURVE",
"-30 15 OFFCURVE",
"37 -3 CURVE SMOOTH",
"66 -10 OFFCURVE",
"108 -3 OFFCURVE",
"132 37 CURVE SMOOTH",
"176 110 OFFCURVE",
"219 426 OFFCURVE",
"229 545 CURVE SMOOTH"
);
}
);
width = 622;
},
{
layerId = "2B556C7D-ACF4-4058-9F01-0A4D9389EAED";
name = Regular;
paths = (
{
closed = 1;
nodes = (
"387 836 OFFCURVE",
"91 709 OFFCURVE",
"46 657 CURVE SMOOTH",
"22 629 OFFCURVE",
"41 582 OFFCURVE",
"85 611 CURVE SMOOTH",
"215 696 OFFCURVE",
"418 742 OFFCURVE",
"447 658 CURVE SMOOTH",
"495 521 OFFCURVE",
"362 321 OFFCURVE",
"277 249 CURVE SMOOTH",
"249 226 OFFCURVE",
"230 216 OFFCURVE",
"245 188 CURVE SMOOTH",
"282 118 OFFCURVE",
"384 -23 OFFCURVE",
"480 -15 CURVE SMOOTH",
"569 -8 OFFCURVE",
"640 119 OFFCURVE",
"653 185 CURVE SMOOTH",
"660 225 OFFCURVE",
"619 256 OFFCURVE",
"592 197 CURVE SMOOTH",
"548 100 OFFCURVE",
"508 53 OFFCURVE",
"479 53 CURVE SMOOTH",
"415 53 OFFCURVE",
"323 192 OFFCURVE",
"271 245 CURVE SMOOTH",
"271 245 OFFCURVE",
"233 161 OFFCURVE",
"277 184 CURVE SMOOTH",
"480 289 OFFCURVE",
"590 609 OFFCURVE",
"491 720 CURVE SMOOTH"
);
},
{
closed = 1;
nodes = (
"234 600 OFFCURVE",
"176 596 OFFCURVE",
"166 548 CURVE SMOOTH",
"156 500 OFFCURVE",
"126 120 OFFCURVE",
"73 63 CURVE SMOOTH",
"38 26 OFFCURVE",
"-7 125 OFFCURVE",
"-30 188 CURVE SMOOTH",
"-46 233 OFFCURVE",
"-102 209 OFFCURVE",
"-88 161 CURVE SMOOTH",
"-75 117 OFFCURVE",
"-30 15 OFFCURVE",
"37 -3 CURVE SMOOTH",
"66 -10 OFFCURVE",
"108 -3 OFFCURVE",
"132 37 CURVE SMOOTH",
"176 110 OFFCURVE",
"219 426 OFFCURVE",
"229 545 CURVE SMOOTH"
);
}
);
width = 622;
}
);
unicode = 0052;
},
{
color = 4;
glyphname = S;
lastChange = "2016-08-31 22:12:05 +0200";
layers = (
{
associatedMasterId = "2B556C7D-ACF4-4058-9F01-0A4D9389EAED";
layerId = "C03DD2E5-9288-4663-A1B7-91303881E419";
name = "Regular Aug 1 16, 14:29 Aug 1 16, 14:31";
paths = (
{
closed = 1;
nodes = (
"585 738 OFFCURVE",
"575 690 OFFCURVE",
"522 704 CURVE SMOOTH",
"480 715 OFFCURVE",
"369 755 OFFCURVE",
"331 622 CURVE SMOOTH",
"287 466 OFFCURVE",
"363 267 OFFCURVE",
"347 119 CURVE SMOOTH",
"328 -54 OFFCURVE",
"163 -50 OFFCURVE",
"105 3 CURVE SMOOTH",
"55 49 OFFCURVE",
"14 168 OFFCURVE",
"156 293 CURVE SMOOTH",
"288 409 OFFCURVE",
"528 428 OFFCURVE",
"636 402 CURVE SMOOTH",
"692 389 OFFCURVE",
"668 348 OFFCURVE",
"622 353 CURVE SMOOTH",
"531 362 OFFCURVE",
"359 354 OFFCURVE",
"236 278 CURVE SMOOTH",
"70 175 OFFCURVE",
"117 63 OFFCURVE",
"157 36 CURVE SMOOTH",
"199 8 OFFCURVE",
"292 31 OFFCURVE",
"282 194 CURVE SMOOTH",
"274 320 OFFCURVE",
"223 544 OFFCURVE",
"282 677 CURVE SMOOTH",
"344 816 OFFCURVE",
"502 776 OFFCURVE",
"539 759 CURVE SMOOTH"
);
}
);
width = 600;
},
{
associatedMasterId = "2B556C7D-ACF4-4058-9F01-0A4D9389EAED";
layerId = "3EF01BDD-CCAA-4D85-85AE-D2B168B7D315";
name = "Regular Aug 1 16, 14:29 Aug 1 16, 14:31 Aug 1 16, 14:32";
paths = (
{
closed = 1;
nodes = (
"94 396 OFFCURVE",
"59 443 OFFCURVE",
"99 471 CURVE SMOOTH",
"140 500 OFFCURVE",
"320 636 OFFCURVE",
"372 700 CURVE SMOOTH",
"385 716 OFFCURVE",
"434 727 OFFCURVE",
"419 676 CURVE SMOOTH",
"387 564 OFFCURVE",
"365 267 OFFCURVE",
"365 119 CURVE SMOOTH",
"365 -63 OFFCURVE",
"184 -59 OFFCURVE",
"123 -3 CURVE SMOOTH",
"73 43 OFFCURVE",
"69 148 OFFCURVE",
"156 227 CURVE SMOOTH",
"325 380 OFFCURVE",
"517 387 OFFCURVE",
"636 410 CURVE SMOOTH",
"694 421 OFFCURVE",
"668 379 OFFCURVE",
"622 361 CURVE SMOOTH",
"581 345 OFFCURVE",
"378 310 OFFCURVE",
"236 212 CURVE SMOOTH",
"139 145 OFFCURVE",
"135 57 OFFCURVE",
"175 30 CURVE SMOOTH",
"217 2 OFFCURVE",
"304 24 OFFCURVE",
"304 147 CURVE SMOOTH",
"304 284 OFFCURVE",
"315 661 OFFCURVE",
"395 734 CURVE SMOOTH",
"435 771 OFFCURVE",
"459 729 OFFCURVE",
"428 688 CURVE SMOOTH",
"373 615 OFFCURVE",
"161 454 OFFCURVE",
"116 415 CURVE SMOOTH"
);
}
);
width = 600;
},
{
associatedMasterId = "2B556C7D-ACF4-4058-9F01-0A4D9389EAED";
layerId = "1EAD1C5A-4273-4107-8AAD-12C9B854E977";
name = "Regular Aug 1 16, 14:29 Aug 1 16, 14:31 Aug 1 16, 14:32 Aug 1 16, 14:57";
paths = (
{
closed = 1;
nodes = (
"91 401 OFFCURVE",
"59 443 OFFCURVE",
"99 471 CURVE SMOOTH",
"140 500 OFFCURVE",
"322 636 OFFCURVE",
"374 700 CURVE SMOOTH",
"387 716 OFFCURVE",
"423 728 OFFCURVE",
"414 676 CURVE SMOOTH",
"378 462 OFFCURVE",
"378 322 OFFCURVE",
"365 155 CURVE SMOOTH",
"349 -47 OFFCURVE",
"184 -59 OFFCURVE",
"123 -3 CURVE SMOOTH",
"73 43 OFFCURVE",
"72 143 OFFCURVE",
"159 222 CURVE SMOOTH",
"307 356 OFFCURVE",
"583 410 OFFCURVE",
"636 419 CURVE SMOOTH",
"694 429 OFFCURVE",
"670 373 OFFCURVE",
"622 361 CURVE SMOOTH",
"559 345 OFFCURVE",
"378 310 OFFCURVE",
"236 212 CURVE SMOOTH",
"139 145 OFFCURVE",
"135 57 OFFCURVE",
"175 30 CURVE SMOOTH",
"223 -2 OFFCURVE",
"304 34 OFFCURVE",
"304 185 CURVE SMOOTH",
"304 291 OFFCURVE",
"322 668 OFFCURVE",
"395 734 CURVE SMOOTH",
"435 771 OFFCURVE",
"459 722 OFFCURVE",
"428 681 CURVE SMOOTH",
"353 581 OFFCURVE",
"182 455 OFFCURVE",
"116 416 CURVE SMOOTH"
);
}
);
width = 600;
},
{
associatedMasterId = "2B556C7D-ACF4-4058-9F01-0A4D9389EAED";
layerId = "3984B34B-B0C9-449C-AC92-3C413CEDF3E6";
name = "Regular Aug 4 16, 15:39";
paths = (
{
closed = 1;
nodes = (
"490 743 OFFCURVE",
"490 689 OFFCURVE",
"433 700 CURVE SMOOTH",
"373 712 OFFCURVE",
"295 687 OFFCURVE",
"270 623 CURVE SMOOTH",
"216 484 OFFCURVE",
"385 295 OFFCURVE",
"370 147 CURVE SMOOTH",
"351 -46 OFFCURVE",
"179 -58 OFFCURVE",
"103 -17 CURVE SMOOTH",
"12 32 OFFCURVE",
"56 180 OFFCURVE",
"158 256 CURVE SMOOTH",
"235 313 OFFCURVE",
"346 399 OFFCURVE",
"567 419 CURVE SMOOTH",
"624 424 OFFCURVE",
"636 373 OFFCURVE",
"591 368 CURVE SMOOTH",
"494 358 OFFCURVE",
"339 329 OFFCURVE",
"211 226 CURVE SMOOTH",
"108 143 OFFCURVE",
"93 34 OFFCURVE",
"159 22 CURVE SMOOTH",
"212 12 OFFCURVE",
"329 42 OFFCURVE",
"293 218 CURVE SMOOTH",
"268 342 OFFCURVE",
"152 491 OFFCURVE",
"210 644 CURVE SMOOTH",
"262 781 OFFCURVE",
"415 762 OFFCURVE",
"450 753 CURVE SMOOTH"
);
}
);
width = 537;
},
{
associatedMasterId = "2B556C7D-ACF4-4058-9F01-0A4D9389EAED";
layerId = "02714AD0-78B6-4886-9D5D-19AFBB845DA0";
name = "Regular Aug 30 16, 20:10";
paths = (
{
closed = 1;
nodes = (
"499 701 OFFCURVE",
"493 649 OFFCURVE",
"452 658 CURVE SMOOTH",
"365 678 OFFCURVE",
"303 668 OFFCURVE",
"278 604 CURVE SMOOTH",
"224 465 OFFCURVE",
"371 319 OFFCURVE",
"371 145 CURVE SMOOTH",
"371 -24 OFFCURVE",
"214 -60 OFFCURVE",
"138 -24 CURVE SMOOTH",
"36 24 OFFCURVE",
"42 185 OFFCURVE",
"156 274 CURVE SMOOTH",
"224 327 OFFCURVE",
"307 362 OFFCURVE",
"492 376 CURVE SMOOTH",
"549 380 OFFCURVE",
"544 317 OFFCURVE",
"499 314 CURVE SMOOTH",
"411 309 OFFCURVE",
"301 302 OFFCURVE",
"205 229 CURVE SMOOTH",
"106 154 OFFCURVE",
"122 36 OFFCURVE",
"188 24 CURVE SMOOTH",
"241 14 OFFCURVE",
"324 57 OFFCURVE",
"296 202 CURVE SMOOTH",
"272 327 OFFCURVE",
"161 472 OFFCURVE",
"212 625 CURVE SMOOTH",
"258 762 OFFCURVE",
"420 740 OFFCURVE",
"468 716 CURVE SMOOTH"
);
}
);
width = 487;
},
{
associatedMasterId = "2B556C7D-ACF4-4058-9F01-0A4D9389EAED";
layerId = "6653C1B2-795C-4DFC-8D51-698930B637E6";
name = "Regular Aug 31 16, 22:02";
paths = (
{
closed = 1;
nodes = (
"332 22 CURVE SMOOTH",
"282 -31 OFFCURVE",
"208 -47 OFFCURVE",
"151 -26 CURVE SMOOTH",
"84 -2 OFFCURVE",
"57 68 OFFCURVE",
"73 140 CURVE SMOOTH",
"102 267 OFFCURVE",
"264 372 OFFCURVE",
"510 403 CURVE SMOOTH",
"562 410 OFFCURVE",
"556 348 OFFCURVE",
"517 345 CURVE SMOOTH",
"382 336 OFFCURVE",
"158 253 OFFCURVE",
"135 120 CURVE SMOOTH",
"127 74 OFFCURVE",
"149 36 OFFCURVE",
"188 29 CURVE SMOOTH",
"255 17 OFFCURVE",
"336 95 OFFCURVE",
"308 166 CURVE SMOOTH",
"276 247 OFFCURVE",
"138 289 OFFCURVE",
"73 370 CURVE SMOOTH",
"-49 521 OFFCURVE",
"80 851 OFFCURVE",
"301 903 CURVE SMOOTH",
"485 946 OFFCURVE",
"543 763 OFFCURVE",
"509 618 CURVE SMOOTH",
"500 580 OFFCURVE",
"436 574 OFFCURVE",
"443 629 CURVE SMOOTH",
"458 746 OFFCURVE",
"434 854 OFFCURVE",
"336 843 CURVE SMOOTH",
"149 822 OFFCURVE",
"44 518 OFFCURVE",
"136 402 CURVE SMOOTH",
"181 346 OFFCURVE",
"277 308 OFFCURVE",
"334 245 CURVE SMOOTH",
"387 184 OFFCURVE",
"395 87 OFFCURVE"
);
}
);
width = 487;
},
{
associatedMasterId = "2B556C7D-ACF4-4058-9F01-0A4D9389EAED";
layerId = "EB011582-192A-4845-83AD-36BA89833A7D";
name = "Regular Aug 31 16, 22:03";
paths = (
{
closed = 1;
nodes = (
"332 22 CURVE SMOOTH",
"282 -31 OFFCURVE",
"208 -47 OFFCURVE",
"151 -26 CURVE SMOOTH",
"84 -2 OFFCURVE",
"57 68 OFFCURVE",
"73 140 CURVE SMOOTH",
"102 267 OFFCURVE",
"264 372 OFFCURVE",
"510 403 CURVE SMOOTH",
"562 410 OFFCURVE",
"556 348 OFFCURVE",
"517 345 CURVE SMOOTH",
"382 336 OFFCURVE",
"158 253 OFFCURVE",
"135 120 CURVE SMOOTH",
"127 74 OFFCURVE",
"149 36 OFFCURVE",
"188 29 CURVE SMOOTH",
"255 17 OFFCURVE",
"330 91 OFFCURVE",
"308 166 CURVE SMOOTH",
"272 288 OFFCURVE",
"-16 333 OFFCURVE",
"-1 563 CURVE SMOOTH",
"7 692 OFFCURVE",
"118 808 OFFCURVE",
"264 814 CURVE SMOOTH",
"466 822 OFFCURVE",
"524 613 OFFCURVE",
"393 462 CURVE SMOOTH",
"364 429 OFFCURVE",
"307 451 OFFCURVE",
"341 498 CURVE SMOOTH",
"446 643 OFFCURVE",
"381 752 OFFCURVE",
"278 752 CURVE SMOOTH",
"166 752 OFFCURVE",
"80 667 OFFCURVE",
"71 567 CURVE SMOOTH",
"57 409 OFFCURVE",
"231 367 OFFCURVE",
"344 242 CURVE SMOOTH",
"397 181 OFFCURVE",
"395 87 OFFCURVE"
);
}
);
width = 487;
},
{
layerId = "2B556C7D-ACF4-4058-9F01-0A4D9389EAED";
name = Regular;
paths = (
{
closed = 1;
nodes = (
"399 183 OFFCURVE",
"395 87 OFFCURVE",
"332 22 CURVE SMOOTH",
"282 -31 OFFCURVE",
"208 -47 OFFCURVE",
"151 -26 CURVE SMOOTH",
"84 -2 OFFCURVE",
"57 68 OFFCURVE",
"73 140 CURVE SMOOTH",
"102 267 OFFCURVE",
"264 372 OFFCURVE",
"510 403 CURVE SMOOTH",
"562 410 OFFCURVE",
"556 348 OFFCURVE",
"517 345 CURVE SMOOTH",
"382 336 OFFCURVE",
"158 253 OFFCURVE",
"135 120 CURVE SMOOTH",
"127 74 OFFCURVE",
"149 36 OFFCURVE",
"188 29 CURVE SMOOTH",
"255 17 OFFCURVE",
"330 91 OFFCURVE",
"308 166 CURVE SMOOTH",
"272 288 OFFCURVE",
"-16 281 OFFCURVE",
"-1 511 CURVE SMOOTH",
"7 640 OFFCURVE",
"118 756 OFFCURVE",
"264 762 CURVE SMOOTH",
"466 770 OFFCURVE",
"524 597 OFFCURVE",
"393 446 CURVE SMOOTH",
"364 413 OFFCURVE",
"307 435 OFFCURVE",
"341 482 CURVE SMOOTH",
"446 627 OFFCURVE",
"381 700 OFFCURVE",
"278 700 CURVE SMOOTH",
"166 700 OFFCURVE",
"77 616 OFFCURVE",
"68 516 CURVE SMOOTH",
"54 358 OFFCURVE",
"229 353 OFFCURVE",
"342 240 CURVE SMOOTH"
);
}
);
width = 487;
}
);
unicode = 0053;
},
{
color = 4;
glyphname = Sacute;
lastChange = "2016-08-31 22:12:19 +0200";
layers = (
{
associatedMasterId = "2B556C7D-ACF4-4058-9F01-0A4D9389EAED";
layerId = "A369F6E5-DCF9-46A9-B2F5-0C6C9C24E43E";
name = "Regular Aug 5 16, 12:15";
paths = (
{
closed = 1;
nodes = (
"499 701 OFFCURVE",
"493 649 OFFCURVE",
"452 658 CURVE SMOOTH",
"365 678 OFFCURVE",
"303 668 OFFCURVE",
"278 604 CURVE SMOOTH",
"224 465 OFFCURVE",
"371 319 OFFCURVE",
"371 145 CURVE SMOOTH",
"371 -24 OFFCURVE",
"214 -60 OFFCURVE",
"138 -24 CURVE SMOOTH",
"36 24 OFFCURVE",
"42 185 OFFCURVE",
"156 274 CURVE SMOOTH",
"224 327 OFFCURVE",
"307 362 OFFCURVE",
"492 376 CURVE SMOOTH",
"549 380 OFFCURVE",
"544 317 OFFCURVE",
"499 314 CURVE SMOOTH",
"411 309 OFFCURVE",
"301 302 OFFCURVE",
"205 229 CURVE SMOOTH",
"106 154 OFFCURVE",
"122 36 OFFCURVE",
"188 24 CURVE SMOOTH",
"241 14 OFFCURVE",
"324 57 OFFCURVE",
"296 202 CURVE SMOOTH",
"272 327 OFFCURVE",
"161 472 OFFCURVE",
"212 625 CURVE SMOOTH",
"258 762 OFFCURVE",
"420 740 OFFCURVE",
"468 716 CURVE SMOOTH"
);
},
{
closed = 1;
nodes = (
"365 909 OFFCURVE",
"351 844 OFFCURVE",
"342 807 CURVE SMOOTH",
"331 763 OFFCURVE",
"387 750 OFFCURVE",
"400 791 CURVE SMOOTH",
"417 846 OFFCURVE",
"430 895 OFFCURVE",
"439 929 CURVE SMOOTH",
"451 973 OFFCURVE",
"390 992 OFFCURVE",
"376 945 CURVE SMOOTH"
);
}
);
width = 487;
},
{
associatedMasterId = "2B556C7D-ACF4-4058-9F01-0A4D9389EAED";
layerId = "08E2BF14-1F33-4693-BC60-1A64F0E7D37E";
name = "Regular Aug 31 16, 21:04";
paths = (
{
closed = 1;
nodes = (
"499 635 OFFCURVE",
"492 582 OFFCURVE",
"452 592 CURVE SMOOTH",
"375 612 OFFCURVE",
"318 613 OFFCURVE",
"284 547 CURVE SMOOTH",
"217 418 OFFCURVE",
"372 319 OFFCURVE",
"372 145 CURVE SMOOTH",
"372 -24 OFFCURVE",
"214 -60 OFFCURVE",
"138 -24 CURVE SMOOTH",
"36 24 OFFCURVE",
"42 185 OFFCURVE",
"156 274 CURVE SMOOTH",
"224 327 OFFCURVE",
"307 362 OFFCURVE",
"492 376 CURVE SMOOTH",
"549 380 OFFCURVE",
"544 317 OFFCURVE",
"499 314 CURVE SMOOTH",
"411 309 OFFCURVE",
"301 302 OFFCURVE",
"205 229 CURVE SMOOTH",
"106 154 OFFCURVE",
"122 36 OFFCURVE",
"188 24 CURVE SMOOTH",
"241 14 OFFCURVE",
"324 53 OFFCURVE",
"296 198 CURVE SMOOTH",
"272 323 OFFCURVE",
"164 404 OFFCURVE",
"215 557 CURVE SMOOTH",
"261 695 OFFCURVE",
"420 674 OFFCURVE",
"468 650 CURVE SMOOTH"
);
},
{
closed = 1;
nodes = (
"368 852 OFFCURVE",
"354 787 OFFCURVE",
"345 750 CURVE SMOOTH",
"334 706 OFFCURVE",
"390 693 OFFCURVE",
"403 734 CURVE SMOOTH",
"420 789 OFFCURVE",
"433 838 OFFCURVE",
"442 872 CURVE SMOOTH",
"454 916 OFFCURVE",
"393 935 OFFCURVE",
"379 888 CURVE SMOOTH"
);
}
);
width = 487;
},
{
associatedMasterId = "2B556C7D-ACF4-4058-9F01-0A4D9389EAED";
layerId = "C77FB955-A269-40CC-8A1D-F888F1133FDE";
name = "Regular Aug 31 16, 22:03";
paths = (
{
closed = 1;
nodes = (
"287 960 OFFCURVE",
"273 895 OFFCURVE",
"264 858 CURVE SMOOTH",
"253 814 OFFCURVE",
"309 801 OFFCURVE",
"322 842 CURVE SMOOTH",
"339 897 OFFCURVE",
"352 946 OFFCURVE",
"361 980 CURVE SMOOTH",
"373 1024 OFFCURVE",
"312 1043 OFFCURVE",
"298 996 CURVE SMOOTH"
);
},
{
closed = 1;
nodes = (
"387 184 OFFCURVE",
"395 87 OFFCURVE",
"332 22 CURVE SMOOTH",
"282 -31 OFFCURVE",
"208 -47 OFFCURVE",
"151 -26 CURVE SMOOTH",
"84 -2 OFFCURVE",
"57 68 OFFCURVE",
"73 140 CURVE SMOOTH",
"102 267 OFFCURVE",
"264 372 OFFCURVE",
"510 403 CURVE SMOOTH",
"562 410 OFFCURVE",
"556 348 OFFCURVE",
"517 345 CURVE SMOOTH",
"382 336 OFFCURVE",
"158 253 OFFCURVE",
"135 120 CURVE SMOOTH",
"127 74 OFFCURVE",
"149 36 OFFCURVE",
"188 29 CURVE SMOOTH",
"255 17 OFFCURVE",
"336 95 OFFCURVE",
"308 166 CURVE SMOOTH",
"276 247 OFFCURVE",
"149 279 OFFCURVE",
"84 360 CURVE SMOOTH",
"-38 511 OFFCURVE",
"79 744 OFFCURVE",
"268 774 CURVE SMOOTH",
"455 804 OFFCURVE",
"510 634 OFFCURVE",
"476 489 CURVE SMOOTH",
"467 451 OFFCURVE",
"403 445 OFFCURVE",
"410 500 CURVE SMOOTH",
"425 616 OFFCURVE",
"400 725 OFFCURVE",
"294 713 CURVE SMOOTH",
"126 694 OFFCURVE",
"55 501 OFFCURVE",
"147 385 CURVE SMOOTH",
"192 329 OFFCURVE",
"277 308 OFFCURVE",
"334 245 CURVE SMOOTH"
);
}
);
width = 487;
},
{
layerId = "2B556C7D-ACF4-4058-9F01-0A4D9389EAED";
name = Regular;
paths = (
{
closed = 1;
nodes = (
"287 960 OFFCURVE",
"273 895 OFFCURVE",
"264 858 CURVE SMOOTH",
"253 814 OFFCURVE",
"309 801 OFFCURVE",
"322 842 CURVE SMOOTH",
"339 897 OFFCURVE",
"352 946 OFFCURVE",
"361 980 CURVE SMOOTH",
"373 1024 OFFCURVE",
"312 1043 OFFCURVE",
"298 996 CURVE SMOOTH"
);
},
{
closed = 1;
nodes = (
"399 183 OFFCURVE",
"395 87 OFFCURVE",
"332 22 CURVE SMOOTH",
"282 -31 OFFCURVE",
"208 -47 OFFCURVE",
"151 -26 CURVE SMOOTH",
"84 -2 OFFCURVE",
"57 68 OFFCURVE",
"73 140 CURVE SMOOTH",
"102 267 OFFCURVE",
"264 372 OFFCURVE",
"510 403 CURVE SMOOTH",
"562 410 OFFCURVE",
"556 348 OFFCURVE",
"517 345 CURVE SMOOTH",
"382 336 OFFCURVE",
"158 253 OFFCURVE",
"135 120 CURVE SMOOTH",
"127 74 OFFCURVE",
"149 36 OFFCURVE",
"188 29 CURVE SMOOTH",
"255 17 OFFCURVE",
"330 91 OFFCURVE",
"308 166 CURVE SMOOTH",
"272 288 OFFCURVE",
"-16 281 OFFCURVE",
"-1 511 CURVE SMOOTH",
"7 640 OFFCURVE",
"118 756 OFFCURVE",
"264 762 CURVE SMOOTH",
"466 770 OFFCURVE",
"524 597 OFFCURVE",
"393 446 CURVE SMOOTH",
"364 413 OFFCURVE",
"307 435 OFFCURVE",
"341 482 CURVE SMOOTH",
"446 627 OFFCURVE",
"381 700 OFFCURVE",
"278 700 CURVE SMOOTH",
"166 700 OFFCURVE",
"77 616 OFFCURVE",
"68 516 CURVE SMOOTH",
"54 358 OFFCURVE",
"229 353 OFFCURVE",
"342 240 CURVE SMOOTH"
);
}
);
width = 487;
}
);
leftMetricsKey = S;
rightMetricsKey = S;
unicode = 015A;
},
{
color = 4;
glyphname = T;
lastChange = "2016-08-19 22:13:02 +0200";
layers = (
{
associatedMasterId = "2B556C7D-ACF4-4058-9F01-0A4D9389EAED";
layerId = "3CF6BFD5-C2C2-4C40-8EBD-52C077E50CEF";
name = "Regular Aug 1 16, 16:41";
paths = (
{
closed = 1;
nodes = (
"278 537 OFFCURVE",
"85 494 OFFCURVE",
"88 601 CURVE SMOOTH",
"93 764 OFFCURVE",
"421 636 OFFCURVE",
"741 636 CURVE SMOOTH",
"837 636 OFFCURVE",
"833 705 OFFCURVE",
"776 724 CURVE SMOOTH",
"730 739 OFFCURVE",
"544 747 OFFCURVE",
"498 655 CURVE SMOOTH",
"436 532 OFFCURVE",
"365 100 OFFCURVE",
"289 88 CURVE SMOOTH",
"221 77 OFFCURVE",
"234 222 OFFCURVE",
"248 271 CURVE SMOOTH",
"264 326 OFFCURVE",
"210 326 OFFCURVE",
"191 285 CURVE SMOOTH",
"172 244 OFFCURVE",
"135 77 OFFCURVE",
"237 39 CURVE SMOOTH",
"272 26 OFFCURVE",
"329 40 OFFCURVE",
"357 61 CURVE SMOOTH",
"456 135 OFFCURVE",
"494 514 OFFCURVE",
"567 645 CURVE SMOOTH",
"594 693 OFFCURVE",
"725 676 OFFCURVE",
"746 688 CURVE SMOOTH",
"765 699 OFFCURVE",
"641 684 OFFCURVE",
"457 712 CURVE SMOOTH",
"327 731 OFFCURVE",
"164 764 OFFCURVE",
"81 698 CURVE SMOOTH",
"-2 635 OFFCURVE",
"11 509 OFFCURVE",
"123 484 CURVE SMOOTH",
"203 466 OFFCURVE",
"309 489 OFFCURVE",
"317 491 CURVE SMOOTH",
"381 510 OFFCURVE",
"362 560 OFFCURVE",
"315 547 CURVE SMOOTH"
);
}
);
width = 600;
},
{
associatedMasterId = "2B556C7D-ACF4-4058-9F01-0A4D9389EAED";
layerId = "890D34A8-4EC9-4B83-A6C0-245352EDEBCE";
name = "Regular Aug 4 16, 15:39";
paths = (
{
closed = 1;
nodes = (
"66 668 OFFCURVE",
"137 641 CURVE SMOOTH",
"220 609 OFFCURVE",
"479 555 OFFCURVE",
"692 617 CURVE SMOOTH",
"793 646 OFFCURVE",
"787 747 OFFCURVE",
"736 769 CURVE SMOOTH",
"664 800 OFFCURVE",
"555 768 OFFCURVE",
"480 648 CURVE SMOOTH",
"397 515 OFFCURVE",
"404 107 OFFCURVE",
"365 44 CURVE SMOOTH",
"338 0 OFFCURVE",
"267 77 OFFCURVE",
"309 202 CURVE SMOOTH",
"327 255 OFFCURVE",
"271 255 OFFCURVE",
"252 214 CURVE SMOOTH",
"221 147 OFFCURVE",
"224 28 OFFCURVE",
"282 -11 CURVE SMOOTH",
"359 -61 OFFCURVE",
"418 -1 OFFCURVE",
"437 56 CURVE SMOOTH",
"478 180 OFFCURVE",
"479 549 OFFCURVE",
"559 638 CURVE SMOOTH",
"575 656 OFFCURVE",
"612 695 OFFCURVE",
"642 707 CURVE SMOOTH",
"688 726 OFFCURVE",
"722 732 OFFCURVE",
"709 700 CURVE SMOOTH",
"694 664 OFFCURVE",
"491 611 OFFCURVE",
"172 711 CURVE SMOOTH",
"106 732 OFFCURVE"
);
}
);
width = 600;
},
{
associatedMasterId = "2B556C7D-ACF4-4058-9F01-0A4D9389EAED";
layerId = "AB95A729-56C7-4757-9635-FF05E93D48C8";
name = "Regular Aug 4 16, 15:39 Aug 4 16, 15:52";
paths = (
{
closed = 1;
nodes = (
"106 727 OFFCURVE",
"66 668 OFFCURVE",
"137 641 CURVE SMOOTH",
"220 609 OFFCURVE",
"479 555 OFFCURVE",
"692 617 CURVE SMOOTH",
"793 646 OFFCURVE",
"787 747 OFFCURVE",
"736 769 CURVE SMOOTH",
"664 800 OFFCURVE",
"555 768 OFFCURVE",
"480 648 CURVE SMOOTH",
"397 515 OFFCURVE",
"350 116 OFFCURVE",
"363 43 CURVE SMOOTH",
"372 -7 OFFCURVE",
"437 -31 OFFCURVE",
"437 51 CURVE SMOOTH",
"437 159 OFFCURVE",
"479 549 OFFCURVE",
"559 638 CURVE SMOOTH",
"575 656 OFFCURVE",
"612 695 OFFCURVE",
"642 707 CURVE SMOOTH",
"688 726 OFFCURVE",
"722 732 OFFCURVE",
"709 700 CURVE SMOOTH",
"694 664 OFFCURVE",
"491 606 OFFCURVE",
"172 706 CURVE SMOOTH"
);
}
);
width = 600;
},
{
associatedMasterId = "2B556C7D-ACF4-4058-9F01-0A4D9389EAED";
layerId = "CBD2E372-964A-4D89-9E98-7D2A2840259B";
name = "Regular Aug 4 16, 15:39 Aug 4 16, 15:52 Aug 4 16, 15:53";
paths = (
{
closed = 1;
nodes = (
"12 717 OFFCURVE",
"-24 663 OFFCURVE",
"33 641 CURVE SMOOTH",
"116 609 OFFCURVE",
"375 555 OFFCURVE",
"588 617 CURVE SMOOTH",
"699 649 OFFCURVE",
"683 739 OFFCURVE",
"633 768 CURVE SMOOTH",
"601 786 OFFCURVE",
"541 792 OFFCURVE",
"480 770 CURVE SMOOTH",
"363 728 OFFCURVE",
"281 636 OFFCURVE",
"229 499 CURVE SMOOTH",
"169 340 OFFCURVE",
"148 130 OFFCURVE",
"143 13 CURVE SMOOTH",
"141 -26 OFFCURVE",
"205 -46 OFFCURVE",
"211 19 CURVE SMOOTH",
"239 312 OFFCURVE",
"283 686 OFFCURVE",
"534 720 CURVE SMOOTH",
"576 726 OFFCURVE",
"612 722 OFFCURVE",
"602 698 CURVE SMOOTH",
"585 657 OFFCURVE",
"347 611 OFFCURVE",
"64 700 CURVE SMOOTH"
);
}
);
width = 421;
},
{
associatedMasterId = "2B556C7D-ACF4-4058-9F01-0A4D9389EAED";
layerId = "0555022E-A56D-4471-B99E-E7F7CE978CED";
name = "Regular Aug 4 16, 16:44";
paths = (
{
closed = 1;
nodes = (
"278 537 OFFCURVE",
"85 494 OFFCURVE",
"88 601 CURVE SMOOTH",
"93 764 OFFCURVE",
"377 636 OFFCURVE",
"680 636 CURVE SMOOTH",
"776 636 OFFCURVE",
"772 702 OFFCURVE",
"715 721 CURVE SMOOTH",
"669 736 OFFCURVE",
"562 736 OFFCURVE",
"498 655 CURVE SMOOTH",
"397 526 OFFCURVE",
"408 146 OFFCURVE",
"321 45 CURVE SMOOTH",
"261 -25 OFFCURVE",
"242 87 OFFCURVE",
"284 212 CURVE SMOOTH",
"302 265 OFFCURVE",
"251 267 OFFCURVE",
"232 226 CURVE SMOOTH",
"213 185 OFFCURVE",
"167 -29 OFFCURVE",
"288 -29 CURVE SMOOTH",
"318 -29 OFFCURVE",
"348 -8 OFFCURVE",
"366 11 CURVE SMOOTH",
"469 119 OFFCURVE",
"441 475 OFFCURVE",
"561 645 CURVE SMOOTH",
"593 691 OFFCURVE",
"664 676 OFFCURVE",
"685 688 CURVE SMOOTH",
"704 699 OFFCURVE",
"641 684 OFFCURVE",
"457 712 CURVE SMOOTH",
"327 731 OFFCURVE",
"164 764 OFFCURVE",
"81 698 CURVE SMOOTH",
"-2 635 OFFCURVE",
"13 511 OFFCURVE",
"125 486 CURVE SMOOTH",
"205 468 OFFCURVE",
"309 489 OFFCURVE",
"317 491 CURVE SMOOTH",
"381 510 OFFCURVE",
"362 560 OFFCURVE",
"315 547 CURVE SMOOTH"
);
}
);
width = 600;
},
{
layerId = "2B556C7D-ACF4-4058-9F01-0A4D9389EAED";
name = Regular;
paths = (
{
closed = 1;
nodes = (
"12 717 OFFCURVE",
"-24 663 OFFCURVE",
"33 641 CURVE SMOOTH",
"116 609 OFFCURVE",
"375 555 OFFCURVE",
"588 617 CURVE SMOOTH",
"699 649 OFFCURVE",
"683 739 OFFCURVE",
"633 768 CURVE SMOOTH",
"601 786 OFFCURVE",
"541 792 OFFCURVE",
"480 770 CURVE SMOOTH",
"363 728 OFFCURVE",
"295 635 OFFCURVE",
"249 497 CURVE SMOOTH",
"199 347 OFFCURVE",
"166 117 OFFCURVE",
"166 13 CURVE SMOOTH",
"166 -21 OFFCURVE",
"229 -42 OFFCURVE",
"233 16 CURVE SMOOTH",
"245 177 OFFCURVE",
"283 686 OFFCURVE",
"534 720 CURVE SMOOTH",
"576 726 OFFCURVE",
"612 722 OFFCURVE",
"602 698 CURVE SMOOTH",
"585 657 OFFCURVE",
"347 611 OFFCURVE",
"64 700 CURVE SMOOTH"
);
}
);
width = 421;
},
{
associatedMasterId = "2B556C7D-ACF4-4058-9F01-0A4D9389EAED";
layerId = "CDBBC32F-EE9D-49D8-A34F-606B8931A77D";
name = "Regular Aug 19 16, 21:53";
paths = (
{
closed = 1;
nodes = (
"245 622 OFFCURVE",
"168 132 OFFCURVE",
"168 24 CURVE SMOOTH",
"168 -54 OFFCURVE",
"235 -34 OFFCURVE",
"235 30 CURVE",
"235 30 OFFCURVE",
"258 286 OFFCURVE",
"343 700 CURVE SMOOTH",
"356 762 OFFCURVE",
"294 755 OFFCURVE",
"286 734 CURVE SMOOTH"
);
},
{
closed = 1;
nodes = (
"-74 745 OFFCURVE",
"-71 699 OFFCURVE",
"-40 692 CURVE SMOOTH",
"-4 684 OFFCURVE",
"408 719 OFFCURVE",
"471 729 CURVE SMOOTH",
"521 737 OFFCURVE",
"511 797 OFFCURVE",
"461 792 CURVE SMOOTH",
"309 777 OFFCURVE",
"0 753 OFFCURVE",
"-39 749 CURVE SMOOTH"
);
}
);
width = 421;
}
);
unicode = 0054;
},
{
color = 4;
glyphname = U;
lastChange = "2016-08-05 12:42:48 +0200";
layers = (
{
associatedMasterId = "2B556C7D-ACF4-4058-9F01-0A4D9389EAED";
layerId = "0BDFDF58-32AF-4C40-AE95-6699BEBCFA6B";
name = "Regular Aug 1 16, 16:48";
paths = (
{
closed = 1;
nodes = (
"225 784 OFFCURVE",
"155 757 OFFCURVE",
"155 757 CURVE SMOOTH",
"76 406 OFFCURVE",
"46 145 OFFCURVE",
"64 63 CURVE SMOOTH",
"81 -14 OFFCURVE",
"176 -26 OFFCURVE",
"216 18 CURVE SMOOTH",
"303 114 OFFCURVE",
"395 508 OFFCURVE",
"449 699 CURVE SMOOTH",
"449 699 OFFCURVE",
"447 717 OFFCURVE",
"445 718 CURVE SMOOTH",
"440 722 OFFCURVE",
"431 720 OFFCURVE",
"432 720 CURVE SMOOTH",
"416 666 OFFCURVE",
"276 -2 OFFCURVE",
"406 -2 CURVE SMOOTH",
"455 -2 OFFCURVE",
"530 37 OFFCURVE",
"598 293 CURVE SMOOTH",
"607 327 OFFCURVE",
"563 334 OFFCURVE",
"560 325 CURVE SMOOTH",
"514 169 OFFCURVE",
"454 43 OFFCURVE",
"412 49 CURVE SMOOTH",
"372 55 OFFCURVE",
"443 555 OFFCURVE",
"481 700 CURVE SMOOTH",
"492 742 OFFCURVE",
"410 737 OFFCURVE",
"408 729 CURVE SMOOTH",
"346 495 OFFCURVE",
"223 44 OFFCURVE",
"147 44 CURVE SMOOTH",
"80 44 OFFCURVE",
"153 459 OFFCURVE",
"214 735 CURVE SMOOTH"
);
}
);
width = 600;
},
{
associatedMasterId = "2B556C7D-ACF4-4058-9F01-0A4D9389EAED";
layerId = "F1B1C4D2-0F08-4E21-8587-98B7AFBF9C31";
name = "Regular Aug 1 16, 16:49";
paths = (
{
closed = 1;
nodes = (
"223 783 OFFCURVE",
"165 804 OFFCURVE",
"155 757 CURVE SMOOTH",
"114 559 OFFCURVE",
"13 73 OFFCURVE",
"97 4 CURVE SMOOTH",
"138 -30 OFFCURVE",
"190 -11 OFFCURVE",
"216 18 CURVE SMOOTH",
"303 114 OFFCURVE",
"383 509 OFFCURVE",
"437 700 CURVE SMOOTH",
"437 700 OFFCURVE",
"447 717 OFFCURVE",
"445 718 CURVE SMOOTH",
"440 722 OFFCURVE",
"418 720 OFFCURVE",
"418 720 CURVE SMOOTH",
"363 429 OFFCURVE",
"263 0 OFFCURVE",
"406 -2 CURVE SMOOTH",
"455 -3 OFFCURVE",
"534 37 OFFCURVE",
"602 293 CURVE SMOOTH",
"611 327 OFFCURVE",
"563 334 OFFCURVE",
"560 325 CURVE SMOOTH",
"514 169 OFFCURVE",
"454 44 OFFCURVE",
"412 49 CURVE SMOOTH",
"356 55 OFFCURVE",
"413 473 OFFCURVE",
"464 700 CURVE SMOOTH",
"478 762 OFFCURVE",
"409 770 OFFCURVE",
"399 729 CURVE SMOOTH",
"355 549 OFFCURVE",
"263 189 OFFCURVE",
"186 66 CURVE SMOOTH",
"169 39 OFFCURVE",
"159 38 OFFCURVE",
"145 42 CURVE SMOOTH",
"90 56 OFFCURVE",
"160 484 OFFCURVE",
"216 749 CURVE SMOOTH"
);
}
);
width = 553;
},
{
layerId = "2B556C7D-ACF4-4058-9F01-0A4D9389EAED";
name = Regular;
paths = (
{
closed = 1;
nodes = (
"189 740 OFFCURVE",
"130 764 OFFCURVE",
"115 715 CURVE SMOOTH",
"67 551 OFFCURVE",
"-6 185 OFFCURVE",
"32 48 CURVE SMOOTH",
"42 5 OFFCURVE",
"79 -13 OFFCURVE",
"115 -13 CURVE SMOOTH",
"253 -13 OFFCURVE",
"344 389 OFFCURVE",
"409 633 CURVE SMOOTH",
"409 633 OFFCURVE",
"418 650 OFFCURVE",
"416 651 CURVE SMOOTH",
"411 655 OFFCURVE",
"383 670 OFFCURVE",
"383 669 CURVE SMOOTH",
"331 392 OFFCURVE",
"254 -4 OFFCURVE",
"406 -6 CURVE SMOOTH",
"455 -7 OFFCURVE",
"539 37 OFFCURVE",
"607 293 CURVE SMOOTH",
"621 347 OFFCURVE",
"565 350 OFFCURVE",
"557 325 CURVE SMOOTH",
"511 169 OFFCURVE",
"454 49 OFFCURVE",
"412 54 CURVE SMOOTH",
"351 61 OFFCURVE",
"387 420 OFFCURVE",
"439 649 CURVE SMOOTH",
"453 711 OFFCURVE",
"377 716 OFFCURVE",
"367 676 CURVE SMOOTH",
"305 437 OFFCURVE",
"178 39 OFFCURVE",
"109 50 CURVE SMOOTH",
"57 58 OFFCURVE",
"114 453 OFFCURVE",
"180 704 CURVE SMOOTH"
);
}
);
width = 553;
},
{
associatedMasterId = "2B556C7D-ACF4-4058-9F01-0A4D9389EAED";
layerId = "74FD58FB-AFB4-43DC-BF96-18864B3E6551";
name = "Regular Aug 5 16, 12:29";
paths = (
{
closed = 1;
nodes = (
"191 783 OFFCURVE",
"129 804 OFFCURVE",
"119 757 CURVE SMOOTH",
"78 559 OFFCURVE",
"-23 73 OFFCURVE",
"61 4 CURVE SMOOTH",
"102 -30 OFFCURVE",
"154 -11 OFFCURVE",
"180 18 CURVE SMOOTH",
"267 114 OFFCURVE",
"358 455 OFFCURVE",
"412 649 CURVE SMOOTH",
"412 649 OFFCURVE",
"421 666 OFFCURVE",
"419 667 CURVE SMOOTH",
"414 671 OFFCURVE",
"392 669 OFFCURVE",
"392 669 CURVE SMOOTH",
"337 378 OFFCURVE",
"263 0 OFFCURVE",
"406 -2 CURVE SMOOTH",
"455 -3 OFFCURVE",
"534 37 OFFCURVE",
"602 293 CURVE SMOOTH",
"611 327 OFFCURVE",
"563 334 OFFCURVE",
"560 325 CURVE SMOOTH",
"514 169 OFFCURVE",
"454 44 OFFCURVE",
"412 49 CURVE SMOOTH",
"356 55 OFFCURVE",
"393 422 OFFCURVE",
"444 649 CURVE SMOOTH",
"458 711 OFFCURVE",
"386 718 OFFCURVE",
"374 678 CURVE SMOOTH",
"318 498 OFFCURVE",
"227 189 OFFCURVE",
"150 66 CURVE SMOOTH",
"133 39 OFFCURVE",
"122 36 OFFCURVE",
"109 42 CURVE SMOOTH",
"54 66 OFFCURVE",
"128 484 OFFCURVE",
"184 749 CURVE SMOOTH"
);
}
);
width = 553;
}
);
unicode = 0055;
},
{
color = 4;
glyphname = V;
lastChange = "2016-08-05 12:37:10 +0200";
layers = (
{
associatedMasterId = "2B556C7D-ACF4-4058-9F01-0A4D9389EAED";
layerId = "4764487F-2D2D-4296-94D9-D170E6025FDA";
name = "Regular Aug 5 16, 12:33";
paths = (
{
closed = 1;
nodes = (
"134 635 OFFCURVE",
"78 658 OFFCURVE",
"60 594 CURVE SMOOTH",
"14 429 OFFCURVE",
"-71 0 OFFCURVE",
"81 0 CURVE SMOOTH",
"209 0 OFFCURVE",
"379 391 OFFCURVE",
"392 645 CURVE SMOOTH",
"398 766 OFFCURVE",
"335 775 OFFCURVE",
"313 776 CURVE SMOOTH",
"214 776 OFFCURVE",
"170 583 OFFCURVE",
"270 521 CURVE SMOOTH",
"310 496 OFFCURVE",
"412 482 OFFCURVE",
"503 494 CURVE SMOOTH",
"556 501 OFFCURVE",
"553 549 OFFCURVE",
"532 549 CURVE SMOOTH",
"513 549 OFFCURVE",
"342 524 OFFCURVE",
"289 577 CURVE SMOOTH",
"244 622 OFFCURVE",
"276 733 OFFCURVE",
"312 725 CURVE SMOOTH",
"358 715 OFFCURVE",
"331 555 OFFCURVE",
"275 391 CURVE SMOOTH",
"217 224 OFFCURVE",
"130 54 OFFCURVE",
"85 54 CURVE SMOOTH",
"44 54 OFFCURVE",
"42 255 OFFCURVE",
"119 572 CURVE SMOOTH"
);
}
);
width = 451;
},
{
layerId = "2B556C7D-ACF4-4058-9F01-0A4D9389EAED";
name = Regular;
paths = (
{
closed = 1;
nodes = (
"132 626 OFFCURVE",
"75 647 OFFCURVE",
"60 594 CURVE SMOOTH",
"14 429 OFFCURVE",
"-43 0 OFFCURVE",
"109 0 CURVE SMOOTH",
"231 0 OFFCURVE",
"386 399 OFFCURVE",
"399 641 CURVE SMOOTH",
"405 762 OFFCURVE",
"335 775 OFFCURVE",
"313 776 CURVE SMOOTH",
"210 776 OFFCURVE",
"162 581 OFFCURVE",
"266 517 CURVE SMOOTH",
"306 492 OFFCURVE",
"417 477 OFFCURVE",
"508 489 CURVE SMOOTH",
"570 497 OFFCURVE",
"562 557 OFFCURVE",
"532 549 CURVE SMOOTH",
"503 541 OFFCURVE",
"342 521 OFFCURVE",
"289 574 CURVE SMOOTH",
"244 619 OFFCURVE",
"275 727 OFFCURVE",
"313 719 CURVE SMOOTH",
"411 698 OFFCURVE",
"205 63 OFFCURVE",
"113 63 CURVE SMOOTH",
"72 63 OFFCURVE",
"39 241 OFFCURVE",
"119 572 CURVE SMOOTH"
);
}
);
width = 451;
}
);
unicode = 0056;
},
{
color = 4;
glyphname = W;
lastChange = "2016-08-19 13:49:21 +0200";
layers = (
{
associatedMasterId = "2B556C7D-ACF4-4058-9F01-0A4D9389EAED";
layerId = "2B7D9161-10DB-4780-8BDF-90763D9A891C";
name = "Regular Aug 1 16, 17:28";
paths = (
{
closed = 1;
nodes = (
"-2 456 OFFCURVE",
"-161 416 CURVE SMOOTH",
"-201 406 OFFCURVE",
"-190 358 OFFCURVE",
"-164 359 CURVE SMOOTH",
"-119 360 OFFCURVE",
"46 409 OFFCURVE",
"110 509 CURVE SMOOTH",
"165 595 OFFCURVE",
"110 612 OFFCURVE",
"97 612 CURVE SMOOTH",
"56 612 OFFCURVE",
"48 573 OFFCURVE",
"47 570 CURVE SMOOTH",
"-12 366 OFFCURVE",
"-21 114 OFFCURVE",
"33 31 CURVE SMOOTH",
"54 -2 OFFCURVE",
"118 -25 OFFCURVE",
"166 13 CURVE SMOOTH",
"292 112 OFFCURVE",
"343 446 OFFCURVE",
"343 548 CURVE SMOOTH",
"343 599 OFFCURVE",
"283 615 OFFCURVE",
"270 550 CURVE SMOOTH",
"240 400 OFFCURVE",
"239 119 OFFCURVE",
"313 22 CURVE SMOOTH",
"342 -16 OFFCURVE",
"423 -40 OFFCURVE",
"478 28 CURVE SMOOTH",
"568 140 OFFCURVE",
"616 411 OFFCURVE",
"600 607 CURVE SMOOTH",
"596 658 OFFCURVE",
"590 755 OFFCURVE",
"495 755 CURVE SMOOTH",
"414 755 OFFCURVE",
"371 496 OFFCURVE",
"404 451 CURVE SMOOTH",
"463 371 OFFCURVE",
"623 374 OFFCURVE",
"701 398 CURVE SMOOTH",
"766 418 OFFCURVE",
"735 463 OFFCURVE",
"730 462 CURVE SMOOTH",
"522 422 OFFCURVE",
"478 451 OFFCURVE",
"463 477 CURVE SMOOTH",
"433 528 OFFCURVE",
"483 703 OFFCURVE",
"499 700 CURVE SMOOTH",
"574 684 OFFCURVE",
"510 44 OFFCURVE",
"391 44 CURVE SMOOTH",
"336 44 OFFCURVE",
"293 219 OFFCURVE",
"329 500 CURVE SMOOTH",
"336 552 OFFCURVE",
"288 566 OFFCURVE",
"281 513 CURVE SMOOTH",
"230 129 OFFCURVE",
"138 51 OFFCURVE",
"107 51 CURVE SMOOTH",
"79 51 OFFCURVE",
"12 156 OFFCURVE",
"100 546 CURVE SMOOTH",
"102 556 OFFCURVE"
);
}
);
width = 600;
},
{
associatedMasterId = "2B556C7D-ACF4-4058-9F01-0A4D9389EAED";
layerId = "DB1A49B1-1CD9-496D-ACEC-78CDEF4B3125";
name = "Regular Aug 1 16, 17:28 Aug 1 16, 17:30";
paths = (
{
closed = 1;
nodes = (
"-2 456 OFFCURVE",
"-161 416 CURVE SMOOTH",
"-201 406 OFFCURVE",
"-190 358 OFFCURVE",
"-164 359 CURVE SMOOTH",
"-119 360 OFFCURVE",
"46 409 OFFCURVE",
"110 509 CURVE SMOOTH",
"165 595 OFFCURVE",
"110 612 OFFCURVE",
"97 612 CURVE SMOOTH",
"56 612 OFFCURVE",
"48 573 OFFCURVE",
"47 570 CURVE SMOOTH",
"-12 366 OFFCURVE",
"-21 114 OFFCURVE",
"33 31 CURVE SMOOTH",
"54 -2 OFFCURVE",
"118 -25 OFFCURVE",
"166 13 CURVE SMOOTH",
"292 112 OFFCURVE",
"343 446 OFFCURVE",
"343 548 CURVE SMOOTH",
"343 599 OFFCURVE",
"283 615 OFFCURVE",
"270 550 CURVE SMOOTH",
"240 400 OFFCURVE",
"239 119 OFFCURVE",
"313 22 CURVE SMOOTH",
"342 -16 OFFCURVE",
"423 -40 OFFCURVE",
"478 28 CURVE SMOOTH",
"562 132 OFFCURVE",
"613 404 OFFCURVE",
"597 603 CURVE SMOOTH",
"593 654 OFFCURVE",
"576 755 OFFCURVE",
"495 755 CURVE SMOOTH",
"387 755 OFFCURVE",
"342 536 OFFCURVE",
"404 451 CURVE SMOOTH",
"462 371 OFFCURVE",
"623 375 OFFCURVE",
"701 399 CURVE SMOOTH",
"766 419 OFFCURVE",
"735 463 OFFCURVE",
"730 462 CURVE SMOOTH",
"541 410 OFFCURVE",
"486 458 OFFCURVE",
"463 477 CURVE SMOOTH",
"403 528 OFFCURVE",
"441 700 OFFCURVE",
"499 700 CURVE SMOOTH",
"581 700 OFFCURVE",
"514 44 OFFCURVE",
"391 44 CURVE SMOOTH",
"336 44 OFFCURVE",
"293 219 OFFCURVE",
"329 500 CURVE SMOOTH",
"336 552 OFFCURVE",
"288 566 OFFCURVE",
"281 513 CURVE SMOOTH",
"230 129 OFFCURVE",
"138 51 OFFCURVE",
"107 51 CURVE SMOOTH",
"79 51 OFFCURVE",
"12 156 OFFCURVE",
"100 546 CURVE SMOOTH",
"102 556 OFFCURVE"
);
}
);
width = 692;
},
{
associatedMasterId = "2B556C7D-ACF4-4058-9F01-0A4D9389EAED";
layerId = "F22CB7DA-E98B-481A-9C46-6C62F9CD623E";
name = "Regular Aug 1 16, 17:32";
paths = (
{
closed = 1;
nodes = (
"-2 456 OFFCURVE",
"-161 416 CURVE SMOOTH",
"-201 406 OFFCURVE",
"-190 358 OFFCURVE",
"-164 359 CURVE SMOOTH",
"-119 360 OFFCURVE",
"64 406 OFFCURVE",
"113 506 CURVE SMOOTH",
"158 598 OFFCURVE",
"110 612 OFFCURVE",
"97 612 CURVE SMOOTH",
"56 612 OFFCURVE",
"48 573 OFFCURVE",
"47 570 CURVE SMOOTH",
"-12 366 OFFCURVE",
"-21 114 OFFCURVE",
"33 31 CURVE SMOOTH",
"54 -2 OFFCURVE",
"118 -25 OFFCURVE",
"166 13 CURVE SMOOTH",
"292 112 OFFCURVE",
"360 463 OFFCURVE",
"348 548 CURVE SMOOTH",
"341 599 OFFCURVE",
"283 615 OFFCURVE",
"270 550 CURVE SMOOTH",
"240 400 OFFCURVE",
"228 -6 OFFCURVE",
"359 -6 CURVE SMOOTH",
"513 -6 OFFCURVE",
"604 350 OFFCURVE",
"583 612 CURVE SMOOTH",
"579 663 OFFCURVE",
"563 755 OFFCURVE",
"495 755 CURVE SMOOTH",
"414 755 OFFCURVE",
"391 651 OFFCURVE",
"424 606 CURVE SMOOTH",
"483 526 OFFCURVE",
"643 529 OFFCURVE",
"721 553 CURVE SMOOTH",
"786 573 OFFCURVE",
"755 618 OFFCURVE",
"750 617 CURVE SMOOTH",
"542 577 OFFCURVE",
"499 605 OFFCURVE",
"483 632 CURVE SMOOTH",
"464 664 OFFCURVE",
"492 716 OFFCURVE",
"499 700 CURVE SMOOTH",
"556 575 OFFCURVE",
"493 91 OFFCURVE",
"377 55 CURVE SMOOTH",
"338 43 OFFCURVE",
"293 219 OFFCURVE",
"329 500 CURVE SMOOTH",
"336 552 OFFCURVE",
"288 566 OFFCURVE",
"281 513 CURVE SMOOTH",
"230 145 OFFCURVE",
"138 51 OFFCURVE",
"107 51 CURVE SMOOTH",
"79 51 OFFCURVE",
"17 156 OFFCURVE",
"105 546 CURVE SMOOTH",
"107 556 OFFCURVE"
);
}
);
width = 600;
},
{
associatedMasterId = "2B556C7D-ACF4-4058-9F01-0A4D9389EAED";
layerId = "6A27BFBB-BDD2-473E-AEF6-167E89617E95";
name = "Regular Aug 1 16, 17:33";
paths = (
{
closed = 1;
nodes = (
"231 391 OFFCURVE",
"67 286 CURVE SMOOTH",
"25 259 OFFCURVE",
"41 225 OFFCURVE",
"67 226 CURVE SMOOTH",
"112 227 OFFCURVE",
"254 347 OFFCURVE",
"296 497 CURVE SMOOTH",
"323 593 OFFCURVE",
"291 612 OFFCURVE",
"278 612 CURVE SMOOTH",
"237 612 OFFCURVE",
"229 573 OFFCURVE",
"228 570 CURVE SMOOTH",
"169 366 OFFCURVE",
"160 114 OFFCURVE",
"214 31 CURVE SMOOTH",
"235 -2 OFFCURVE",
"299 -25 OFFCURVE",
"347 13 CURVE SMOOTH",
"473 112 OFFCURVE",
"524 446 OFFCURVE",
"524 548 CURVE SMOOTH",
"524 599 OFFCURVE",
"464 615 OFFCURVE",
"451 550 CURVE SMOOTH",
"421 400 OFFCURVE",
"420 119 OFFCURVE",
"494 22 CURVE SMOOTH",
"523 -16 OFFCURVE",
"604 -40 OFFCURVE",
"659 28 CURVE SMOOTH",
"743 132 OFFCURVE",
"794 404 OFFCURVE",
"778 603 CURVE SMOOTH",
"774 654 OFFCURVE",
"757 755 OFFCURVE",
"676 755 CURVE SMOOTH",
"568 755 OFFCURVE",
"523 536 OFFCURVE",
"585 451 CURVE SMOOTH",
"643 371 OFFCURVE",
"804 375 OFFCURVE",
"882 399 CURVE SMOOTH",
"947 419 OFFCURVE",
"916 463 OFFCURVE",
"911 462 CURVE SMOOTH",
"722 410 OFFCURVE",
"667 458 OFFCURVE",
"644 477 CURVE SMOOTH",
"584 528 OFFCURVE",
"622 700 OFFCURVE",
"680 700 CURVE SMOOTH",
"762 700 OFFCURVE",
"695 44 OFFCURVE",
"572 44 CURVE SMOOTH",
"517 44 OFFCURVE",
"474 219 OFFCURVE",
"510 500 CURVE SMOOTH",
"517 552 OFFCURVE",
"469 566 OFFCURVE",
"462 513 CURVE SMOOTH",
"411 129 OFFCURVE",
"319 51 OFFCURVE",
"288 51 CURVE SMOOTH",
"260 51 OFFCURVE",
"196 176 OFFCURVE",
"280 550 CURVE SMOOTH",
"282 560 OFFCURVE"
);
}
);
width = 872;
},
{
layerId = "2B556C7D-ACF4-4058-9F01-0A4D9389EAED";
name = Regular;
paths = (
{
closed = 1;
nodes = (
"209 373 OFFCURVE",
"25 285 CURVE SMOOTH",
"-19 264 OFFCURVE",
"3 225 OFFCURVE",
"29 226 CURVE SMOOTH",
"74 227 OFFCURVE",
"234 325 OFFCURVE",
"276 475 CURVE SMOOTH",
"303 571 OFFCURVE",
"269 590 OFFCURVE",
"256 593 CURVE SMOOTH",
"218 604 OFFCURVE",
"206 553 OFFCURVE",
"204 549 CURVE SMOOTH",
"145 345 OFFCURVE",
"117 105 OFFCURVE",
"171 22 CURVE SMOOTH",
"192 -11 OFFCURVE",
"254 -32 OFFCURVE",
"305 3 CURVE SMOOTH",
"431 91 OFFCURVE",
"498 401 OFFCURVE",
"498 485 CURVE SMOOTH",
"498 538 OFFCURVE",
"431 555 OFFCURVE",
"420 487 CURVE SMOOTH",
"389 291 OFFCURVE",
"378 -23 OFFCURVE",
"514 -10 CURVE SMOOTH",
"668 5 OFFCURVE",
"771 373 OFFCURVE",
"749 627 CURVE SMOOTH",
"745 678 OFFCURVE",
"722 759 OFFCURVE",
"641 759 CURVE SMOOTH",
"522 759 OFFCURVE",
"488 538 OFFCURVE",
"558 433 CURVE SMOOTH",
"617 344 OFFCURVE",
"766 328 OFFCURVE",
"873 345 CURVE SMOOTH",
"943 357 OFFCURVE",
"925 415 OFFCURVE",
"901 410 CURVE SMOOTH",
"779 384 OFFCURVE",
"623 401 OFFCURVE",
"593 511 CURVE SMOOTH",
"574 580 OFFCURVE",
"592 712 OFFCURVE",
"647 702 CURVE SMOOTH",
"750 684 OFFCURVE",
"652 73 OFFCURVE",
"515 53 CURVE SMOOTH",
"476 47 OFFCURVE",
"447 203 OFFCURVE",
"479 437 CURVE SMOOTH",
"486 489 OFFCURVE",
"439 503 OFFCURVE",
"431 450 CURVE SMOOTH",
"383 134 OFFCURVE",
"278 40 OFFCURVE",
"247 40 CURVE SMOOTH",
"201 40 OFFCURVE",
"185 190 OFFCURVE",
"257 553 CURVE SMOOTH",
"259 563 OFFCURVE"
);
}
);
width = 862;
},
{
associatedMasterId = "2B556C7D-ACF4-4058-9F01-0A4D9389EAED";
layerId = "3E1951ED-B4E7-424A-BECF-B7AC3AC58382";
name = "Regular Aug 5 16, 13:13";
paths = (
{
closed = 1;
nodes = (
"231 391 OFFCURVE",
"67 286 CURVE SMOOTH",
"25 259 OFFCURVE",
"41 225 OFFCURVE",
"67 226 CURVE SMOOTH",
"112 227 OFFCURVE",
"254 347 OFFCURVE",
"296 497 CURVE SMOOTH",
"323 593 OFFCURVE",
"291 612 OFFCURVE",
"278 612 CURVE SMOOTH",
"237 612 OFFCURVE",
"229 573 OFFCURVE",
"228 570 CURVE SMOOTH",
"169 366 OFFCURVE",
"160 114 OFFCURVE",
"214 31 CURVE SMOOTH",
"235 -2 OFFCURVE",
"296 -22 OFFCURVE",
"347 13 CURVE SMOOTH",
"473 101 OFFCURVE",
"519 383 OFFCURVE",
"519 485 CURVE SMOOTH",
"519 536 OFFCURVE",
"459 552 OFFCURVE",
"446 487 CURVE SMOOTH",
"416 337 OFFCURVE",
"420 119 OFFCURVE",
"494 22 CURVE SMOOTH",
"523 -16 OFFCURVE",
"604 -40 OFFCURVE",
"659 28 CURVE SMOOTH",
"743 132 OFFCURVE",
"805 447 OFFCURVE",
"789 646 CURVE SMOOTH",
"785 697 OFFCURVE",
"768 785 OFFCURVE",
"687 785 CURVE SMOOTH",
"579 785 OFFCURVE",
"545 584 OFFCURVE",
"596 494 CURVE SMOOTH",
"654 392 OFFCURVE",
"816 396 OFFCURVE",
"894 420 CURVE SMOOTH",
"959 440 OFFCURVE",
"928 484 OFFCURVE",
"923 483 CURVE SMOOTH",
"748 434 OFFCURVE",
"680 485 OFFCURVE",
"655 520 CURVE SMOOTH",
"611 582 OFFCURVE",
"633 730 OFFCURVE",
"691 730 CURVE SMOOTH",
"773 730 OFFCURVE",
"695 44 OFFCURVE",
"572 44 CURVE SMOOTH",
"517 44 OFFCURVE",
"486 203 OFFCURVE",
"505 437 CURVE SMOOTH",
"509 489 OFFCURVE",
"463 503 OFFCURVE",
"457 450 CURVE SMOOTH",
"420 119 OFFCURVE",
"319 51 OFFCURVE",
"288 51 CURVE SMOOTH",
"245 51 OFFCURVE",
"213 176 OFFCURVE",
"280 550 CURVE SMOOTH",
"282 560 OFFCURVE"
);
}
);
width = 872;
}
);
unicode = 0057;
},
{
color = 4;
glyphname = X;
lastChange = "2016-08-05 13:25:49 +0200";
layers = (
{
associatedMasterId = "2B556C7D-ACF4-4058-9F01-0A4D9389EAED";
layerId = "334154AF-97CA-4E4F-BCE7-C6DA551F4FB7";
name = "Regular Aug 1 16, 17:39";
paths = (
{
closed = 1;
nodes = (
"540 -53 OFFCURVE",
"588 -19 OFFCURVE",
"544 18 CURVE SMOOTH",
"346 184 OFFCURVE",
"255 437 OFFCURVE",
"228 684 CURVE SMOOTH",
"220 760 OFFCURVE",
"145 727 OFFCURVE",
"149 675 CURVE SMOOTH",
"173 393 OFFCURVE",
"331 84 OFFCURVE",
"508 -32 CURVE SMOOTH"
);
},
{
closed = 1;
nodes = (
"110 -27 OFFCURVE",
"162 -47 OFFCURVE",
"181 -4 CURVE SMOOTH",
"281 229 OFFCURVE",
"476 544 OFFCURVE",
"601 709 CURVE SMOOTH",
"639 759 OFFCURVE",
"578 790 OFFCURVE",
"538 746 CURVE SMOOTH",
"406 600 OFFCURVE",
"185 185 OFFCURVE",
"128 23 CURVE SMOOTH"
);
}
);
width = 600;
},
{
associatedMasterId = "2B556C7D-ACF4-4058-9F01-0A4D9389EAED";
layerId = "B6FE6A34-34E6-4705-84DC-8EB7A1C5D97B";
name = "Regular Aug 1 16, 17:39 Aug 1 16, 17:41";
paths = (
{
closed = 1;
nodes = (
"483 -53 OFFCURVE",
"529 -21 OFFCURVE",
"487 18 CURVE SMOOTH",
"300 192 OFFCURVE",
"265 437 OFFCURVE",
"265 684 CURVE SMOOTH",
"265 760 OFFCURVE",
"186 727 OFFCURVE",
"186 675 CURVE SMOOTH",
"186 371 OFFCURVE",
"274 84 OFFCURVE",
"451 -32 CURVE SMOOTH"
);
},
{
closed = 1;
nodes = (
"70 -26 OFFCURVE",
"124 -46 OFFCURVE",
"144 -4 CURVE SMOOTH",
"258 229 OFFCURVE",
"456 488 OFFCURVE",
"645 700 CURVE SMOOTH",
"687 748 OFFCURVE",
"628 791 OFFCURVE",
"586 749 CURVE SMOOTH",
"404 566 OFFCURVE",
"164 197 OFFCURVE",
"91 23 CURVE SMOOTH"
);
}
);
width = 600;
},
{
associatedMasterId = "2B556C7D-ACF4-4058-9F01-0A4D9389EAED";
layerId = "D8378A18-AFF6-47A4-8F4A-F00F9B0217C0";
name = "Regular Aug 1 16, 17:39 Aug 1 16, 17:41 Aug 1 16, 17:43";
paths = (
{
closed = 1;
nodes = (
"506 -34 OFFCURVE",
"553 -5 OFFCURVE",
"511 34 CURVE SMOOTH",
"324 208 OFFCURVE",
"289 403 OFFCURVE",
"277 650 CURVE SMOOTH",
"273 726 OFFCURVE",
"210 702 OFFCURVE",
"210 650 CURVE SMOOTH",
"210 385 OFFCURVE",
"296 117 OFFCURVE",
"475 -12 CURVE SMOOTH"
);
},
{
closed = 1;
nodes = (
"111 -6 OFFCURVE",
"161 -25 OFFCURVE",
"183 16 CURVE SMOOTH",
"308 249 OFFCURVE",
"448 470 OFFCURVE",
"637 704 CURVE SMOOTH",
"677 753 OFFCURVE",
"626 792 OFFCURVE",
"586 748 CURVE SMOOTH",
"404 548 OFFCURVE",
"206 204 OFFCURVE",
"133 43 CURVE SMOOTH"
);
}
);
width = 600;
},
{
associatedMasterId = "2B556C7D-ACF4-4058-9F01-0A4D9389EAED";
layerId = "2A497078-519D-4C96-B8A4-4003EA0A176D";
name = "Regular Aug 1 16, 17:46";
paths = (
{
closed = 1;
nodes = (
"535 -85 OFFCURVE",
"540 -34 OFFCURVE",
"494 -12 CURVE SMOOTH",
"271 96 OFFCURVE",
"156 445 OFFCURVE",
"156 678 CURVE SMOOTH",
"156 741 OFFCURVE",
"88 721 OFFCURVE",
"85 669 CURVE SMOOTH",
"68 348 OFFCURVE",
"262 -14 OFFCURVE",
"489 -73 CURVE SMOOTH"
);
},
{
closed = 1;
nodes = (
"53 -34 OFFCURVE",
"98 -54 OFFCURVE",
"117 -10 CURVE SMOOTH",
"206 196 OFFCURVE",
"490 540 OFFCURVE",
"617 667 CURVE SMOOTH",
"629 679 OFFCURVE",
"639 710 OFFCURVE",
"613 727 CURVE SMOOTH",
"591 741 OFFCURVE",
"567 723 OFFCURVE",
"543 704 CURVE SMOOTH",
"412 600 OFFCURVE",
"86 124 OFFCURVE",
"64 17 CURVE SMOOTH"
);
}
);
width = 600;
},
{
associatedMasterId = "2B556C7D-ACF4-4058-9F01-0A4D9389EAED";
layerId = "30AF046B-D548-4252-8ED7-903CEF5C22D1";
name = "Regular Aug 1 16, 17:47";
paths = (
{
closed = 1;
nodes = (
"366 -36 OFFCURVE",
"413 -2 OFFCURVE",
"372 38 CURVE SMOOTH",
"185 222 OFFCURVE",
"144 413 OFFCURVE",
"132 638 CURVE SMOOTH",
"128 714 OFFCURVE",
"61 687 OFFCURVE",
"63 635 CURVE SMOOTH",
"77 333 OFFCURVE",
"176 116 OFFCURVE",
"336 -12 CURVE SMOOTH"
);
},
{
closed = 1;
nodes = (
"-17 -6 OFFCURVE",
"36 -25 OFFCURVE",
"58 16 CURVE SMOOTH",
"183 249 OFFCURVE",
"229 360 OFFCURVE",
"455 678 CURVE SMOOTH",
"492 729 OFFCURVE",
"439 768 OFFCURVE",
"402 721 CURVE SMOOTH",
"220 488 OFFCURVE",
"78 204 OFFCURVE",
"5 43 CURVE SMOOTH"
);
}
);
width = 449;
},
{
associatedMasterId = "2B556C7D-ACF4-4058-9F01-0A4D9389EAED";
layerId = "C81AB055-D76C-48E3-8DA6-EDEFEA4D5A96";
name = "Regular Aug 1 16, 17:53";
paths = (
{
closed = 1;
nodes = (
"408 -74 OFFCURVE",
"453 -40 OFFCURVE",
"411 -2 CURVE SMOOTH",
"224 164 OFFCURVE",
"144 398 OFFCURVE",
"132 638 CURVE SMOOTH",
"128 714 OFFCURVE",
"61 687 OFFCURVE",
"63 635 CURVE SMOOTH",
"77 333 OFFCURVE",
"195 76 OFFCURVE",
"377 -52 CURVE SMOOTH"
);
},
{
closed = 1;
nodes = (
"-5 14 OFFCURVE",
"48 -5 OFFCURVE",
"70 36 CURVE SMOOTH",
"195 269 OFFCURVE",
"241 376 OFFCURVE",
"455 678 CURVE SMOOTH",
"491 729 OFFCURVE",
"439 768 OFFCURVE",
"402 721 CURVE SMOOTH",
"220 488 OFFCURVE",
"90 224 OFFCURVE",
"17 63 CURVE SMOOTH"
);
}
);
width = 438;
},
{
associatedMasterId = "2B556C7D-ACF4-4058-9F01-0A4D9389EAED";
layerId = "CCF9D282-FE6E-4D0D-B05B-5157B67F825C";
name = "Regular Aug 5 16, 13:24";
paths = (
{
closed = 1;
nodes = (
"376 -29 OFFCURVE",
"418 4 OFFCURVE",
"385 50 CURVE SMOOTH",
"279 195 OFFCURVE",
"220 319 OFFCURVE",
"140 529 CURVE SMOOTH",
"112 602 OFFCURVE",
"57 571 OFFCURVE",
"70 530 CURVE SMOOTH",
"137 324 OFFCURVE",
"257 101 OFFCURVE",
"349 0 CURVE SMOOTH"
);
},
{
closed = 1;
nodes = (
"-2 -40 OFFCURVE",
"54 -58 OFFCURVE",
"70 -16 CURVE SMOOTH",
"136 154 OFFCURVE",
"249 352 OFFCURVE",
"458 574 CURVE SMOOTH",
"499 617 OFFCURVE",
"454 658 OFFCURVE",
"409 615 CURVE SMOOTH",
"191 405 OFFCURVE",
"69 166 OFFCURVE",
"16 11 CURVE SMOOTH"
);
}
);
width = 438;
},
{
layerId = "2B556C7D-ACF4-4058-9F01-0A4D9389EAED";
name = Regular;
paths = (
{
closed = 1;
nodes = (
"361 -35 OFFCURVE",
"422 -15 OFFCURVE",
"398 37 CURVE SMOOTH",
"316 212 OFFCURVE",
"198 469 OFFCURVE",
"121 649 CURVE SMOOTH",
"97 706 OFFCURVE",
"41 663 OFFCURVE",
"58 622 CURVE SMOOTH",
"136 436 OFFCURVE",
"271 137 OFFCURVE",
"343 0 CURVE SMOOTH"
);
},
{
closed = 1;
nodes = (
"-11 -36 OFFCURVE",
"50 -56 OFFCURVE",
"74 -14 CURVE SMOOTH",
"202 213 OFFCURVE",
"330 445 OFFCURVE",
"454 660 CURVE SMOOTH",
"480 705 OFFCURVE",
"423 743 OFFCURVE",
"398 700 CURVE SMOOTH",
"208 372 OFFCURVE",
"119 196 OFFCURVE",
"17 13 CURVE SMOOTH"
);
}
);
width = 438;
}
);
unicode = 0058;
},
{
color = 4;
glyphname = Y;
lastChange = "2016-08-05 12:36:35 +0200";
layers = (
{
associatedMasterId = "2B556C7D-ACF4-4058-9F01-0A4D9389EAED";
layerId = "30C777AB-8F5B-4CB5-A990-DA115806C3FE";
name = "Regular Aug 5 16, 12:36";
paths = (
{
closed = 1;
nodes = (
"317 456 OFFCURVE",
"223 -82 OFFCURVE",
"223 -121 CURVE SMOOTH",
"223 -159 OFFCURVE",
"272 -172 OFFCURVE",
"283 -121 CURVE SMOOTH",
"283 -121 OFFCURVE",
"334 261 OFFCURVE",
"442 653 CURVE SMOOTH",
"455 700 OFFCURVE",
"399 731 OFFCURVE",
"386 687 CURVE SMOOTH"
);
},
{
closed = 1;
nodes = (
"196 783 OFFCURVE",
"135 812 OFFCURVE",
"119 752 CURVE SMOOTH",
"76 591 OFFCURVE",
"1 208 OFFCURVE",
"41 137 CURVE SMOOTH",
"67 91 OFFCURVE",
"130 82 OFFCURVE",
"175 126 CURVE SMOOTH",
"252 202 OFFCURVE",
"350 454 OFFCURVE",
"418 647 CURVE SMOOTH",
"418 647 OFFCURVE",
"418 661 OFFCURVE",
"412 669 CURVE SMOOTH",
"406 676 OFFCURVE",
"387 687 OFFCURVE",
"383 677 CURVE SMOOTH",
"295 445 OFFCURVE",
"163 148 OFFCURVE",
"107 154 CURVE SMOOTH",
"66 158 OFFCURVE",
"109 426 OFFCURVE",
"183 730 CURVE SMOOTH"
);
}
);
width = 479;
},
{
layerId = "2B556C7D-ACF4-4058-9F01-0A4D9389EAED";
name = Regular;
paths = (
{
closed = 1;
nodes = (
"329 398 OFFCURVE",
"241 -95 OFFCURVE",
"241 -134 CURVE SMOOTH",
"241 -172 OFFCURVE",
"290 -185 OFFCURVE",
"301 -134 CURVE SMOOTH",
"301 -134 OFFCURVE",
"352 217 OFFCURVE",
"460 609 CURVE SMOOTH",
"472 653 OFFCURVE",
"410 670 OFFCURVE",
"398 629 CURVE SMOOTH"
);
},
{
closed = 1;
nodes = (
"200 697 OFFCURVE",
"142 716 OFFCURVE",
"128 664 CURVE SMOOTH",
"85 503 OFFCURVE",
"16 160 OFFCURVE",
"60 81 CURVE SMOOTH",
"71 62 OFFCURVE",
"90 46 OFFCURVE",
"111 42 CURVE SMOOTH",
"239 19 OFFCURVE",
"354 346 OFFCURVE",
"436 589 CURVE SMOOTH",
"436 589 OFFCURVE",
"436 603 OFFCURVE",
"430 611 CURVE SMOOTH",
"424 618 OFFCURVE",
"400 628 OFFCURVE",
"396 618 CURVE SMOOTH",
"308 375 OFFCURVE",
"182 90 OFFCURVE",
"126 96 CURVE SMOOTH",
"85 100 OFFCURVE",
"115 357 OFFCURVE",
"189 652 CURVE SMOOTH"
);
}
);
width = 479;
}
);
unicode = 0059;
},
{
color = 4;
glyphname = Z;
lastChange = "2016-08-19 13:27:07 +0200";
layers = (
{
associatedMasterId = "2B556C7D-ACF4-4058-9F01-0A4D9389EAED";
layerId = "4F6FB95C-171F-4AC1-8A15-C547E5A722AB";
name = "Regular Aug 5 16, 14:14";
paths = (
{
closed = 1;
nodes = (
"62 490 OFFCURVE",
"156 466 OFFCURVE",
"224 477 CURVE SMOOTH",
"353 497 OFFCURVE",
"429 587 OFFCURVE",
"443 602 CURVE SMOOTH",
"488 649 OFFCURVE",
"422 702 OFFCURVE",
"390 646 CURVE SMOOTH",
"331 542 OFFCURVE",
"161 164 OFFCURVE",
"74 112 CURVE SMOOTH",
"36 89 OFFCURVE",
"63 252 OFFCURVE",
"103 207 CURVE SMOOTH",
"143 163 OFFCURVE",
"197 -12 OFFCURVE",
"288 -3 CURVE SMOOTH",
"388 7 OFFCURVE",
"446 147 OFFCURVE",
"484 259 CURVE SMOOTH",
"504 318 OFFCURVE",
"450 324 OFFCURVE",
"439 291 CURVE SMOOTH",
"376 101 OFFCURVE",
"313 51 OFFCURVE",
"286 51 CURVE SMOOTH",
"232 51 OFFCURVE",
"167 276 OFFCURVE",
"93 276 CURVE SMOOTH",
"10 276 OFFCURVE",
"-38 84 OFFCURVE",
"37 56 CURVE SMOOTH",
"75 42 OFFCURVE",
"126 73 OFFCURVE",
"186 151 CURVE SMOOTH",
"260 248 OFFCURVE",
"384 507 OFFCURVE",
"434 600 CURVE SMOOTH",
"462 651 OFFCURVE",
"430 653 OFFCURVE",
"399 644 CURVE SMOOTH",
"399 644 OFFCURVE",
"323 555 OFFCURVE",
"231 537 CURVE SMOOTH",
"190 529 OFFCURVE",
"129 531 OFFCURVE",
"138 611 CURVE SMOOTH",
"144 662 OFFCURVE",
"84 655 OFFCURVE",
"78 613 CURVE SMOOTH"
);
}
);
width = 448;
},
{
layerId = "2B556C7D-ACF4-4058-9F01-0A4D9389EAED";
name = Regular;
paths = (
{
closed = 1;
nodes = (
"61 514 OFFCURVE",
"148 494 OFFCURVE",
"216 500 CURVE SMOOTH",
"330 510 OFFCURVE",
"406 591 OFFCURVE",
"420 606 CURVE SMOOTH",
"465 653 OFFCURVE",
"399 702 OFFCURVE",
"367 646 CURVE SMOOTH",
"308 542 OFFCURVE",
"135 69 OFFCURVE",
"78 56 CURVE SMOOTH",
"37 46 OFFCURVE",
"65 203 OFFCURVE",
"104 159 CURVE SMOOTH",
"144 115 OFFCURVE",
"188 -44 OFFCURVE",
"279 -35 CURVE SMOOTH",
"379 -25 OFFCURVE",
"437 115 OFFCURVE",
"475 227 CURVE SMOOTH",
"495 286 OFFCURVE",
"441 292 OFFCURVE",
"430 259 CURVE SMOOTH",
"367 69 OFFCURVE",
"304 19 OFFCURVE",
"277 19 CURVE SMOOTH",
"223 19 OFFCURVE",
"168 228 OFFCURVE",
"94 228 CURVE SMOOTH",
"11 228 OFFCURVE",
"-31 31 OFFCURVE",
"44 3 CURVE SMOOTH",
"82 -11 OFFCURVE",
"138 12 OFFCURVE",
"188 110 CURVE SMOOTH",
"245 222 OFFCURVE",
"361 483 OFFCURVE",
"411 603 CURVE SMOOTH",
"433 656 OFFCURVE",
"407 653 OFFCURVE",
"376 644 CURVE SMOOTH",
"376 644 OFFCURVE",
"312 580 OFFCURVE",
"220 562 CURVE SMOOTH",
"179 554 OFFCURVE",
"129 556 OFFCURVE",
"138 636 CURVE SMOOTH",
"144 687 OFFCURVE",
"84 679 OFFCURVE",
"78 637 CURVE SMOOTH"
);
}
);
width = 448;
}
);
unicode = 005A;
},
{
color = 4;
glyphname = Zacute;
lastChange = "2016-08-19 13:28:11 +0200";
layers = (
{
layerId = "2B556C7D-ACF4-4058-9F01-0A4D9389EAED";
name = Regular;
paths = (
{
closed = 1;
nodes = (
"241 739 OFFCURVE",
"228 685 OFFCURVE",
"219 648 CURVE SMOOTH",
"208 604 OFFCURVE",
"259 594 OFFCURVE",
"272 635 CURVE SMOOTH",
"289 690 OFFCURVE",
"301 728 OFFCURVE",
"310 762 CURVE SMOOTH",
"322 806 OFFCURVE",
"266 822 OFFCURVE",
"252 775 CURVE SMOOTH"
);
},
{
closed = 1;
nodes = (
"56 487 OFFCURVE",
"143 467 OFFCURVE",
"211 473 CURVE SMOOTH",
"325 483 OFFCURVE",
"401 564 OFFCURVE",
"415 579 CURVE SMOOTH",
"460 626 OFFCURVE",
"394 675 OFFCURVE",
"362 619 CURVE SMOOTH",
"303 515 OFFCURVE",
"135 69 OFFCURVE",
"78 56 CURVE SMOOTH",
"37 46 OFFCURVE",
"65 203 OFFCURVE",
"104 159 CURVE SMOOTH",
"144 115 OFFCURVE",
"188 -44 OFFCURVE",
"279 -35 CURVE SMOOTH",
"379 -25 OFFCURVE",
"437 115 OFFCURVE",
"475 227 CURVE SMOOTH",
"495 286 OFFCURVE",
"441 292 OFFCURVE",
"430 259 CURVE SMOOTH",
"367 69 OFFCURVE",
"304 19 OFFCURVE",
"277 19 CURVE SMOOTH",
"223 19 OFFCURVE",
"168 228 OFFCURVE",
"94 228 CURVE SMOOTH",
"11 228 OFFCURVE",
"-31 31 OFFCURVE",
"44 3 CURVE SMOOTH",
"82 -11 OFFCURVE",
"138 12 OFFCURVE",
"188 110 CURVE SMOOTH",
"245 222 OFFCURVE",
"356 456 OFFCURVE",
"406 576 CURVE SMOOTH",
"428 629 OFFCURVE",
"402 626 OFFCURVE",
"371 617 CURVE SMOOTH",
"371 617 OFFCURVE",
"300 543 OFFCURVE",
"216 533 CURVE SMOOTH",
"175 528 OFFCURVE",
"124 529 OFFCURVE",
"133 609 CURVE SMOOTH",
"139 660 OFFCURVE",
"79 652 OFFCURVE",
"73 610 CURVE SMOOTH"
);
}
);
width = 448;
}
);
leftMetricsKey = Z;
rightMetricsKey = Z;
unicode = 0179;
},
